<svg xmlns="http://www.w3.org/2000/svg" width="800" height="800" viewBox="0 0 800 800"><g opacity=".1"><path d="M495.092 53.455c.097-9.185.032-18.428 1.353-27.553 5.641-2.011 11.298-3.976 16.922-6.007a710.728 710.728 0 0 0-3.578 13.021c6.721.113 15.116 4.452 10.894 11.478-2.224 3.723-4.528 7.377-6.72 11.095a613.653 613.653 0 0 0-18.871-2.034m-69.265 14.642c26.816 9.061 55.535 2.787 81.545-5.798.532 7.485 1.273 14.951 2.144 22.421-4.738 4.923-9.621 9.698-14.52 14.435-11.055 10.673-22.272 21.281-31.94 33.223 5.881.358 11.78.769 17.678 1.104a935.056 935.056 0 0 1-15.809 12.127c-.758 2.075.967 7.01 1.273 9.259 7.542-3.534 14.859-7.623 22.74-10.5 9.476-3.424 21.917-1.007 31.973-.975 10.894.073 21.805 0 32.714.04 9.428.049 12.892 8.703 11.377 17.534-1.177 6.882-5.737 11.991-7.558 18.557-2.433 8.707-5.189 17.345-8.525 25.757-6.623 16.772-15.761 32.84-28.944 45.358 10.749 4.593 13.537 20.322-.886 15.096-5.786-2.095-12.377 8.122-16.615 12.236-5.85 5.689-16.712 1.68-24.673 1.209 9.75 2.01 33.456 10.265 39.918 2.748 7.09-8.251 6.962-7.207 16.389-2.163 7.655 4.081 17.517 6.91 22.61 13.916 7.091 9.717 19.275 18.715 22.353 30.426 4.158 15.809 8.138 31.712 13.924 47.025 4.287 11.354 8.718 18.924 19.822 24.347 12.571 6.136 19.226 10.508 27.719 22.01 3.594 4.919 7.382 9.762 12.006 13.746-1.418 4.883-1.192 9.963.435 14.77 3.691 10.81 12.554 18.695 18.308 28.295-7.091-2.413-14.52-4.355-20.805-8.626-6.672-4.516-17.131.685-24.963 2.881 8.348.161 16.695-.04 25.044-.246a93.396 93.396 0 0 1 19.693 17.413c5.705 6.704 10.491 14.206 14.23 22.183-5.882 7.719-11.958 15.266-17.921 22.864 5.528 3.404 11.024 6.789 16.502 10.233 2.901-5.919 5.673-17.175 12.571-17.312 7.961-.137 15.954-.862 23.915-.295 15.31 1.108 30.974 10.234 33.987 26.362 2.225 11.845.725 36.361-6.72 45.684-6.35 7.965-12.184 16.385-17.018 25.394-8.767-.677-16.083 4.529-23.271 8.723 4.738-1.628 9.46-3.3 14.166-4.968.112 13.605-10.814 19.843-22.626 22.687 15.358 5.358 31.845 9.464 47.928 4.65.178 5.169.306 10.346.435 15.511.177 6.249-10.475 9.698-15.261 13.38-6.946 5.282-10.652 10.109-18.662 13.996-7.429 3.643-14.698 7.688-21.644 12.184-6.64 4.275-15.229-.83-23.335-1.008-8.138-.185-16.212.984-24.302 2.047-15.841 2.035-27.622 1.579-42.272-4.569 5.786 4.702 12.055 8.771 18.227 12.957a473.044 473.044 0 0 0-9.041 11.812c-8.009-6.631-13.553-14.81-24.108-13.412-3.772.512-7.542.999-11.281 1.503a649.772 649.772 0 0 0-.725 11.136c-8.413-1.769-16.776-3.421-25.254-4.908.355 2.837.742 5.697 1.112 8.574-6.479-5.04-13.038-9.859-19.806-14.452-7.075-4.794-17.147 2.7-24.447 6.217-9.444 4.56-9.895 5.032-10.297 14.967-.371 9.633-7.155 16.031-12.248 24.06-9.879-9.121-17.163-13.307-31.071-13.964-13.827-.661-27.509 3.69-37.147 13.883-.918-2.57-1.821-5.185-2.724-7.772.451 9.137-1.563 18.299-6.542 26.035-6.462-7.136-9.686-15.117-19.564-11.104-3.432 1.398-7.188 2.731-10.862 1.124-.064-4.545 2.369-7.861 6.204-9.959 6.93-3.804 15.052-4.795 20.87-10.487 8.042-7.833 11.619-17.304 20.451-24.573a264.376 264.376 0 0 0 11.298-9.923c5.269-4.911 4.351-10.821 5.334-17.743 1.257-8.872 12.151-1.733 16.18-10.644 1.37-3.07 1.047-6.648.306-9.827 6.591-2.3 13.569-3.234 20.515-3.259 13.956-.064 27.638 3.098 41.547 3.481.225-6.486-.742-10.689 3.835-15.544 6.753-7.22 13.457-14.581 19.258-22.565-7.913 5.112-16.357 8.633-24.254 13.553-10.54 6.592-13.312 14.19-25.898 6.434-3.691-2.272-6.962-5.136-9.944-8.264-5.141-5.358-4.851-7.122-12.119-4.552-7.51 2.667-15.681 4.762-19.871-4.033 4.689-.568 9.363-1.12 14.068-1.684-7.139-2.542-14.1-5.842-21.643-6.966-9.235 3.553-18.049 8.057-27.251 11.667-.645-3.497-1.305-7.002-1.919-10.519-4.013.569-8.042 1.072-12.038 1.632 4.206-4.162 8.332-8.388 12.652-12.437-5.157-1.104-10.314-2.317-15.471-3.494 17.517-13.126 39.402-18.331 57.21-30.889 18.002-12.663 7.301-37.441 5.351-54.942-10.378 4.432-20.886 8.827-31.926 11.495 7.688-9.154 16.938-16.793 25.189-25.41-4.222-3.747-8.525-7.429-12.812-11.096-5.785-4.931-3.513-6.007-1.353-12.582 4.126-12.703 19.871 4.001 24.818 6.765 8.235 4.633 19.226-1.1 27.944-2.426 5.947-.899 12.071-.959 17.518 2.043 6.14-.577 12.345-.677 18.533-.577-5.125-4.383-10.556-8.755-14.214-14.52-5.898-9.242 2.046-14.339 8.686-20.979-3.336-.262-6.672-.463-9.976-.725 4.013-12.086 8.026-24.221 10.895-36.659-6.188 3.699-12.135 7.692-17.953 11.926-2.982-8.155-6.995-15.894-11.7-23.206-2.771-4.376-5.786-8.594-8.944-12.699 1.209-3.098 2.257-6.241 3.304-9.387 4.239-12.413 9.83-26.329 24.641-28.142-5.189-.113-10.378-.44-15.583-.682-6.849-.326-7.623 2.494-12.877 6.426-4.126 3.042-8.461 5.749-12.812 8.473-6.994 4.395-11.845-2.498-18.146-6.813-.484 4.943-.935 9.875-1.435 14.803-10.717-2.535-17.936-11.68-27.541-16.418a1061.43 1061.43 0 0 0 3.029 20.036c-4.657-7.038-17.823-20.051-13.327-27.288 5.754-9.234 10.25-19.169 15.568-28.654 2.24-4.049 4.673-8.029 7.382-11.812 4.206-5.834.45-6.471-3.965-11.345-4.206-4.641-6.962-5.649-6.591-12.127.37-6.245.805-12.518 1.353-18.755 4.061.351 8.106.725 12.135 1.14-3.932-3.449-7.8-6.974-11.506-10.672-1.821 10.58-5.334 20.733-7.316 31.268-4.529-4.794-15.294-12.208-14.327-19.125 1.483-10.317 10.459-17.549 17.212-24.628-3.948 2.679-7.962 5.217-12.087 7.582-6.527 3.747-7.09 9.948-7.638 17.208-.339 4.432-4.142 30.571-2.321 31.808a2040.937 2040.937 0 0 1 7.236-15.306c9.701 3.956 7.59 16.905 9.782 25.1-5.705-1.153-17.921-7.893-19.999-1.692-3.594 10.773-3.755 11.341-14.972 13.042 2.965-11.253 5.028-23.005 3.256-34.621 2.046.194 4.06.375 6.091.585-3.416-15.705-.37-28.191 1.951-43.585 2.111-14.113 6.655-28.468 18.436-37.505-9.701 5.217-24.093 12.893-20.757 24.798 2.289 8.194-31.297 8.545-37.726 7.196 5.849-3.404 11.684-6.87 17.517-10.282-4.045-4.919-8.042-9.839-11.974-14.863 9.171-1.314 11.91.391 10.25-10.085-1.708-10.958-6.623-21.192-14.794-28.786 9.815 0 15.407 8.577 20.967 15.358a4161.235 4161.235 0 0 1-7.688-3.554c1.064 8.275 1.29 22.816 12.458 10.911 7.913-8.401 4.625-22.135 11.426-31.184-5.351 5.104-10.701 10.193-16.035 15.306 1.305-4.251 2.53-8.55 3.835-12.8-7.606 1.224-15.728-.918-20.031-7.731-1.885-2.909-2.852-6.293-3.207-9.738-4.27-.129-8.557-.318-12.812-.479a482.982 482.982 0 0 1 6.398-17.389c3.465 1.603 7.01 3.146 10.475 4.746 1.144-5.999 2.224-12.015 3.417-18.03 8.235 6.06 10.394 16.112 10.91 25.769.258 6.007 3.787 8.698 7.542 13.323 4.013 4.879 11.249-4.258 15.681-7.526-3.9.415-7.768.927-11.668 1.423.532-5.27-3.48-10.177-2.385-15.447.58-2.957 3.32-4.258 5.995-4.851-1.096-7.413-2.224-14.81-3.448-22.207a635.77 635.77 0 0 1 21.885-2.461c-1.241-4.178-2.45-8.344-3.706-12.522 3.013-1.793 3.835-5.121 4.093-8.332.516-6.023.903-10.809 8.476-8.827.09-11.948 1.557-18.33 7.246-28.49M334.194 98.95c14.487-6.809 27.074-16.809 40.063-26.003.081 7.523.29 15.008.548 22.526-4.496 1.668-7.993 4.976-9.347 9.665-1.885 6.559 1.564 9.274-4.303 13.916a960.825 960.825 0 0 1-19.983 15.226c-10.185 7.533-12.989 23.271-14.955 35.196-1.08 6.471-1.773 12.981-2.531 19.468-4.883 5.712-9.589 11.534-14.778 16.933 12.167-17.925 8.88-40.539 8.719-60.949-4.626 3.404-9.25 6.781-13.86 10.201 7.719-8.219 17.05-14.347 25.092-22.094 5.382-5.21 10.201-7.168 7.832-14.794-1.901-6.241-2.707-12.784-2.497-19.291"/><path d="M355.321 291.56c15.6-3.348 26.446-15.633 37.937-25.721-9.992 17.143-13.924 41.01-33.456 50.547.935-5.294 1.821-10.585 2.739-15.886-3.803 2.465-7.607 4.911-11.41 7.372 1.29-5.463 2.707-10.898 4.19-16.312m10.701 51.747c-.564-3.13-1.096-6.277-1.66-9.408 4.528 10.23 8.316 20.818 13.408 30.826 2.901 5.721 6.269 11.224 10.314 16.224-3.223 5.08-6.817 9.927-10.12 14.967 4.173-2.739 8.38-5.463 12.553-8.226 3.691 3.259 6.237 7.687 7.51 12.405 2.353 8.9.032 19.677-8.429 24.532-5.769 3.308-7.961.488-11.104 7.248a352.677 352.677 0 0 1-4.528 9.505c-4.996-1.724-10.217-2.885-15.503-3.187a47.632 47.632 0 0 0-10.41.52c-8.075 1.285-6.269-1.789-9.718-8.566-4.045-7.913-8.686-15.464-13.038-23.202-6.123 8.521-10.217 23.697-22.433 25.24-13.166 1.66-27.767-21.498-33.166-31.743 6.848-.472 13.746-.919 20.596-1.399-2.321-5.395-4.722-10.721-6.995-16.111 8.67.717 15.681-3.42 20.37-10.532 1.918-2.953 3.449-6.148 4.786-9.383 2.692-6.426 2.337-6.567 9.379-6.865 9.09-.391 11.137-7.889 20.064-10.584 9.091-2.733 18.777-1.774 28.124-2.261m-16.196 41.933c-.757 6.539-1.338 13.122-1.805 19.706 8.815-2.341 11.507-11.161 13.989-18.867-4.062-.291-8.107-.569-12.184-.839M431 445.814c-.355-14.694 9.298-26.18 19.338-35.596 8.478 16.008-6.268 29.053-19.338 35.596z"/><path d="M321.147 304.796c9.92 1.404 13.289 12.136 21.248 16.723 2.799 1.609 3.251 1.29 4.156 4.491-2.497 1.52-5.128 2.806-7.725 4.139-5.161 2.648-10.39 5.571-13.875 10.36-3.066 5.471-10.205 1.617-12.366 7.021-2.329 5.873-6.134 10.59-7.239 16.97-2.262 1.609-4.624 3.192-6.401 5.366-2.999 3.687-2.697 3.745-7.942 4.361-3.871.448-7.792.821-11.696.356-4.005-.478-4.34.837-7.256 3.469 4.624 2.857 9.3 5.676 14.042 8.353-5.379 3.246-11.327 8.5-18.097 7.247-4.206-.791-3.77-2.773-6.368 1.181-1.893 2.887-8.562 2.82-11.913 3.524 2.497 10.934 13.506 17.649 15.517 28.742.77 4.223.234 3.967 4.691 5.04 5.094 1.219 5.497 2.991 8.328 7.218 4.005 5.957 13.941 5.722 20.309 8.809a416.44 416.44 0 0 0-.939-6.606c1.425.625 2.866 1.219 4.307 1.806 1.273-5.915 13.891-8.831 5.547-15.022 4.407-3.113 7.758-7.872 12.852-10.028 6.351-2.681 8.496 5.521 9.702 10.502 1.206 4.918 1.424 13.35 6.602 15.533 3.452 1.446 7.39 1.014 6.183 5.186a210.61 210.61 0 0 0-3.251 12.773c6.568-.256 11.881-.754 18.114 1.399.251-2.242.587-4.474.821-6.719 7.222 4.884 12.333 12.052 17.879 18.621-6.87 2.036-12.986-1.621-17.762-6.301-1.658 4.558-3.72 9.187-3.451 14.164 1.86.959 3.72 1.91 5.58 2.861 2.999 1.546.938 5.727.251 8.588-1.525 6.17-2.43 11.691-.302 17.867 1.877 5.438 5.898 9.739 8.597 14.741-2.866.147-5.698.311-8.53.461 1.927 1.501 3.854 3.008 5.781 4.529-2.748.138-5.479.323-8.227.461 3.603 3.875 6.803 8.072 9.953 12.308-4.339-.302-8.663-.818-12.987-1.177 5.48 8.244 8.261 22.286 5.413 31.891-1.441 4.768-3.284 9.992.017 14.466-1.961 5.743-5.346 10.816-8.379 16.027-1.29 2.238-2.547 4.496-3.586 6.87-1.189 2.685-2.581 3.268-4.306 5.513-3.15 4.13-3.385 9.568-2.715 14.511-4.055 7.951-12.819 12.718-15.316 21.578-2.479-.904-4.96-1.839-7.44-2.739 1.525 4.047 4.726 7.243 6.418 11.231.837 2.002 1.29 4.319.201 6.342-1.223 2.254-3.602 1.001-5.848 1.069-3.569.105-7.742.946-11.093-.683-2.011-.963-3.117-2.874-3.603-4.998a199.402 199.402 0 0 0-9.853-.544c1.174-2.304 2.329-4.605 3.502-6.908-4.088 4.554-7.641 9.556-11.294 14.449 2.062-6.623-2.245-12.241-4.775-17.988.268 4.03 2.497 8.29 1.324 12.337-1.307 4.508-7.138 4.595-10.909 5.433.57-1.495 1.139-2.987 1.726-4.466-8.446 1.688-30.078-4.772-33.949 5.794-1.793 4.871-5.865 8.449-10.808 9.89a19.78 19.78 0 0 1-7.843.595c-.536-1.985-1.039-3.988-1.575-5.977-2.848 3.716-5.547 5.287-4.49 10.062-7.507.632-13.171 7.218-20.694 7.729-2.648.18-9.451-1.839-6.586-4.91 2.899-3.108 4.893-5.823 6.82-9.623-3.402 2.2-6.82 4.327-10.305 6.385.117-2.618.234-5.241.385-7.863-2.178.08-4.34.125-6.535.163 1.709 1.068 3.401 2.133 5.111 3.188-1.039 1.537-5.949 7.264-1.893 8.161 4.575 1.013 1.391 7.016-2.044 8.332-3.72 1.437-7.892.993-11.629 2.19-4.055 1.278-1.86 7.767-2.363 10.75a147.252 147.252 0 0 0-10.624-7.671c-1.307 3.192-2.564 6.401-3.87 9.594-3.486-1.902-6.719-3.733-9.87-6.145-1.324 2.287-2.665 4.566-3.971 6.858-4.038-4.512-9.534-7.117-15.383-4.277.251-1.63.503-3.281.771-4.91a1256.995 1256.995 0 0 1-4.843 5.99c-2.195 2.715-3.586 2.053-6.904 2.576-5.262.838-10.389 2.275-15.617 3.306a164.524 164.524 0 0 1 8.579-4.16c-.335-2.739-.721-5.467-1.039-8.206a1993.002 1993.002 0 0 0-15.885 3.862c.335-2.527.754-5.052 1.24-7.562 2.128-1.495 4.223-3.024 6.334-4.52a211.07 211.07 0 0 0-13.975 3.15c2.546 2.048 5.63 3.615 4.29 7.552-1.526 4.562-8.362 5.471-12.434 5.141 1.542-2.648 3.05-5.337 4.893-7.805 2.028-2.723.805-4.906.184-8.177 8.597-3.088 17.578-4.91 26.308-7.566-.871-2.853-1.759-5.692-2.597-8.55-2.681 1.99-5.378 3.917-8.094 5.857-3.753 2.685-6.551-2.074-11.126-.851-9.384 2.522-18.198 5.179-27.883 5.74 1.222-3.213-2.614-2.463-4.826-2.715 4.357-1.072 8.764-1.814 13.187-2.522-1.307-1.901-2.631-3.799-3.938-5.701 2.597-.385 5.295-.394 7.825-1.186 3.418-1.072 3.954-3.385 7.674-3.762 8.429-.85 14.897-6.635 22.454-10.548-3.518.809-7.038 1.588-10.573 2.275-4.239.837-5.228.142-5.765 4.503-5.613-4.914-12.936-.382-19.237-.084.62-2.815-2.027-3.402-4.038-4.608-3.267-1.948.302-4.926 1.978-7.733-3.887 1.777-7.775 3.566-11.663 5.324-.419-5.336-1.122-10.041-2.413-15.248 6.937-2.744 14.26-8.504 21.75-9.099 3.637-.281 7.273-.281 10.926-.452 4.406-.218 1.977-1.839 4.96-3.875 3.62-2.501 8.797-.746 12.249-3.783-8.093-.599-16.271-.218-24.28-1.73-4.324-.813-8.328-2.92-12.685-3.469-4.188-.532-8.411.025-12.618-.176 1.793-4.654 3.217-9.941 7.691-12.802.033 2.086.1 4.172.168 6.259 1.256-7.671 9.835-7.968 15.684-10.176l-1.206 9.4c4.373-2.564 8.361-5.739 11.897-9.375.268 2.412.57 4.822.871 7.226.386 3.038 8.361 2.342 11.177 2.505.536-3.649 1.257-7.26 2.078-10.854 1.022-4.499-4.038-6.695-6.469-10.473 7.139 2.627 14.897 2.882 22.169.637-2.128-3.514-4.273-5.396.704-7.549 3.334-1.433 7.004-.305 10.087 1.161 1.123 1.144 2.346 1.378 3.687.683 2.463-.595 3.184.825 5.396 1.822 3.017 1.349 6.318 1.738 9.602 1.462 6.853-.595 13.237-3.607 19.806-5.404 9.149-2.505 14.545-.289 22.94 3.268-6.452-4.374-13.69-7.972-21.533-8.752.687-2.789 1.341-5.601 1.995-8.403-5.179.092-5.898-.227-8.831 4.348-2.129 3.335-6.603 12.157-11.496 11.327-2.027-.339-3.687-1.873-5.16-3.15-2.498-2.149-4.944-.481-7.96-.113-7.021.859-8.21-7.176-10.255-12.249.553 11.621-21.683 10.958-28.687 11.592 5.01-3.054 10.12-5.949 15.181-8.915 4.223-2.501 7.943-6.003 12.199-8.277 1.709-.926 3.619-1.428 5.563-1.341 3.2.113 3.234-1.219 5.128-3.812 3.485-4.792 6.937-9.643 10.925-14.03-2.983.147-5.982.264-8.982.415 3.217-3.8 6.385-7.629 9.585-11.445 2.665-3.18 7.943-12.337 11.814-10.155 2.631 1.483 7.305 5.843 9.635 3.54 3.703-3.64 3.82-4.516 8.512-2.274.268-3.62.553-7.235.804-10.842-9.249.461-18.532-.055-27.715-1.219-4.173-.532-5.664-.993-8.663-3.682-5.01.243-10.037.138-15.047.088.838-2.853 3.753-3.464 6.032-5.278 3.352-2.63 6.418-5.769 10.406-7.423-5.094-2.099-12.952-2.685-10.322 5.257-4.977-1.458-9.736-3.544-14.595-5.308a208.287 208.287 0 0 1 8.228-7.758c-2.413-.904-4.809-1.805-7.222-2.693-.067 1.86-.1 3.711-.151 5.567-3.116-2.091-6.25-4.176-9.367-6.28-3.116-.963-6.435-2.014-8.478-4.742 3.251-.854 9.735-.763 8.847-4.666-1.039-4.436-3.753-8.178-6.602-11.642a28.997 28.997 0 0 1 19.304 5.153 867.97 867.97 0 0 0-5.731-8.768c6.954 2.082 14.847 2.388 20.577 7.344-2.546-2.581-5.445-4.855-7.54-7.854-2.848-4.102-1.189-7.733 0-12.237-.218-2.748.872-3.569 3.284-2.48 2.564.206 5.128.277 7.692.432 4.24.26 8.546.771 12.484 2.522-1.206-5.68-.268-6.049 3.753-9.794-7.071-5.752-16.639-4.738-25.118-4.579 1.827-6.493 6.786-15.806 11.663-5.438 2.01-3.649-1.777-5.81-4.273-7.674-2.329-1.739.335-7.813.921-10.494-2.63 2.999-3.267 7.055-4.557 10.695-1.257-1.382-2.53-2.752-3.804-4.147 2.698 5.789 1.173 11.93-1.978 17.163-2.212-3.758-4.406-7.607-5.647-11.826-1.289-4.478-8.478-3.989-12.852-5.462 7.892-3.699 17.293-4.563 25.051-.03-2.949-5.022-3.904-5.391-.519-10.402 3.402-5.056 6.401-10.447 8.579-16.161 2.296 1.47 4.641 2.882 6.954 4.31-2.53-3.615-5.077-7.218-7.389-10.971 12.081 2.472 23.476 8.001 35.909 8.713 1.844 1.525 3.653 3.062 5.48 4.587 2.614 2.183 1.374 3.234.385 6.221 1.24 2.509 2.43 5.064 3.637 7.59-.687 2.036-1.408 4.072-2.129 6.112 3.05-4.344 5.949-8.805 8.345-13.548 2.697-5.278 9.4-1.131 12.517 2.044 3.3 3.335 11.294.004 12.936 4.194 1.324 3.376 3.083 6.862 6.82 8.018a211.556 211.556 0 0 0-4.877-9.753c2.95.218 5.898.432 8.831.654-.067-2.183-.151-4.39-.218-6.581-3.937.164-7.708-1.102-10.64-3.783 8.361-3.812 16.422-7.482 25.202-10.033a91.21 91.21 0 0 0 4.692-1.5c3.184-1.094 2.664-2.401 4.39-5.023 2.564-3.896 6.35-6.773 10.272-9.178-4.24 0-8.63.365-12.45 2.354-1.273-4.486-13.154-4.344-17.109-4.583-6.669-.432-11.327-6.179-15.751-10.469 6.401-5.743 14.545-10.021 23.393-8.475-.536-2.823-1.056-5.659-1.609-8.5 2.915.792 5.814 1.591 8.73 2.379 2.513.683 4.473-2.157 6.4-3.741a356.942 356.942 0 0 0-6.769-3.347c.134-1.735.251-3.477.385-5.212.352-4.842-2.899-3.996-7.273-4.901.889-1.839 1.76-3.675 2.631-5.517 2.866 1.827 5.496 3.996 8.277 5.923-.134-1.667-.285-3.343-.435-5.014 4.44-.055 8.26-2.091 10.59-5.903-2.312-.176-4.608-.327-6.92-.511 2.966-1.546 5.965-3.142 9.2-4.072 4.775-1.383 4.893-.52 6.3-5.391-.184 2.764-.335 5.529-.519 8.29a315.733 315.733 0 0 1 7.44-3.64c3.669-1.755 5.111-5.107 7.49-8.32-.503 2.89-.988 5.794-1.475 8.693 2.866-.263 4.156-1.357 5.379 1.424a15.063 15.063 0 0 0 4.91 6.062c-.754-2.463-1.475-4.943-2.213-7.411-.871-3.004 4.34-5.371 6.636-7.067-1.023 2.681-2.044 5.362-3.066 8.026 6.317 1.286 6.317 7.738 6.686 12.915.619-2.908 1.173-5.836 1.843-8.743a515.343 515.343 0 0 1-5.898-7.951c4.139-1.898 8.312-3.733 12.534-5.42-.686 3.82-1.34 7.657-2.195 11.453 1.407 3.536 5.245 8.571 2.011 11.114-3.319 2.606-2.749 3.297-4.307 6.694-1.29 2.815-4.021 4.612-6.116 6.753 3.066-1.625 12.215-4.327 11.361-7.696-.721-2.844 1.156-3.921 2.781-6.183 2.213-3.062.889-3.552-.888-6.573-1.759-3.008-2.966-3.318-1.491-6.707 1.072-2.476 2.162-4.956 3.217-7.436 2.933-.084 5.865-.151 8.78-.273 4.089-.167 5.396 2.107 8.328 4.772-2.06-4.465-4.254-8.889-5.964-13.518"/></g></svg>