<svg xmlns="http://www.w3.org/2000/svg" width="800" height="800" viewBox="0 0 800 800"><g opacity=".1"><path d="M161.014 549.195c.033-3.115.011-6.249.459-9.343 1.913-.682 3.831-1.348 5.738-2.037-.421 1.469-.82 2.937-1.213 4.415 2.279.038 5.126 1.509 3.694 3.892-.754 1.262-1.535 2.501-2.279 3.762a205.959 205.959 0 0 0-6.399-.689m-23.487 4.964c9.093 3.072 18.831.945 27.651-1.966.18 2.538.432 5.07.727 7.603-1.607 1.669-3.262 3.288-4.924 4.895-3.749 3.619-7.552 7.216-10.83 11.265 1.994.121 3.994.261 5.994.374a321.178 321.178 0 0 1-5.361 4.112c-.257.704.328 2.377.432 3.139 2.558-1.198 5.038-2.585 7.711-3.56 3.213-1.161 7.432-.342 10.842-.331 3.694.025 7.394 0 11.093.014 3.197.016 4.372 2.951 3.858 5.945-.399 2.333-1.945 4.066-2.563 6.292-.825 2.952-1.76 5.881-2.891 8.734-2.246 5.687-5.344 11.135-9.814 15.38 3.645 1.557 4.59 6.891-.3 5.119-1.962-.71-4.197 2.754-5.634 4.149-1.984 1.929-5.667.57-8.366.41 3.306.682 11.344 3.481 13.536.932 2.404-2.798 2.361-2.444 5.557-.734 2.596 1.384 5.94 2.343 7.667 4.719 2.404 3.295 6.536 6.346 7.579 10.317 1.41 5.361 2.759 10.753 4.721 15.945 1.454 3.85 2.956 6.417 6.721 8.256 4.263 2.081 6.519 3.563 9.399 7.463 1.219 1.668 2.503 3.31 4.071 4.661-.481 1.656-.404 3.378.148 5.008 1.251 3.665 4.257 6.339 6.208 9.594-2.404-.818-4.924-1.477-7.055-2.925-2.262-1.531-5.809.232-8.465.977 2.831.055 5.661-.014 8.492-.083a31.689 31.689 0 0 1 6.678 5.904 33.683 33.683 0 0 1 4.825 7.522c-1.995 2.617-4.055 5.176-6.077 7.753a710.874 710.874 0 0 1 5.596 3.47c.984-2.007 1.924-5.824 4.263-5.87 2.699-.046 5.41-.292 8.109-.1 5.191.376 10.503 3.47 11.525 8.939.754 4.016.246 12.329-2.279 15.491-2.153 2.701-4.131 5.556-5.771 8.611-2.973-.229-5.454 1.536-7.891 2.958a502.59 502.59 0 0 0 4.803-1.685c.038 4.613-3.667 6.728-7.672 7.693 5.208 1.817 10.798 3.209 16.252 1.577.06 1.753.104 3.508.147 5.26.06 2.119-3.552 3.288-5.175 4.537-2.355 1.791-3.612 3.428-6.328 4.746a71.211 71.211 0 0 0-7.339 4.131c-2.251 1.45-5.164-.281-7.913-.342-2.76-.063-5.497.333-8.24.694-5.372.69-9.366.536-14.334-1.549 1.962 1.594 4.088 2.974 6.18 4.393a159.49 159.49 0 0 0-3.066 4.005c-2.716-2.249-4.596-5.022-8.175-4.548-1.279.173-2.558.339-3.825.51a220.68 220.68 0 0 0-.246 3.776 258.2 258.2 0 0 0-8.563-1.664c.12.962.252 1.932.377 2.907a127.632 127.632 0 0 0-6.716-4.9c-2.399-1.626-5.814.915-8.29 2.108-3.202 1.546-3.355 1.706-3.492 5.075-.126 3.266-2.426 5.436-4.153 8.159-3.35-3.093-5.82-4.512-10.536-4.735-4.689-.224-9.328 1.251-12.596 4.708-.311-.872-.617-1.758-.924-2.635.153 3.098-.53 6.205-2.218 8.828-2.191-2.42-3.284-5.126-6.634-3.765-1.164.474-2.437.926-3.683.381-.022-1.541.803-2.665 2.104-3.377 2.35-1.29 5.104-1.626 7.077-3.556 2.727-2.656 3.94-5.868 6.934-8.332a89.457 89.457 0 0 0 3.831-3.365c1.787-1.665 1.475-3.669 1.809-6.017.426-3.008 4.12-.588 5.486-3.609.464-1.041.355-2.254.104-3.332 2.235-.78 4.601-1.097 6.956-1.105 4.732-.022 9.372 1.051 14.088 1.18.076-2.199-.252-3.624 1.3-5.271 2.29-2.448 4.563-4.944 6.53-7.652-2.683 1.734-5.546 2.927-8.224 4.595-3.574 2.235-4.514 4.812-8.782 2.182-1.251-.771-2.361-1.742-3.372-2.802-1.743-1.817-1.645-2.415-4.109-1.544-2.547.904-5.317 1.615-6.738-1.368 1.59-.193 3.175-.38 4.77-.571-2.421-.862-4.781-1.981-7.339-2.362-3.131 1.205-6.12 2.732-9.24 3.956-.219-1.186-.443-2.374-.651-3.567-1.361.193-2.727.363-4.082.553 1.426-1.411 2.825-2.844 4.29-4.217-1.749-.374-3.497-.786-5.246-1.185 5.94-4.451 13.361-6.216 19.399-10.474 6.104-4.294 2.476-12.695 1.814-18.63-3.519 1.503-7.082 2.993-10.825 3.898 2.607-3.104 5.743-5.694 8.541-8.616-1.432-1.271-2.891-2.519-4.344-3.763-1.962-1.672-1.191-2.037-.459-4.266 1.399-4.307 6.738 1.357 8.415 2.294 2.792 1.571 6.519-.373 9.475-.823 2.016-.305 4.093-.325 5.94.693 2.082-.196 4.186-.23 6.284-.196-1.738-1.486-3.579-2.969-4.82-4.923-2-3.134.694-4.862 2.945-7.114-1.131-.089-2.262-.157-3.383-.246 1.361-4.098 2.722-8.213 3.694-12.431a80.697 80.697 0 0 0-6.088 4.044c-1.011-2.765-2.372-5.389-3.967-7.869a57.795 57.795 0 0 0-3.033-4.306c.41-1.051.765-2.116 1.12-3.183 1.437-4.209 3.333-8.928 8.355-9.542-1.76-.038-3.519-.149-5.284-.231-2.323-.11-2.585.846-4.366 2.179-1.399 1.032-2.869 1.95-4.344 2.873-2.372 1.49-4.017-.847-6.153-2.31-.164 1.676-.317 3.349-.487 5.019-3.634-.859-6.082-3.961-9.339-5.567.322 2.268.661 4.531 1.027 6.794-1.579-2.387-6.044-6.799-4.519-9.253 1.951-3.131 3.475-6.5 5.279-9.716a40.838 40.838 0 0 1 2.503-4.005c1.426-1.978.153-2.194-1.344-3.847-1.426-1.574-2.361-1.915-2.235-4.112.126-2.118.273-4.245.459-6.359 1.377.119 2.749.246 4.115.387a82.834 82.834 0 0 1-3.902-3.619c-.617 3.587-1.809 7.03-2.481 10.602-1.536-1.626-5.186-4.139-4.858-6.485.503-3.498 3.547-5.951 5.836-8.351a64.158 64.158 0 0 1-4.099 2.571c-2.213 1.271-2.404 3.373-2.59 5.835-.115 1.503-1.405 10.366-.787 10.786a659.788 659.788 0 0 1 2.454-5.19c3.289 1.342 2.574 5.732 3.317 8.511-1.934-.391-6.077-2.676-6.781-.574-1.219 3.653-1.273 3.846-5.077 4.422 1.006-3.816 1.705-7.801 1.104-11.74.694.066 1.377.127 2.065.198-1.158-5.325-.126-9.559.661-14.779.716-4.785 2.257-9.653 6.251-12.717-3.289 1.769-8.169 4.372-7.038 8.409.776 2.779-10.612 2.897-12.792 2.44 1.983-1.154 3.962-2.329 5.94-3.486a267.596 267.596 0 0 1-4.06-5.04c3.11-.445 4.038.133 3.475-3.419-.579-3.716-2.246-7.186-5.017-9.761 3.328 0 5.224 2.908 7.11 5.208l-2.607-1.205c.361 2.806.437 7.737 4.224 3.7 2.683-2.849 1.568-7.505 3.874-10.574-1.814 1.731-3.629 3.456-5.437 5.19.443-1.441.858-2.899 1.3-4.34-2.579.415-5.333-.311-6.792-2.622-.639-.987-.967-2.134-1.088-3.302-1.448-.044-2.902-.108-4.344-.163.683-1.977 1.41-3.944 2.169-5.896 1.175.544 2.377 1.067 3.552 1.609.388-2.034.754-4.074 1.159-6.114 2.792 2.055 3.524 5.463 3.699 8.738.088 2.037 1.284 2.95 2.558 4.518 1.361 1.654 3.814-1.444 5.317-2.552-1.323.141-2.634.314-3.956.482.18-1.787-1.18-3.451-.809-5.238.197-1.003 1.126-1.444 2.033-1.645a445.877 445.877 0 0 0-1.169-7.53c2.47-.32 4.945-.601 7.421-.835-.421-1.417-.831-2.829-1.257-4.246 1.022-.608 1.3-1.736 1.388-2.825.175-2.042.306-3.665 2.874-2.993.039-4.048.537-6.212 2.466-9.658m-31.071 10.462c4.912-2.309 9.18-5.699 13.585-8.817.027 2.551.098 5.089.186 7.638-1.525.566-2.71 1.687-3.169 3.277-.639 2.224.53 3.145-1.459 4.719a325.188 325.188 0 0 1-6.776 5.163c-3.454 2.554-4.404 7.891-5.071 11.935-.366 2.194-.601 4.402-.858 6.601-1.656 1.937-3.251 3.911-5.011 5.742 4.126-6.078 3.011-13.746 2.956-20.667-1.568 1.154-3.137 2.299-4.7 3.459 2.617-2.787 5.781-4.865 8.508-7.492 1.825-1.767 3.459-2.43 2.656-5.017a20.226 20.226 0 0 1-.847-6.541"/><path d="M113.619 629.932c5.29-1.135 8.967-5.301 12.864-8.721-3.388 5.813-4.721 13.906-11.344 17.14.317-1.795.617-3.589.929-5.387-1.29.836-2.579 1.665-3.869 2.5a161.85 161.85 0 0 1 1.42-5.532m3.629 17.547c-.191-1.062-.372-2.129-.563-3.19 1.535 3.469 2.82 7.059 4.546 10.452.984 1.94 2.126 3.806 3.497 5.501-1.093 1.723-2.312 3.366-3.432 5.075 1.415-.929 2.841-1.852 4.257-2.789 1.251 1.105 2.115 2.606 2.547 4.206.798 3.018.011 6.672-2.858 8.318-1.956 1.122-2.699.165-3.765 2.458a121.689 121.689 0 0 1-1.535 3.223c-1.694-.585-3.465-.978-5.257-1.081a16.155 16.155 0 0 0-3.53.176c-2.738.436-2.126-.607-3.295-2.904-1.371-2.683-2.945-5.243-4.421-7.868-2.076 2.889-3.464 8.035-7.606 8.559-4.465.563-9.415-7.289-11.246-10.764 2.322-.16 4.661-.312 6.984-.474-.787-1.829-1.601-3.635-2.372-5.463 2.94.243 5.317-1.16 6.907-3.571.65-1.001 1.169-2.085 1.623-3.182.913-2.179.792-2.227 3.18-2.328 3.082-.133 3.776-2.675 6.804-3.589 3.081-.925 6.366-.6 9.535-.765m-5.492 14.218a150.028 150.028 0 0 0-.612 6.682c2.989-.794 3.902-3.784 4.743-6.398a893.376 893.376 0 0 0-4.131-.284m27.525 20.54c-.12-4.982 3.153-8.877 6.557-12.07 2.875 5.428-2.125 9.851-6.557 12.07z"/><path d="M102.032 634.42c3.364.476 4.506 4.115 7.205 5.67.949.545 1.102.438 1.409 1.523-.847.516-1.739.952-2.619 1.403-1.75.898-3.523 1.889-4.705 3.513-1.04 1.855-3.46.548-4.193 2.381-.79 1.991-2.08 3.591-2.455 5.754-.767.545-1.568 1.083-2.17 1.82-1.017 1.25-.915 1.27-2.693 1.479-1.313.152-2.642.278-3.966.121-1.358-.162-1.472.284-2.46 1.176 1.568.969 3.153 1.925 4.761 2.832-1.824 1.101-3.841 2.882-6.137 2.457-1.426-.268-1.278-.94-2.159.401-.642.979-2.903.956-4.04 1.195.847 3.707 4.58 5.984 5.261 9.746.261 1.432.079 1.345 1.591 1.709 1.727.413 1.864 1.014 2.824 2.447 1.358 2.02 4.727 1.94 6.886 2.987a150.83 150.83 0 0 0-.318-2.24c.483.212.972.413 1.46.612.432-2.006 4.71-2.994 1.881-5.094 1.494-1.055 2.631-2.669 4.358-3.4 2.154-.909 2.881 1.872 3.29 3.561.409 1.668.483 4.527 2.239 5.267 1.171.49 2.506.344 2.097 1.759a71.32 71.32 0 0 0-1.102 4.331c2.227-.087 4.029-.256 6.142.474.085-.76.199-1.517.278-2.278 2.449 1.656 4.182 4.087 6.063 6.314-2.329.69-4.403-.55-6.023-2.136-.562 1.546-1.261 3.115-1.17 4.803.631.325 1.261.648 1.892.97 1.017.524.318 1.942.085 2.912-.517 2.092-.824 3.964-.102 6.058.637 1.844 2 3.302 2.915 4.998-.972.05-1.932.105-2.892.156.653.509 1.307 1.02 1.96 1.536-.932.047-1.858.109-2.79.156 1.222 1.314 2.307 2.737 3.375 4.173-1.471-.102-2.937-.277-4.404-.399 1.858 2.795 2.801 7.557 1.835 10.814-.489 1.617-1.114 3.388.006 4.905-.665 1.947-1.813 3.668-2.841 5.435-.438.759-.864 1.524-1.216 2.33-.403.911-.875 1.108-1.46 1.869-1.068 1.4-1.148 3.244-.92 4.92-1.375 2.696-4.347 4.312-5.193 7.317-.841-.307-1.682-.623-2.523-.929.517 1.372 1.602 2.456 2.176 3.808.284.679.438 1.464.068 2.15-.415.764-1.222.339-1.983.362-1.21.035-2.625.321-3.762-.232-.682-.327-1.057-.975-1.222-1.695a66.755 66.755 0 0 0-3.341-.184c.398-.781.79-1.561 1.188-2.342-1.386 1.544-2.591 3.24-3.83 4.899.699-2.246-.761-4.151-1.619-6.1.091 1.366.847 2.811.449 4.183-.443 1.528-2.42 1.558-3.699 1.842.193-.507.386-1.013.585-1.514-2.864.573-10.199-1.618-11.511 1.965-.608 1.652-1.989 2.865-3.665 3.354a6.713 6.713 0 0 1-2.659.202c-.182-.673-.352-1.352-.534-2.027-.966 1.26-1.881 1.793-1.523 3.412-2.545.214-4.466 2.447-7.017 2.621-.898.061-3.205-.624-2.233-1.665.983-1.054 1.659-1.974 2.312-3.263a100.44 100.44 0 0 1-3.494 2.165c.04-.888.079-1.777.131-2.666-.739.027-1.472.042-2.216.055.579.362 1.153.723 1.733 1.081-.352.521-2.017 2.463-.642 2.767 1.551.344.472 2.379-.693 2.825-1.261.487-2.676.337-3.943.743-1.375.433-.631 2.634-.801 3.645a50.11 50.11 0 0 0-3.602-2.601c-.443 1.082-.869 2.17-1.312 3.253-1.182-.645-2.278-1.266-3.347-2.084-.449.776-.904 1.548-1.347 2.325-1.369-1.53-3.233-2.413-5.216-1.45.085-.553.17-1.112.262-1.665a383.86 383.86 0 0 1-1.642 2.031c-.744.92-1.216.696-2.341.874-1.784.284-3.523.771-5.296 1.121a56.083 56.083 0 0 1 2.909-1.411c-.114-.929-.244-1.854-.352-2.783-1.796.429-3.591.865-5.387 1.31a43.88 43.88 0 0 1 .421-2.564c.721-.507 1.432-1.026 2.148-1.533a71.264 71.264 0 0 0-4.739 1.068c.863.694 1.909 1.226 1.455 2.561-.517 1.547-2.836 1.855-4.216 1.743.523-.898 1.034-1.81 1.659-2.646.688-.923.273-1.663.063-2.773 2.915-1.047 5.961-1.665 8.921-2.566-.295-.967-.596-1.93-.881-2.899-.909.675-1.824 1.328-2.744 1.986-1.273.91-2.221-.703-3.773-.289-3.182.855-6.171 1.756-9.455 1.946.415-1.089-.886-.835-1.636-.92 1.477-.364 2.972-.615 4.472-.855-.443-.645-.892-1.288-1.335-1.933.881-.131 1.796-.133 2.653-.402 1.159-.364 1.341-1.148 2.602-1.276 2.858-.288 5.051-2.25 7.614-3.577-1.193.274-2.386.539-3.585.772-1.437.284-1.773.048-1.955 1.527-1.903-1.666-4.386-.129-6.523-.029.21-.954-.687-1.154-1.369-1.562-1.108-.661.102-1.67.671-2.622-1.318.603-2.636 1.209-3.955 1.805-.142-1.809-.381-3.405-.818-5.17 2.352-.93 4.835-2.884 7.375-3.085 1.233-.095 2.466-.095 3.705-.153 1.494-.074.67-.623 1.682-1.314 1.227-.848 2.983-.253 4.153-1.283-2.744-.203-5.517-.074-8.233-.586-1.466-.276-2.824-.99-4.301-1.176-1.42-.18-2.852.008-4.278-.06.608-1.578 1.091-3.371 2.608-4.341.011.707.034 1.415.057 2.122.426-2.601 3.335-2.702 5.318-3.451l-.409 3.188a19.132 19.132 0 0 0 4.034-3.179c.091.818.193 1.635.295 2.45.131 1.03 2.835.794 3.79.849.182-1.237.426-2.462.705-3.68.346-1.526-1.369-2.27-2.193-3.551 2.421.891 5.051.977 7.517.216-.721-1.192-1.449-1.83.239-2.56 1.13-.486 2.375-.104 3.42.394.381.388.796.467 1.25.232.835-.202 1.08.28 1.83.618 1.023.457 2.142.589 3.256.496 2.324-.202 4.488-1.223 6.716-1.832 3.102-.849 4.932-.098 7.778 1.108-2.188-1.483-4.642-2.703-7.301-2.968.233-.946.455-1.899.676-2.849-1.756.031-2-.077-2.994 1.474-.722 1.131-2.239 4.122-3.898 3.841-.687-.115-1.25-.635-1.75-1.068-.847-.729-1.676-.163-2.699-.038-2.381.291-2.784-2.433-3.477-4.153.188 3.94-7.352 3.716-9.727 3.93 1.699-1.036 3.432-2.017 5.148-3.023 1.432-.848 2.693-2.036 4.136-2.807a3.628 3.628 0 0 1 1.886-.455c1.085.038 1.097-.413 1.739-1.293 1.182-1.625 2.352-3.27 3.704-4.757-1.012.05-2.029.09-3.046.141 1.091-1.288 2.165-2.587 3.25-3.881.904-1.078 2.693-4.183 4.006-3.443.892.503 2.477 1.981 3.267 1.2 1.256-1.234 1.295-1.531 2.886-.771.091-1.227.187-2.453.273-3.676-3.136.156-6.284-.019-9.398-.413-1.415-.18-1.921-.337-2.938-1.249-1.699.082-3.403.047-5.102.03.284-.967 1.273-1.175 2.045-1.79 1.137-.892 2.176-1.956 3.528-2.517-1.727-.712-4.392-.911-3.5 1.783-1.688-.495-3.301-1.202-4.949-1.8a70.657 70.657 0 0 1 2.79-2.631c-.818-.307-1.631-.612-2.449-.913-.023.631-.034 1.258-.051 1.888-1.057-.709-2.119-1.416-3.176-2.129-1.057-.327-2.182-.683-2.875-1.608 1.102-.29 3.301-.259 3-1.582-.352-1.504-1.273-2.773-2.239-3.948a9.836 9.836 0 0 1 6.546 1.747c-.642-.993-1.29-1.989-1.943-2.973 2.358.706 5.034.81 6.977 2.49-.863-.875-1.846-1.646-2.557-2.663-.966-1.391-.403-2.622 0-4.149-.074-.932.296-1.21 1.114-.841.87.07 1.739.094 2.608.146 1.438.088 2.898.262 4.233.855-.409-1.926-.091-2.051 1.273-3.321-2.398-1.95-5.642-1.607-8.517-1.553.619-2.202 2.301-5.359 3.955-1.844.682-1.237-.602-1.97-1.449-2.602-.79-.59.114-2.649.312-3.558-.892 1.017-1.108 2.392-1.545 3.627-.426-.469-.858-.933-1.29-1.406.915 1.963.398 4.045-.671 5.82-.75-1.274-1.494-2.58-1.915-4.01-.437-1.519-2.875-1.352-4.358-1.852 2.676-1.254 5.864-1.547 8.494-.01-1-1.703-1.324-1.828-.176-3.527 1.153-1.714 2.17-3.542 2.909-5.48.778.498 1.574.977 2.358 1.462-.858-1.226-1.722-2.447-2.506-3.72 4.097.838 7.96 2.713 12.176 2.954.625.517 1.239 1.038 1.858 1.556.886.74.466 1.096.131 2.109.421.851.824 1.717 1.233 2.574-.233.69-.477 1.381-.722 2.072 1.034-1.473 2.017-2.986 2.83-4.594.915-1.79 3.188-.383 4.244.693 1.119 1.131 3.83.001 4.386 1.422.449 1.145 1.045 2.327 2.312 2.719a71.274 71.274 0 0 0-1.654-3.307c1 .074 2 .146 2.994.222-.023-.74-.051-1.489-.074-2.232-1.335.056-2.614-.374-3.608-1.283 2.835-1.292 5.568-2.537 8.546-3.402a31.905 31.905 0 0 0 1.591-.508c1.08-.371.903-.814 1.489-1.703.869-1.321 2.153-2.297 3.483-3.112-1.438 0-2.926.124-4.222.798-.432-1.521-4.46-1.473-5.801-1.554-2.261-.146-3.841-2.095-5.341-3.55 2.171-1.947 4.932-3.398 7.932-2.874-.182-.957-.358-1.919-.545-2.882.989.268 1.972.54 2.96.807.852.232 1.517-.731 2.17-1.268-.761-.388-1.528-.764-2.295-1.135.045-.588.085-1.179.131-1.767.119-1.642-.983-1.355-2.466-1.662.301-.624.597-1.246.892-1.871.972.619 1.864 1.355 2.807 2.008-.045-.565-.097-1.133-.148-1.7 1.505-.019 2.801-.709 3.591-2.001-.784-.06-1.562-.111-2.346-.173 1.006-.524 2.023-1.065 3.119-1.381 1.619-.469 1.659-.176 2.136-1.828-.063.937-.113 1.875-.176 2.811.835-.421 1.676-.835 2.523-1.234 1.244-.595 1.733-1.732 2.54-2.821-.17.98-.335 1.965-.5 2.948.972-.089 1.409-.46 1.824.483.364.82.938 1.524 1.665 2.056-.256-.835-.5-1.676-.75-2.513-.295-1.018 1.472-1.821 2.25-2.396-.347.909-.693 1.818-1.04 2.721 2.142.436 2.142 2.624 2.267 4.379.21-.986.398-1.979.625-2.965a175.536 175.536 0 0 1-2-2.696 93.22 93.22 0 0 1 4.25-1.838c-.233 1.295-.454 2.596-.744 3.883.477 1.199 1.778 2.906.682 3.768-1.125.883-.932 1.118-1.46 2.27-.438.955-1.364 1.564-2.074 2.29 1.04-.551 4.142-1.467 3.852-2.609-.244-.964.392-1.329.943-2.097.75-1.038.301-1.204-.301-2.229-.596-1.02-1.006-1.125-.506-2.274.364-.84.733-1.681 1.091-2.521.994-.029 1.989-.051 2.977-.093 1.386-.057 1.83.714 2.824 1.618-.7-1.514-1.444-3.014-2.023-4.584"/></g><g opacity=".1"><path d="M648.243 19.821c-.962-3.41-.834-8.838 2.137-11.329 1.411-1.218 3.206-.908 4.66.043 3.291 2.127 1.218 3.73 0 6.712-5.151 12.61-7.14 25.5-7.268 39.158 4.297-8.336 7.331-17.228 10.282-26.108 1.645-4.949 2.095-15.464 9.276-13.135-.278 7.769-.235 15.528-.299 23.287 2.265-3.537 4.531-7.107 6.861-10.612.022-4.745-.128-9.468-.193-14.193-.085-5.515 4.96-6.957 9.576-9.233 2.779 1.987 5.558 3.997 8.315 6.006-2.501 3.227-5.001 6.497-7.524 9.726 2.373 4.147 4.574 8.399 6.99 12.525.556-5.728.877-11.478 1.795-17.164.984-6.027 6.391-3.248 10.73-1.411 4.382 1.881 9.255 2.02 13.146 4.435 4.745 2.939 9.448 5.867 14.128 8.881-4.767 4.884-9.148 10.154-12.975 15.839-6.989-.577-13.979-1.325-20.989-1.539 7.139 3.109 14.534 5.663 21.759 8.614-.834 1.752-1.646 3.505-2.502 5.257l3.87.257c-.278-2.137-.578-4.275-.856-6.413 8.508.385 17.185 2.565 16.801 12.847-3.612-.951-7.225-1.946-10.858-2.907-1.005 5.172-4.189 9.426-7.524 13.326-2.393 2.811-.727 15.058-5.942 14.802-6.134-.321-3.611-7.097-2.479-10.986 1.581-5.451 4.061-7.631.919-12.59-4.81-7.609-16.971-10.174-23.748-16.993-2.927 3.206-5.215 7.427-9.468 8.144a12.903 12.903 0 0 0-7.268 3.922c-4.488 4.798-5.728 12.054-6.069 18.371-.32 6.497 1.303 13.102.598 19.493-.384 3.474-2.095 6.391-5.087 8.272-.577 3.698-1.09 7.427-1.603 11.157-4.018-1.881-8.058-3.761-12.055-5.685-6.347-3.046-6.112-2.758-10.451 2.404-3.463 4.093-4.639 3.11-9.982 2.415-7.887-1.005-8.122-2.682-11.799-9.511-1.837-3.388-10.152-20.551-15.582-12.985-1.453 2.03-1.817 4.862-1.752 7.288.063 3.292-8.828 2.779-12.098 3.227 2.501 4.98 2.565 10.601.897 15.839-1.475 4.638-.791 8.784-.406 13.669-9.105-1.892-18.125-4.115-27.209-6.145-7.546 6.06-17.591 3.035-26.355 4.51.193-3.036.406-6.06.619-9.084.235-3.548 7.268-2.671 10.495-2.971-.877-1.101-1.133-2.757-2.074-3.804 6.969 2.223 5.151-2.245 4.895-6.947-.193-3.57 3.442-6.295 5.216-9.073 3.057-4.756 5.386-9.95 7.053-15.336-5.237-.171-7.118 5.312-7.759 9.576-.641 4.275.684 5.119-3.526 7.438-4.169 2.287-8.315 4.574-12.569 6.69 1.731-5.941 3.484-11.906 5.857-17.634 2.693-6.487 3.057-6.733 9.576-6.348 7.309.406 12.953-18.104 10.858-24.003 2.65-.482 5.3-.941 7.951-1.368-.278-1.176-.556-2.363-.833-3.538 4.317.289 8.614.61 12.909 1.037a6271.904 6271.904 0 0 1-6.711 19.739c7.053-5.034 10.024-6.851 18.596-7.748-3.42-4.104-6.862-8.144-10.302-12.205a927.169 927.169 0 0 1 7.053-2.714c.363 8.507 6.754 11.211 14.471 9.939a717.594 717.594 0 0 0-6.306-7.972c-2.693-3.388 2.48-8.037 5.921-6.626 4.018 1.667 8.4 1.709 11.798-1.336 3.099-2.747 2.074-6.658 2.074-10.505-4.51 4.147-10.004 5.643-11.542-1.774 7.032-1.881 13.359-5.675 19.173-9.983-1.305 2.213-2.63 4.425-3.913 6.648-3.014 5.14-1.709 4.766 2.758 8.592 1.561-4.254 3.185-8.486 4.745-12.738 3.185 2.201 6.306 4.445 9.448 6.69-.941-3.89-1.903-7.759-2.865-11.628 1.411.608 3.271.139 4.702.716a953.736 953.736 0 0 1-.556-13.413c1.134 2.491 2.266 4.98 3.399 7.46 1.496 3.228 3.655 2.416 6.99 2.736M510.4 129.664c2.885-7.609 3.975-16.074 8.87-22.796.428 5.963.897 11.915 1.325 17.88 2.223-6.103 4.51-12.195 6.84-18.276 5.536 7.738 1.347 15.861-2.351 23.298-2.929 5.814-13.316 6.862-19.344 8.443-6.947 1.807-13.979 3.623-20.391 6.947-3.27 1.7-12.162 11.179-14.556 9.426 4.81-5.985 9.661-12.46 16.565-16.169 6.882-3.698 15.603-5.985 23.042-8.753m17.27 3.526c6.412.129 12.825-.961 19.237-.192 3.206.384 6.326 1.261 9.127 2.875a1796.219 1796.219 0 0 1-5.109 14.566c-2.886-1.678-5.75-3.377-8.614-5.044-3.078 2.148-5.579 5.001-7.588 8.122-4.061 6.305-6.369 13.53-10.345 19.878 8.977 12.012-2.886 22.946-8.4 33.322-2.393 4.521-1.539 12.247-4.937 15.71-1.818 1.839-4.425 2.661-6.84 3.292-6.348 1.668-5.386 1.561-5.045 8.315.962 19.429-6.048 38.388-16.672 54.418 6.369 2.565 8.849 8.369 8.015 14.93-.406 3.174-1.389 6.263-2.586 9.212a193.029 193.029 0 0 0-13.381-3.216c-7.374-1.497-13.209 6.84-16.479 12.738-2.886 5.237-9.533 16.886-7.353 22.582 3.185 8.25-.449 17.537.983 26.579.812 5.001 3.057 9.053 1.924 14.054-1.09 4.734-2.265 9.468-2.714 14.31-.621 6.914 7.993 11.542 10.58 17.933 1.281 3.142 1.389 6.519.256 9.725-1.561 4.382-6.99 4.083-11.136 5.108 2.565 7.268 4.831 14.771 5.258 22.508.321 6.049-.897 20.262-8.187 21.984-3.591.844-5.921.288-7.053 4.114-1.346 4.628-1.731 9.47-2.073 14.257-.62 8.507-1.305 17.526-7.075 24.303-1.325-3.655-1.924-9.383-5.622-10.506-3.848-1.175-6.797-4.05-8.571-7.587-3.719-7.342-3.292-18.393 2.992-24.293-4.425.962-5.515-2.607-6.519 3.474-.875 5.247-.962 10.591-1.838 15.839-.706 4.243-1.924 8.603-4.702 11.98-1.411 1.731-3.185 3.099-5.173 4.083-3.398 1.698-4.553-1.283-6.946-3.612-7.631 11.83-19.601 23.372-31.485 31.196-5.857 3.847-14.386 7.085-21.396 5.333-3.804-.941-7.267-2.843-10.836-4.35-3.783-1.613-2.137-2.661-.834-6.145-9.511-2.458-20.968-10.046-22.571-20.499-.384-2.393-.106-4.831.706-7.117 1.346-3.72 4.403-2.672 7.93-2.908 3.463-.213 2.415-4.723 2.693-7.812a526.715 526.715 0 0 1-6.904 3.644c3.633-4.574 7.268-9.149 10.901-13.733-8.122 2.287-13.658 3.366-19.921 8.977-1.047-6.017 2.821-12.686 2.714-19.279-.106-7.748-2.243-9.694 5.515-10.527-1.453-2.63-2.928-5.29-4.36-7.974 4.36.589 8.742 1.134 13.103 1.689-2.33-3.163-5.386-5.76-8.977-7.417-5.622-2.586-5.664-1.561-6.263-7.855 1.197.769 2.929.706 4.104 1.464-.278-5.226-.32-10.452-.299-15.689 0-2.607.021-5.226.063-7.844 2.095-2.137 3.356-4.862 3.848-7.791.962-5.546-.385-8.1 3.12-12.749 2.715-3.613-2.009-11.735-3.548-15.86 6.498-1.069 9.448-5.783 7.609-12.098 7.118 1.079 11.948-4.425 16.395-8.999.469 5.023 4.403 4.831 8.357 4.361 6.071-.717 8.849 2.714 14.065 4.745-5.878-5.066-14.15-8.005-17.485-15.561 8.658.107 17.229 1.646 25.757 3.12a34.15 34.15 0 0 0-14.428-7.694c5.066-5.237 11.35-9.201 18.169-11.756 0 2.693.043 5.386.043 8.08.918.213 2.757.15 3.654-.15a876.822 876.822 0 0 1-2.03-7.181c6.627.512 12.376 3.355 11.65 10.944 2.329-2.074 4.616-2.159 2.308-4.98-2.245-2.779-4.51-5.536-6.754-8.326 4.232.567 8.443 1.058 12.654 1.636-2.287-2.181-4.554-4.404-6.862-6.606 1.987-.727 14.834-4.2 14.577-5.535-.256-1.453-14.086.877-16.244 1.133 4.701-5.279 6.156-11.841 11.734-16.02-.449 2.811-.897 5.622-1.325 8.432 4.852.417 9.683 2.63 14.257 4.147.962-4.851 1.88-9.704 2.842-14.555.3 3.377.641 6.743.984 10.11.427 4.211 8.806 5.91 12.482 7.566-5.151-5.023-8.784-11.318-12.119-17.634 4.488 2.223 3.847-1.347 5.109-4.553 1.624-4.126 4.339-7.674 7.459-10.773 6.284-6.198 14-10.977 21.161-16.074-4.98-3.526-10.26-6.647-15.133-10.345 5.942 1.325 11.692 3.335 17.377 5.472-.107-4.841-2.458-10.419 3.12-10.601 6.754-.246 13.531-.706 20.135-2.266-3.27-.427-6.541-.79-9.789-1.186 4.338-3.665 4.189-8.282 2.992-13.38-1.347-5.557 2.48-11.852 1.261-18.158 2.052 1.047 4.104 2.095 6.178 3.099.213-4.445.427-8.914.619-13.381a917.872 917.872 0 0 0 9.405 3.88c3.676 1.507 7.225-4.349 9.917-6.914-2.351 1.197-4.681 2.458-7.011 3.655a509.053 509.053 0 0 0-13.829-2.907c3.527-6.893 7.396-13.616 11.329-20.285 1.411-2.436 2.864-4.82 4.317-7.224 2.437-3.954 2.437-3.933 7.054-3.057.021-5.216 4.638-9.876 6.903-14.343 3.399-6.583 5.6-13.786 4.574-21.246 2.48.139 4.959.257 7.417.353-2.436-7.021 4.895-9.929 8.849-14.033.727 6.199 2.608 12.163 4.724 17.998.063-4.906.171-9.811.256-14.727.877-.877 5.109-.652 6.434-.823-3.078-.482-6.156-.908-9.234-1.401l3.399-6.474"/><path d="M458.651 253.55c7.802-.428-.363 12.301-1.774 3.185l1.774-3.185zm-82.141 75.248c5.087-1.422 6.947.33 5.622 5.29-5.045 1.326-6.904-.427-5.622-5.29z"/></g><path d="M584.558 114.129c2.155-.159 4.309-.327 6.442-.518 3.306-.271 4.479 4.728 6.411 7.291 4.055 5.381 9.343 9.755 15.246 12.972a55.965 55.965 0 0 0 7.952 3.53c5.129 1.792 6.178 2.577 9.546 6.98a181.49 181.49 0 0 0 6.37 7.825c2.958 3.402 1.745 4.004.375 7.936 1.651 7.109 5.03 14.147 5.38 21.379.372 7.189 4.55 11.481 5.602 18.049 1.117 6.888-4.421 14.378-1.13 20.553 3.462 6.493 8.203 12.319 10.834 19.264-7.956.674-15.993 2.308-22.888 6.519.334-1.665.647-3.331.982-4.997-2.815.247-5.631.472-8.468.676l1.196 10.386c-4.852 3.37-9.723 6.74-14.789 9.802a679.194 679.194 0 0 0 4.971 4.737c-1.267 3.088-2.728 6.06-4.101 9.075-1.375 3.046-2.62 6.156-3.374 9.403a129.015 129.015 0 0 0 5.52 8.916c3.113 4.66-3.451 11.366-5.627 16.71-3.167 7.748-4.598 12.736-11.296 18.141-9.357 7.529-19.486 14.015-26.636 23.861-6.852 9.427-10.043 21.966-20.32 28.559a214.352 214.352 0 0 1-3.951-5.797c2.953 7.071 5.486 10.88 3.576 18.441-.819 3.236-1.658 6.483-2.455 9.719 1.65 1.604 3.32 3.219 4.948 4.844-6.967 2.355-7.672 2.166-7.511 10.103.113 6.476.887 12.916 1.767 19.324.373 2.57.726 5.139 1.078 7.72.727 5.33 2.153 4.386 6.959 5.827 6.409 1.947 7.139 3.138 10.386 8.844.828-.858 2.385-1.013 3.192-1.871 4.515 7.93 10.837 14.465 15.138 22.501-6.053 6.576-9.774 14.838-7.261 23.81-2.05-.439-4.1-.879-6.151-1.34-.691 3.215-3.378 8.635-.532 10.649-9.233 1.447-17.105 6.74-24.529 12.116-3.85 2.791-5.451 2.626-3.469 7.057 1.2 1.275.948 2.087-.758 2.435-3.661 2.096-3.049.643-1.919 5.246 1.171 4.678.125 9.505-1.116 14.034-1.449 5.372-.084 10.466-.167 15.982-.084 5.548-2.861 9.976-3.201 15.29-.36 5.506-.87 11.035-.528 16.57 5.492-8.206 7.691-18.179 13.503-26.184-3.153 16.294-9.702 31.726-12.835 48.03-.919-5.597-1.455-11.27-2.61-16.845-3.949-.314-5.212 3.958-5.903 7.034-.817 3.652-.904 8.155-3.111 11.321-5.422-.553-10.741-2.078-16.224-2.044-6.465.027-9.738 3.241-14.48 7.037-2.68 2.146-5.272 4.396-7.695 6.808a29.348 29.348 0 0 1 2.576 8.875c.532 4.607 1.37 5.948-3.664 6.481-3.668.378-7.336.714-11.005 1.134-6.803.798-10.818-.018-17.376-1.837 1.036-2.234 2.072-4.478 3.151-6.702 2.179-4.489.489-5.592-1.62-9.904a399.123 399.123 0 0 0-8.433-16.277c2.71-.011 5.377.02 8.087.009a1529.79 1529.79 0 0 0-4.89-6.017 587.071 587.071 0 0 1 7.302-3.818c-6.485-9.787-12.566-19.972-16.645-31.028-2.051-5.592-3.356-11.412-5.044-17.135a809.557 809.557 0 0 0-3.116-10.249c2.044-.969 4.046-2.002 6.09-2.96-2.986.066-5.974.121-8.961.176 5.386-8.066-1.878-10.149-2.632-17.037-.909-8.254-3.379-17.312.321-25.254 1.829 3.736 4.786 6.721 8.634 8.348 2.379-7.68 4.428-12.777 2.325-20.525-1.3-4.752-.089-6.123 2.196-10.571 2.582-5.014 3.433-5.497 7.796-8.386 14.767-9.782 6.346-28.48 2.728-41.331 5.906-1.113 10.22-5.259 13.036-10.382 2.795-5.111-8.054-12.725-10.762-17.195-3.051-5.002.755-18.14.601-24.444-.234-9.867-1.384-19.699-1.277-29.558.1-11.714 5.178-37.318 20.365-38.748 3.156-.302 6.295.4 9.328.995 6.577 1.284 6.254.753 6.975-5.63.392-3.319 2.395-8.822-.749-10.633-2.673-1.558-5.368-3.114-8.042-4.671 10.191-12.205 16.975-27.447 18.189-43.369.242-3.18.272-6.391.045-9.58-.297-4.587-2.096-6.414 2.912-7.598 7.589-1.792 9.141-2.929 10.71-10.489 1.464-7.058 5.514-13.168 9.607-18.966 2.122-3.018 5.884-6.512 5.525-10.5-.358-3.989-3.231-7.114-4.355-10.864 4.388-6.9 7.322-14.615 11.795-21.473 1.653-2.524 4.36-8.297 7.314-5.962a705.296 705.296 0 0 1 7.151 5.699c4.064-7.731 2.427-16.558 2.307-24.857 9.902.492 19.347 3.823 28.537 7.262.732-9.525 3.55-19.299.629-28.739M468.935 500.997c1.114 6.108 2.398 12.184 3.491 18.303-3.493-3.399-6.942-6.862-10.392-10.305-2.027 4.98-4.972 9.9-5.013 15.469-.063 5.398-2.821 9.101-5.468 13.956a78.653 78.653 0 0 0 13.684-8.486c4.041-3.089 8.248-2.253 12.892-3.98 11.185-4.186 6.78-16.597 8.855-25.385-6.016.058-12.033.189-18.049.428m18.944 60.475c4.176-6.536 7.326-13.633 10.925-20.487 1.524-2.94 3.133-5.827 4.935-8.609.197-4.162.37-8.334.567-12.496-9.532 11.659-16.662 26.24-16.427 41.592m90.962-4.958c5.051-1.526 9.907-3.563 14.655-5.844-3.219 5.828-9.809 11.573-9.117 18.825.221 1.92.89 3.656 2.007 5.241a108.673 108.673 0 0 0-4.371 5.875c-3.5 5.05-6.614 10.334-9.471 15.744-.458-7.381-1.427-14.695-2.546-21.998-.968-6.365 5.236-12.643 8.843-17.843" opacity=".1"/><g opacity=".1"><path d="M682.038 74.556c2.944-2.945 5.974-5.802 9.123-8.521 2.569 4.883 7.087 8.03 11.768 10.681 3.72 2.119 9.824 4.051 10.702 8.833 1.322 7.039-8.554 13.944-1.845 20.353-2.196 1.778-4.427 3.506-6.657 5.24 3.072 1.221 6.404 1.197 5.499 4.721-1.13 4.405-1.959 9.082-1.133 13.612 1.742 9.388 11.052 10.294 17.254 16.213 2.68 2.553 5.014 5.46 7.065 8.546 2.902 4.381 1.702 6.922-.456 11.541-3.143 6.722-7.825 13.684-6.523 21.463 5.298 8.273 10.642 16.527 15.36 25.134 2.149 3.919 4.163 7.911 5.983 11.997 1.064 2.408 2.925 4.068.729 5.854-1.258 1.019-2.229 2.334-2.908 3.791-2.483 5.229-1.667 12.767 2.852 16.709-1.194 3.024-4.732 6.731-1.95 9.977 3.371 2.825 7.841 3.787 11.391 6.318-3.316 3.363-2.727 7.842-.933 11.805a363.78 363.78 0 0 1 6.53 3.572c3.031 1.676 2.819 3.726 3.608 6.989.915 3.674-3.866 9.397-5.742 12.662-1.751 3.06-.625 2.923 1.884 4.898 2.192 1.711 4.51 3.241 6.87 4.705 7.605 4.756 15.854 9.157 20.86 16.901.566 9.497-3.014 18.373-7.426 26.59-9.311 17.346-17.281 35.115-28.962 51.06-5.988 8.187-12.22 16.237-17.433 24.946-4.422.032-9.827-1.129-13.616 1.181-4.638 2.813-9.914 4.245-15.075 5.76.498.583.527 1.547 1.027 2.146-5.759 2.42-11.696 4.37-17.552 6.564-3.344 1.246-6.667 2.57-9.878 4.102-1.078 1.737-2.12 3.517-3.181 5.269-1.249-.812-2.483-1.649-3.715-2.447a335.485 335.485 0 0 1-7.129 3.611c-5.592 2.757-11.208 5.415-16.694 8.334-.624-2.576-1.235-5.167-1.861-7.751a875.067 875.067 0 0 1 6.33 3.985c-1.12-2.918-3.152-5.366-6.083-6.575-3.285-1.352-.491-7.961.246-11.236-3.969 2.612-3.685 3.244-3.049 8.117.241 1.866.498 3.73.802 5.592-1.845.317-3.673.634-5.516.967-4.869.869-4.394-1.591-6.215-5.88 1.303.318 2.622.642 3.925.967.04-2.247.109-4.511.149-6.766-4.284 3.347-7.743 7.664-13.102 7.668-3.505-.003-8.416.745-10.223-3.178a123.7 123.7 0 0 1 7.098-3.227c.119 1.501.223 3.005.342 4.506 3.621-.497 7.21-1.795 9.632-4.666 2.221-2.646-1.487-3.427-3.552-4.914-3.142-2.298-3.357-5.195-4.561-8.791.272 5.985-.944 5.388-6.426 7.762.406-1.762.81-3.53 1.217-5.284-1.512.775-3.04 1.55-4.553 2.309 2.784-8.322-1.112-17.563 3.159-25.582 1.912-9.281 1.588-19.459-2.603-28.101-1.785-3.644.208-8.375-1.118-12.734-1.28-4.152-3.367-8.076-4.022-12.409-.615-4.219 2.577-7.386 4.205-11.02.836-1.843 1.271-3.824.986-5.843 1.837-.215 3.66-.407 5.481-.621-3.293-2.037-6.952-3.383-10.748-4.117.693-2.657 1.451-5.272 2.161-7.914 1.459 4.643 2.217 5.962 6.068 8.741.091-1.409.196-2.835.286-4.245 2.973.948 5.916 1.914 8.874 2.864-1.523-2.504-3.031-5.026-4.555-7.538 2.797 1.679 5.595 3.358 8.406 5.02-.951-2.37-1.904-4.756-2.855-7.126 2.537-3.177 4.675-6.665 6.635-10.232 1.893-3.437 5.26-4.398 8.197-6.851 2.995-2.512 4.814-6.489 6.844-9.758 4.516-7.291 8.913-14.712 12.177-22.675 2.427-5.926 7.277-10.969 14.137-7.384-.596-3.98-.821-8.191-3.076-11.674.182-4.579.318-9.162.375-13.74-3.525-1.621-7.021-3.276-10.561-4.895-1.998-1.431-4.164-2.615-6.382-3.67-2.964-1.416-2.658-2.671-4.097-5.501-1.812-3.604-4.147-6.915-6.02-10.49-2.604-4.935-1.453-8.882-.265-14.14.802-3.452 3.079-8.33.965-11.403-2.24-3.296-5.419-6.65-5.734-10.824-.249-3.532 2.935-6.2.072-9.306-3.256-3.535-3.035-5.47-3.131-10.415-.074-3.881 1.585-9.076-.817-12.064-2.643-3.28-4.856-6.812-7.468-10.095-4.71-5.959-13.221-6.811-19.154-11.49-6.332-4.997-11.315-11.457-16.448-17.632 2.357.055 4.716.141 7.072.195-1.644-3.25-.648-10.931 4.418-10.305 5.885.733 10.436 12.352 12.566 17.013 2.094 4.601 2.236 4.816 7.204 5.964 4.873 1.133 7.486 2.063 11.27-1.493a73.426 73.426 0 0 0 3.102-3.113c2.359-2.485 3.098-.628 5.743.9 3.557 2.031 7.158 4.02 10.648 6.182.68-4.985 3.082-9.468 6.385-13.203 2.988-3.377 2.814-3.604 2.434-8.201a91.025 91.025 0 0 1-.226-10.312c.257-7.874 2.564-26.908 15.113-23.478"/><path d="M665.271 263.894c4.188-1.813 5.718-.594 4.591 3.67-4.25 1.802-5.765.567-4.591-3.67zm-74.263 179.581c3.752 2.32 7.49 4.671 11.033 7.304-3.013.316-6.038.673-9.052.983a123.076 123.076 0 0 1 7.949 8.483c-5.584-2.05-11-4.533-16.561-6.678 2.427-2.592 5.761-3.963 9.296-3.993a944.673 944.673 0 0 1-2.665-6.099"/></g></svg>