<svg xmlns="http://www.w3.org/2000/svg" width="494.348" height="133.79" viewBox="0 0 494.348 133.79"><path d="M164.606 49.024h9.524c10.948 0 17.461 5.912 17.461 17.734 0 11.878-6.513 18.063-17.132 18.063h-9.853V49.024zm9.086 30.653c7.225 0 11.385-4.105 11.385-12.918 0-8.758-4.16-12.589-11.385-12.589h-2.737v25.507h2.737zm20.619-30.653h21.511v5.364H200.66v9.141h12.863v5.364H200.66v10.564h15.709v5.364h-22.058V49.024zm26.047 0h6.35v16.257h.164l12.753-16.257h7.006L235.63 62.982l9.552 21.84h-7.006l-6.323-16.859-5.145 6.404v10.455h-6.35V49.024zm49.122 26.11h-11.987l-2.791 9.688h-6.513l11.713-35.797h7.444l11.659 35.797h-6.733l-2.792-9.688zm-1.424-4.982l-1.259-4.379c-1.095-3.777-2.19-7.882-3.23-11.823h-.219c-.985 3.995-2.025 8.046-3.175 11.823l-1.259 4.379h9.142zm13.47-21.128h12.042c7.827 0 13.574 2.737 13.574 11.057 0 7.937-5.911 11.604-13.574 11.604h-5.693v13.137h-6.349V49.024zm11.495 17.571c5.364 0 7.882-2.134 7.882-6.513 0-4.488-2.682-5.966-7.882-5.966h-5.145v12.48h5.145zm16.957-17.571h12.042c7.827 0 13.574 2.737 13.574 11.057 0 7.937-5.911 11.604-13.574 11.604h-5.693v13.137h-6.349V49.024zm11.495 17.571c5.364 0 7.882-2.134 7.882-6.513 0-4.488-2.682-5.966-7.882-5.966h-5.145v12.48h5.145zm16.957-17.571h21.512v5.364H344.78v9.141h12.863v5.364H344.78v10.564h15.709v5.364H338.43V49.024zm44.431 35.798l-7.717-14.012h-5.75v14.012h-6.349V49.024h12.373c7.444 0 13.191 2.627 13.191 10.619 0 5.474-2.846 8.758-7.17 10.236l8.538 14.943h-7.116zm-13.468-19.048h5.367c4.926 0 7.554-2.08 7.554-6.13 0-4.105-2.627-5.528-7.554-5.528h-5.367v11.658zm32.072-16.75h6.349v35.797h-6.349V49.024zm9.867 0h6.732l5.036 18.008c1.149 4.05 1.916 7.553 3.12 11.659h.219c1.204-4.105 2.025-7.609 3.175-11.659l4.981-18.008h6.459l-11.057 35.797h-7.554l-11.111-35.797zm44.588 26.11h-11.987l-2.791 9.688h-6.513l11.713-35.797h7.444l11.659 35.797h-6.733l-2.792-9.688zm-1.423-4.982l-1.259-4.379c-1.095-3.777-2.19-7.882-3.23-11.823h-.219c-.985 3.995-2.025 8.046-3.175 11.823l-1.259 4.379h9.142zm32.736 14.67l-7.717-14.012h-5.419v14.012h-6.349V49.024h12.042c7.444 0 13.191 2.627 13.191 10.619 0 5.474-2.846 8.758-7.17 10.236l8.538 14.943h-7.116zm-13.137-19.048h5.036c4.926 0 7.554-2.08 7.554-6.13 0-4.105-2.627-5.528-7.554-5.528h-5.036v11.658z" fill="#FFF"/><path fill="#C09F61" d="M0 0h133.79v133.79H0z"/><path d="M32.029 49.025h9.524c10.947 0 17.461 5.911 17.461 17.735 0 11.878-6.514 18.063-17.133 18.063h-9.853V49.025zm9.086 30.652c7.225 0 11.385-4.105 11.385-12.918 0-8.758-4.16-12.59-11.385-12.59h-2.737v25.507h2.737zm22.384-30.652h6.35v16.257h.164l12.754-16.257h7.006L78.771 62.982l12.863 21.84h-7.006l-9.634-16.859-5.145 6.404v10.455h-6.35V49.025zm31.927-.057h6.335v6.335h-6.335z" fill="#1B1B1C"/></svg>