<svg xmlns="http://www.w3.org/2000/svg" width="800" height="800" viewBox="0 0 800 800"><g fill="#F89B39"><path d="M539.829 30.588c7.099-13.875 23.704-14.213 37.068-17.106 1.822 9.366-4.567 8.657-12.963 11.21a228.709 228.709 0 0 1-24.105 5.896m-79.136-1.761c20.401 3.565 41.051-.262 61.575-.563-19.537 7.23-40.371 10.371-61.112 11.103-.124-3.525-.308-7.021-.463-10.54m91.05 16.737c26.883-.841 53.858-5 79.168-14.406 8.241-3.078 31.574-9.328 36.235 1.173 4.537 10.147 5.37 22.346 13.673 30.478 6.172 7.709 21.389 4.384 24.073 12.438 3.056 9.083 11.637 13.489 20.403 15.618 6.419 1.574 2.19 9.668 1.203 15.201-1.141 6.359-1.82 13.01.371 19.252 4.537 11.852 4.815 25.061 1.604 37.3-3.025 11.713-11.234 19.767-15.34 30.602-4.628 12.291-5.401 25.556-5.833 38.557-.216 6.574-.371 13.141-.834 19.692-.616 8.025-8.301 4.908-15.185 5.209-11.327.533-23.024-4.676-34.26-1.882-18.364 4.583 1.359 19.443-5.062 24.906-7.623 6.474-10.555 12.454-3.394 21.104 5.618 6.775 15.123 8.402 23.302 9.9 4.321.787 8.704 1.527 12.87 2.886 4.97 1.59 7.748-4.692 11.019-8.519 6.574 11.033 19.044 21.544 13.827 34.707-2.283 5.733-5.463 11.041-8.025 16.643 3.148 3.766 6.296 7.554 9.414 11.351-8.457 3.718-15.586 9.652-22.47 15.709-5.586 4.916-7.778 10.278-12.468 15.409-4.012 4.314-12.192 1.643-17.223 6.335-5 4.668-7.87 11.065-12.561 16.003 5.463 3.271 28.92 14.869 25.061 21.003-3.951 6.327-6.852 15.872-14.598 18.565-4.382 1.504-9.414.278-13.982 1.397-5.03 1.226-9.783 3.464-14.382 5.709-9.259 4.452-19.074 9.128-29.568 6.266.493 4.058.988 8.126 1.451 12.184-16.297-9.453-34.785-14.36-51.019-23.905 3.241 6.049 6.574 12.068 9.845 18.078-13.611-4.336-27.16.441-39.721 5.679 2.283 2.987 4.567 5.988 6.914 8.996 3.579 4.646-3.118 10.719-5.896 15.379 4.845 1.103 15.896 1.103 15 6.544-1.697 10.37-1.697 9.668 7.068 14.583 5.246 2.933 9.012 7.353 6.049 13.511-3.271 6.775 6.234 12.245 10.957 17.947 12.19 14.807 9.815 33.874 9.475 52-5.34 8.71-11.359 17.021-17.593 25.069-7.377 9.444-7.408 16.944-8.271 28.795 5.894-2.615 11.82-5.185 17.746-7.701-1.419 10.194-1.482 11.575-10.093 17.802-8.333 6.019-16.049 12.832-23.549 19.807-4.569 4.237-4.599 3.45-10.371 3.072-3.333-.232-7.005-2.114-7.808 2.329-1.266 6.767 5.369 12.384 5.524 19.02 7.84-1.459 15.679-2.862 23.519-4.181-.958 4.313-1.945 8.627-2.933 12.931-1.079 4.892 7.162 5.856 11.359 7.516-.401 9.028.956 20.618-11.451 20.711 1.266 3.503 2.592 6.991 3.919 10.487-4.104.408-8.178.732-12.253 1.071 4.569 4.376 9.167 8.736 13.674 13.133-10.803-.147-21.544-.942-32.315-2.007-12.223-1.196-18.704-.678-30.093 3.496-.556-11.312-2.81-15.749-9.044-25.363-4.259-6.604 2.993-9.151 7.901-14.074 4.569-4.569 8.919-9.312 13.024-14.328-13.982-4.946-2.84-13.696 3.056-20.232-7.593-3.827-2.963-7.361-.062-12.963 4.444-8.535 7.468-17.716 10.648-26.76-12.438-2.385-24.661-6.026-36.204-11.349-6.389-2.971-11.667-4.708-14.384-11.375-2.5-6.111-5.278-12.099-8.271-17.971-7.347 4.399-13.982 10.449-22.593 10.741-9.167.332-18.303.88-27.47 1.188.648-4.143 1.266-8.295 1.884-12.446-14.29.95-24.229-11.536-26.112-24.676-.71-4.984 2.746-13.897-.618-17.824-3.424-3.959-9.537-3.418-13.426-6.613-1.111 8.225.31 18.11-8.889 21.458-10.401 3.75-21.296-2.886-31.882-1.218a158.968 158.968 0 0 1-.216-3.921c13.025 3.535 17.994-18.418 4.475-20.147-8.827-.632-14.598 5.856-19.322 12.377-2.005 2.802-3.857 5.672-6.111 8.287-7.253-1.173-14.599-1.759-21.914-1.651 1.111-5.509 2.16-11.018 3.271-16.528-6.357 1.606-12.591 3.565-18.766 5.725-6.234 2.162-10.153 1.606-8.394 8.744 1.481 5.94 6.697 15.385 2.685 21.25-2.5 3.635-6.852 5.101-9.537 1.598-4.044-5.248-6.884-6.327-13.211-8.597-5.956-2.107-12.16-3.989-18.549-3.873a28.462 28.462 0 0 0-9.598 1.798c-3.364-2.015-6.327-4.622-9.29-7.2-3.889-3.386-7.87-6.937-12.655-9.02-8.025-3.464-9.135.262-12.84 7.029-4.414 8.032-4.722 10.302-14.505 8.781-6.421-.98-12.531-3.388-18.303-6.25-3.149-4.467-5.618-12.138-11.605-10.471-4.66 1.32-10.248 4.259-15.216 2.393-4.815-1.822-8.271-8.666-11.605-12.315-4.938-5.348-10.463-10.186-16.852-13.744 10.216-6.057 19.413-14.189 30.926-17.816 9.815 3.557 12.871 15.069 19.29 22.261 6.514-7.422 16.019-6.566 24.94-6.767 3.827-.07 7.715-.441 11.296-1.868 5.308 2.114 10.34 4.769 15.031 7.979 8.118 5.555 15.031 12.8 19.97 21.319 4.259 7.361 25.524 1.574 34.073.763-4.229-7.214-13.734-17.647-10.864-25.802 2.253-6.496-5.648-19.823-12.716-19.676-5.926.139-9.414-2.786-7.315-8.857 8.303-4.877 17.408 1.874 25.989 1.858 8.239 0 15.524-6.457 21.512-11.435 5.278-4.414 4.753-5.224 11.574-3.603 4.909 1.141 9.97 1.049 14.847.022 9.382-1.967 18.704-10.932 27.778-9.35 4.845.841 9.66 1.697 14.505 2.5 10.526 1.775 9.815.887 14.785-8.396-5.155-1.489-10.31-2.862-15.494-4.229-6.574-1.735-7.315.278-12.468 4.129-4.569 3.432-6.729-2.655-11.914 1.026-4.105 2.886-7.871 6.351-12.378 8.533-9.35 4.475-21.419-1.628-30.524-4.644-5.155-1.705-8.766-1.212-14.074-.826-4.753.348-6.884-7.083-10.031-10.64-6.729-7.492-15.524-12.754-24.537-16.991-7.5-3.511-8.982-4.652-11.297-12.994-1.85-6.512-2.901-13.194-3.734-19.899-.555-4.569-3.889-10.325 2.5-10.811 5.371-.409 9.074 3.587 11.297 8.001 12.468 6.174 24.352 13.412 37.221 18.751-12.345-9.429-25.832-17.076-38.765-25.665 15.278-18.148 32.777-34.421 46.327-54.004 13.859-20.117 26.667-43.898 34.477-67.077 1.513-4.513 2.377-5.942 5.092-9.529 4.63-6.065 6.359-3.889 13.457-1.212 13.025 4.885 25.618 10.942 38.026 17.253 10.894 5.518 21.667 11.244 32.623 16.575 6.297 3.047 12.007 6.496 19.074 6.805 6.421.27 12.748-1.01 17.44 3.658 13.919 13.881 36.419 20.501 46.45-.958 8.549-18.201 26.667-22.361 39.383-36.937 5.401-6.149 11.45-16.335 10.741-24.761-.433-5.185-8.704-24.236-1.266-26.482 7.871-2.391 32.191 2.347 27.285-12.708-9.537 7.478-21.482 10.194-33.117 12.601-5.864 1.204-11.699 2.385-17.377 4.175-6.112-3.797-12.84-6.991-17.655-12.47-7.162-8.11-4.66-24.467-1.697-33.958a57.298 57.298 0 0 1 7.746-15.725c3.704-5.224 8.919-4.322 14.938-5.139-8.024-2.609-67.686 3.657-65.432-11.544.926-6.135 11.419-8.873 9.321-16.081 2.007-13.472-1.944-27.192-10.185-37.917 8.858-.686 8.611-11.327 10.525-19.32 2.345-9.708 3.118-18.604 10.648-25.711 13.982-13.102 28.765-20.193 45.618-28.696 16.329-8.225 32.841-16.991 51.02-20.194 4.599-.793 9.197-1.234 13.857-1.242 6.667-.014 4.785 1.057 4.66 6.629-.062 3.41-.123 6.836-.153 10.238 7.067.209 14.135.479 21.172.88-6.759-5.047-13.519-10.132-20.093-15.434m-154.97 1.389c19.938-3.14 38.364-12.384 58.457-14.761-22.16 16.838-50.711 20.194-75.402 31.814 3.457-7.354 7.438-16.743 16.945-17.053m-66.019 54.337c13.518-10.733 24.753-27.022 43.209-29.236-6.574 5.709-14.537 10.177-20.246 16.683-5.957 6.836-13.396 12.77-22.963 12.553m-21.821 63.835c-7.345-22.198 11.82-41.442 23.179-58.209 3.519 5.67 7.069 11.349 10.586 17.045-.616 6.651-3.055 12.955-6.852 18.418-6.82 9.729-17.068 16.474-26.913 22.746"/><path d="M310.6 170.697a673.511 673.511 0 0 0 11.358-2.577c-2.53 10.532 9.229 29.105 19.815 18.998 5.155-4.916 16.605-16.544 21.389-8.565 4.662 7.808 9.815 15.423 13.241 23.905 1.204 14.398-7.037 30.478 14.662 27.446 9.938-1.405 11.975 5.278 16.172 12.939-7.13 6.59-13.642 13.827-20.586 20.633-5.556 5.409-13.179-2.601-21.389-2.138-10.618.594-4.507 15.347-1.606 21.605 4.877 10.679 7.808 14.09 2.037 24.684-3.921 7.277 6.975 7.762 2.315 16.003-9.815 17.253-26.112 6.389-39.043.572-8.458-3.789-16.914-7.732-24.662-12.84-5.926-3.929-12.623-3.936-19.598-5.039 5.741-23.148 6.82-47.092 10.958-70.517 3.886-22.07 12.56-42.556 14.937-65.109m125 112.748c6.049-3.511 11.945-7.231 18.025-10.695a169.495 169.495 0 0 1 9.167-4.962 165.871 165.871 0 0 0 14.6 5.973c6.574 2.299 20.091 2.661 21.295 9.799 1.204 6.959.71 14.221-1.605 20.91-5.648 16.297-22.099 19.908-35.463 28.489-7.963 5.076-11.389 6.643-12.84 15.632-.833 5.433-2.963 11.081-7.192 14.799-10.987 9.614-24.074-2.538-33.209-8.988-4.753-3.38-12.778-11.552-18.642-9.646-7.685 2.524-8.487 4.237-12.901-2.947-1.236-1.967-2.438-3.959-3.673-5.956 4.227-2.871 8.363-5.842 12.5-8.867 6.852-5.038 13.641-10.177 20.524-15.216 12.594-9.221 21.328-15.016 29.414-28.325m-278.119 214.16c-2.84-6.558 2.037-10.393 7.47-12.963 3.178-1.496 6.574-2.655 9.567-4.537 3.859-2.43 10.679 4.235 14.414 6.636 10.927 6.952 21.915 13.187 31.853 21.351 8.766 7.206 19.29 12.268 30.648 13.642-4.444 3.309-8.827 6.713-13.209 10.069-6.296 4.752-8.118 1.751-14.938-1.127-10.495-4.422-20.926-8.873-31.235-13.642-5.864-4.529-6.018-12.531-8.611-18.867-4.199-10.045-17.625-2.583-25.959-.562m-5.895 3.726c7.993 5.262 16.296 10.965 26.172 11.359 4.259 8.38 12.253 13.549 20.494 17.462-.926 16.852-20.031 15.27-31.945 12.484-3.981-.942-3.796-3.611-5.216-7.238-2.715-6.836-4.259-7.261-11.172-9.992-6.049-2.393-24.074 10.038-25.309-2.192-1.542-14.598 20.278-16.226 29.97-13.257-.988-2.877-1.976-5.739-2.994-8.626m-35.834 48.858c15.648 3.334 38.179-11.673 48.487 6.768-10.03 3.796-18.487 4.69-29.135 6.188-8.549 1.204-13.396-7.075-19.352-12.956m60.711 3.257c4.259-1.86 8.456-3.72 12.716-5.586 6.481-2.794 12.253.038 18.98 1.465 9.63 2.045 12.315 16.12 12.501 25.202-16.851-1.721-33.889-6.721-44.197-21.081M69.579 607.42c8.798-1.073 17.037-5.038 25.926-5.216 10.34-.231 19.538 7.678 28.735 11.528 9.63 4.028 20.155 6.876 30.618 5.695 12.377-1.405 17.007-5.864 21.266-16.752 9.537 6.451 27.13 25.471 36.79 8.921 3.303 2.916 6.667 5.779 9.97 8.68-7.222 8.503-15.433 16.041-23.766 23.472-3.982 3.605-4.847 3.35-9.938 3.998-6.266.817-7.81 3.04-13.211 6.111-8.456 4.831-18.61 4.885-27.931 2.848-5.864-1.289-4.877-4.461-6.051-9.839-1.049-4.869-10.771-6.218-15.215-8.241-4.753-2.16-9.352-4.583-13.859-7.198-4.229 1.296-8.519 2.592-12.716 3.881-5.34 1.628-.308 10.547-8.086 12.192-5.495 1.157-11.729-1.451-16.512-3.819-8.737-4.284-5.557-27.118-6.02-36.261"/></g></svg>