<svg xmlns="http://www.w3.org/2000/svg" width="800" height="800" viewBox="0 0 800 800"><g opacity=".1"><path d="M509.948 38.718c-1.112-3.941-.964-10.215 2.47-13.094 1.631-1.408 3.705-1.05 5.386.049 3.804 2.459 1.408 4.311 0 7.758-5.954 14.575-8.252 29.473-8.4 45.259 4.966-9.635 8.474-19.912 11.884-30.177 1.901-5.72 2.421-17.874 10.721-15.181-.321 8.979-.272 17.948-.345 26.916 2.618-4.088 5.237-8.214 7.93-12.266.025-5.485-.148-10.944-.223-16.404-.099-6.374 5.732-8.041 11.068-10.672 3.212 2.297 6.424 4.619 9.611 6.942-2.89 3.73-5.781 7.51-8.696 11.241 2.743 4.793 5.287 9.708 8.079 14.477.643-6.62 1.013-13.266 2.074-19.839 1.137-6.966 7.387-3.754 12.402-1.63 5.065 2.174 10.697 2.335 15.194 5.127 5.485 3.398 10.92 6.781 16.33 10.265-5.51 5.645-10.573 11.736-14.996 18.307-8.078-.667-16.157-1.532-24.26-1.778 8.251 3.594 16.799 6.546 25.15 9.956-.964 2.025-1.902 4.051-2.892 6.077l4.473.297c-.321-2.47-.668-4.941-.989-7.412 9.833.445 19.863 2.965 19.419 14.849-4.175-1.099-8.351-2.249-12.55-3.36-1.161 5.978-4.842 10.895-8.696 15.403-2.766 3.25-.84 17.405-6.868 17.109-7.09-.371-4.174-8.203-2.865-12.698 1.828-6.3 4.694-8.82 1.063-14.551-5.559-8.795-19.616-11.76-27.448-19.641-3.384 3.706-6.027 8.585-10.944 9.413a14.915 14.915 0 0 0-8.4 4.533c-5.187 5.545-6.62 13.933-7.015 21.234-.37 7.51 1.506 15.143.691 22.53-.444 4.015-2.421 7.387-5.879 9.561-.667 4.274-1.26 8.585-1.853 12.896-4.645-2.174-9.313-4.347-13.934-6.571-7.336-3.52-7.065-3.188-12.08 2.779-4.002 4.731-5.362 3.595-11.537 2.792-9.116-1.161-9.388-3.1-13.638-10.993-2.124-3.916-11.734-23.753-18.01-15.008-1.68 2.346-2.1 5.62-2.025 8.424.073 3.805-10.204 3.212-13.983 3.73 2.89 5.757 2.965 12.253 1.037 18.307-1.705 5.361-.914 10.153-.469 15.799-10.524-2.187-20.949-4.756-31.449-7.102-8.721 7.004-20.332 3.508-30.461 5.213.223-3.509.469-7.004.716-10.5.272-4.101 8.4-3.088 12.13-3.434-1.013-1.272-1.309-3.186-2.397-4.397 8.055 2.569 5.954-2.594 5.658-8.03-.223-4.126 3.978-7.276 6.028-10.487 3.533-5.497 6.226-11.5 8.152-17.726-6.053-.197-8.227 6.14-8.968 11.068-.741 4.941.791 5.917-4.075 8.597-4.818 2.644-9.611 5.287-14.527 7.732 2.001-6.867 4.027-13.761 6.77-20.381 3.113-7.498 3.533-7.782 11.068-7.338 8.448.469 14.971-20.925 12.55-27.743a459.463 459.463 0 0 1 9.189-1.581l-.963-4.089c4.99.334 9.956.705 14.921 1.199a7369.965 7369.965 0 0 1-7.756 22.815c8.152-5.819 11.586-7.918 21.493-8.955-3.953-4.743-7.931-9.413-11.908-14.107 2.717-1.063 5.435-2.1 8.152-3.137.42 9.832 7.807 12.958 16.725 11.488a843.288 843.288 0 0 0-7.288-9.215c-3.113-3.916 2.866-9.289 6.843-7.659 4.645 1.926 9.709 1.976 13.637-1.544 3.582-3.175 2.397-7.696 2.397-12.142-5.213 4.793-11.562 6.522-13.341-2.05 8.128-2.174 15.44-6.56 22.161-11.538-1.508 2.558-3.04 5.114-4.522 7.684-3.484 5.941-1.976 5.509 3.188 9.931 1.804-4.917 3.681-9.808 5.485-14.723 3.681 2.544 7.288 5.138 10.92 7.732-1.088-4.497-2.2-8.968-3.311-13.44 1.63.703 3.781.161 5.435.827-.247-5.163-.469-10.339-.643-15.503 1.31 2.879 2.62 5.757 3.929 8.623 1.725 3.725 4.221 2.786 8.075 3.157M350.626 165.676c3.334-8.795 4.594-18.579 10.252-26.348.495 6.892 1.037 13.772 1.532 20.666a1357.763 1357.763 0 0 1 7.906-21.124c6.399 8.944 1.557 18.332-2.717 26.928-3.385 6.72-15.391 7.931-22.358 9.759-8.03 2.088-16.158 4.188-23.569 8.03-3.78 1.964-14.057 12.921-16.825 10.895 5.559-6.918 11.167-14.402 19.147-18.689 7.954-4.274 18.034-6.918 26.632-10.117m19.961 4.076c7.411.149 14.823-1.111 22.235-.221 3.706.444 7.312 1.457 10.549 3.323a2113.264 2113.264 0 0 1-5.905 16.836c-3.336-1.939-6.646-3.903-9.956-5.83-3.558 2.483-6.448 5.781-8.771 9.388-4.694 7.287-7.362 15.638-11.957 22.976 10.376 13.883-3.336 26.521-9.709 38.515-2.766 5.225-1.778 14.155-5.706 18.158-2.101 2.125-5.114 3.076-7.906 3.805-7.338 1.928-6.226 1.804-5.831 9.611 1.112 22.457-6.991 44.37-19.269 62.898 7.362 2.965 10.228 9.673 9.264 17.257-.469 3.668-1.605 7.239-2.989 10.648a223.883 223.883 0 0 0-15.466-3.718c-8.523-1.73-15.267 7.906-19.047 14.723-3.336 6.053-11.018 19.517-8.499 26.101 3.681 9.536-.519 20.27 1.136 30.721.939 5.781 3.533 10.463 2.224 16.244-1.26 5.472-2.618 10.944-3.137 16.54-.717 7.992 9.239 13.341 12.229 20.728 1.481 3.632 1.605 7.535.296 11.24-1.804 5.065-8.079 4.719-12.872 5.905 2.965 8.4 5.583 17.072 6.078 26.015.371 6.991-1.037 23.419-9.463 25.409-4.15.975-6.843.333-8.152 4.755-1.556 5.349-2.001 10.945-2.396 16.479-.717 9.832-1.508 20.257-8.178 28.09-1.532-4.225-2.224-10.845-6.498-12.143-4.447-1.358-7.856-4.681-9.907-8.769-4.298-8.486-3.805-21.259 3.458-28.078-5.114 1.112-6.374-3.013-7.535 4.015-1.012 6.065-1.112 12.242-2.124 18.307-.816 4.904-2.224 9.943-5.435 13.847-1.63 2.001-3.681 3.582-5.979 4.719-3.927 1.963-5.262-1.482-8.028-4.175-8.82 13.674-22.656 27.014-36.391 36.057-6.77 4.446-16.627 8.189-24.73 6.164-4.397-1.088-8.399-3.286-12.525-5.028-4.373-1.864-2.47-3.076-.964-7.102-10.993-2.841-24.235-11.612-26.088-23.693-.444-2.766-.123-5.583.816-8.226 1.556-4.299 5.089-3.089 9.165-3.361 4.002-.247 2.792-5.459 3.113-9.029a623.826 623.826 0 0 1-7.98 4.212c4.199-5.287 8.4-10.575 12.6-15.873-9.388 2.644-15.786 3.891-23.025 10.376-1.211-6.954 3.261-14.663 3.137-22.284-.123-8.955-2.593-11.204 6.374-12.167-1.68-3.04-3.384-6.115-5.04-9.216 5.04.681 10.104 1.31 15.145 1.952-2.693-3.656-6.226-6.657-10.376-8.572-6.498-2.989-6.547-1.804-7.239-9.079 1.384.889 3.385.816 4.743 1.692-.321-6.04-.37-12.081-.345-18.134 0-3.013.024-6.04.073-9.067 2.421-2.47 3.879-5.62 4.447-9.005 1.112-6.41-.445-9.363 3.606-14.736 3.138-4.175-2.322-13.563-4.101-18.331 7.511-1.236 10.92-6.684 8.795-13.983 8.227 1.247 13.81-5.114 18.949-10.401.543 5.806 5.089 5.583 9.659 5.041 7.017-.829 10.228 3.137 16.256 5.485-6.794-5.855-16.355-9.253-20.209-17.986 10.007.124 19.913 1.902 29.771 3.606a39.49 39.49 0 0 0-16.676-8.893c5.855-6.053 13.118-10.635 21-13.587 0 3.113.049 6.226.049 9.339 1.061.247 3.186.173 4.224-.173a1030.88 1030.88 0 0 1-2.347-8.3c7.659.592 14.305 3.878 13.465 12.649 2.691-2.397 5.335-2.496 2.667-5.757-2.594-3.212-5.213-6.399-7.807-9.623 4.891.655 9.759 1.223 14.626 1.891-2.644-2.521-5.263-5.09-7.931-7.635 2.297-.84 17.145-4.855 16.848-6.398-.296-1.68-16.281 1.013-18.775 1.309 5.434-6.102 7.115-13.686 13.562-18.517-.519 3.25-1.037 6.498-1.532 9.746 5.609.482 11.192 3.04 16.479 4.793 1.112-5.607 2.173-11.216 3.285-16.823.347 3.903.741 7.794 1.137 11.685.493 4.867 10.179 6.83 14.427 8.745-5.954-5.806-10.153-13.082-14.007-20.381 5.187 2.569 4.446-1.557 5.905-5.262 1.877-4.769 5.015-8.869 8.622-12.452 7.263-7.164 16.182-12.687 24.458-18.579-5.757-4.075-11.858-7.683-17.491-11.957 6.868 1.532 13.514 3.854 20.085 6.324-.124-5.596-2.841-12.043 3.606-12.253 7.807-.285 15.639-.816 23.273-2.62-3.78-.493-7.56-.913-11.314-1.371 5.014-4.236 4.842-9.573 3.458-15.465-1.557-6.423 2.866-13.699 1.457-20.987 2.372 1.21 4.743 2.421 7.14 3.582.247-5.138.493-10.303.716-15.466 3.607 1.508 7.239 3.014 10.871 4.484 4.249 1.742 8.351-5.027 11.462-7.992-2.717 1.384-5.41 2.841-8.103 4.225a592.957 592.957 0 0 0-15.984-3.36c4.077-7.968 8.548-15.738 13.094-23.446 1.63-2.816 3.31-5.571 4.99-8.35 2.817-4.57 2.817-4.546 8.154-3.533.024-6.028 5.361-11.414 7.979-16.578 3.929-7.608 6.472-15.934 5.287-24.557 2.866.161 5.731.297 8.572.409-2.816-8.116 5.658-11.476 10.228-16.22.84 7.164 3.014 14.058 5.461 20.802.073-5.671.197-11.34.296-17.022 1.013-1.013 5.905-.754 7.436-.951-3.558-.557-7.115-1.05-10.673-1.619 1.313-2.496 2.622-4.992 3.931-7.487"/><path d="M290.814 308.866c9.017-.495-.42 14.217-2.05 3.681l2.05-3.681zm-94.941 86.974c5.879-1.643 8.03.382 6.498 6.115-5.831 1.532-7.98-.495-6.498-6.115z"/></g><path d="M436.34 147.721a477.39 477.39 0 0 0 7.446-.598c3.821-.313 5.177 5.465 7.409 8.428 4.687 6.219 10.799 11.275 17.622 14.994a64.683 64.683 0 0 0 9.191 4.08c5.928 2.071 7.14 2.979 11.033 8.068a209.52 209.52 0 0 0 7.363 9.044c3.419 3.932 2.017 4.628.434 9.173 1.908 8.217 5.814 16.351 6.219 24.71.43 8.309 5.259 13.27 6.475 20.861 1.291 7.961-5.11 16.618-1.306 23.755 4.001 7.505 9.481 14.239 12.522 22.265-9.195.779-18.485 2.667-26.454 7.534.386-1.925.748-3.851 1.135-5.775a631.25 631.25 0 0 1-9.788.781l1.383 12.005c-5.608 3.895-11.238 7.79-17.093 11.33a831.618 831.618 0 0 0 5.745 5.475c-1.465 3.569-3.153 7.005-4.74 10.489-1.589 3.521-3.028 7.115-3.9 10.868a148.995 148.995 0 0 0 6.381 10.306c3.599 5.387-3.989 13.137-6.504 19.314-3.661 8.955-5.315 14.72-13.057 20.967-10.815 8.702-22.523 16.199-30.786 27.579-7.919 10.896-11.607 25.388-23.486 33.009a244.708 244.708 0 0 1-4.566-6.701c3.413 8.173 6.341 12.575 4.134 21.315-.946 3.74-1.917 7.493-2.838 11.233 1.907 1.854 3.838 3.72 5.719 5.599-8.052 2.722-8.867 2.503-8.681 11.677.131 7.485 1.025 14.928 2.042 22.335.432 2.971.839 5.94 1.246 8.923.84 6.161 2.489 5.069 8.044 6.736 7.408 2.251 8.252 3.627 12.004 10.222.957-.991 2.757-1.171 3.689-2.162 5.218 9.165 12.525 16.719 17.496 26.007-6.996 7.6-11.297 17.151-8.393 27.52a722.396 722.396 0 0 1-7.109-1.549c-.799 3.716-3.904 9.98-.615 12.309-10.672 1.672-19.77 7.79-28.352 14.004-4.45 3.226-6.301 3.035-4.01 8.156 1.387 1.474 1.096 2.412-.876 2.814-4.231 2.423-3.524.743-2.218 6.064 1.353 5.407.144 10.986-1.29 16.221-1.675 6.209-.097 12.097-.193 18.473-.097 6.412-3.307 11.531-3.7 17.673-.417 6.364-1.006 12.755-.61 19.152 6.348-9.484 8.89-21.012 15.607-30.264-3.645 18.833-11.214 36.67-14.835 55.514-1.063-6.469-1.682-13.026-3.016-19.469-4.565-.363-6.024 4.575-6.822 8.13-.944 4.221-1.045 9.425-3.596 13.085-6.267-.639-12.415-2.401-18.752-2.362-7.472.031-11.255 3.746-16.737 8.134-3.097 2.48-6.094 5.081-8.894 7.869 1.517 3.236 2.543 6.709 2.978 10.258.615 5.325 1.583 6.875-4.235 7.49-4.24.437-8.479.825-12.72 1.311-7.863.922-12.503-.021-20.083-2.123 1.198-2.582 2.395-5.176 3.642-7.747 2.519-5.189.565-6.464-1.873-11.447a461.259 461.259 0 0 0-9.747-18.814c3.132-.013 6.215.023 9.348.01a1864.385 1864.385 0 0 0-5.652-6.955 674.384 674.384 0 0 1 8.44-4.413c-7.496-11.313-14.524-23.084-19.239-35.863-2.371-6.464-3.879-13.19-5.83-19.805a948.882 948.882 0 0 0-3.602-11.847c2.363-1.12 4.676-2.314 7.039-3.421-3.452.076-6.905.14-10.357.204 6.225-9.323-2.171-11.73-3.042-19.692-1.05-9.54-3.906-20.01.371-29.189 2.114 4.318 5.532 7.769 9.979 9.649 2.75-8.877 5.118-14.768 2.687-23.723-1.503-5.493-.103-7.077 2.539-12.218 2.985-5.796 3.968-6.354 9.01-9.692 17.069-11.306 7.334-32.917 3.153-47.772 6.826-1.286 11.812-6.079 15.068-11.999 3.23-5.908-9.309-14.708-12.439-19.874-3.527-5.781.873-20.967.695-28.253-.27-11.405-1.599-22.768-1.475-34.163.116-13.539 5.985-43.133 23.538-44.785 3.648-.349 7.276.462 10.782 1.151 7.601 1.485 7.229.87 8.061-6.508.453-3.837 2.768-10.196-.866-12.29-3.09-1.8-6.205-3.599-9.295-5.399 11.779-14.107 19.62-31.724 21.023-50.127.28-3.676.314-7.387.052-11.073-.343-5.302-2.423-7.413 3.366-8.782 8.772-2.071 10.566-3.385 12.379-12.123 1.692-8.158 6.373-15.219 11.104-21.921 2.453-3.488 6.801-7.526 6.386-12.136-.413-4.611-3.734-8.222-5.034-12.557 5.072-7.975 8.462-16.892 13.633-24.819 1.911-2.917 5.04-9.59 8.454-6.891a810.806 810.806 0 0 1 8.265 6.587c4.698-8.936 2.805-19.138 2.666-28.73 11.445.568 22.362 4.419 32.984 8.394.843-11.016 4.1-22.313.725-33.223M302.7 594.872c1.287 7.059 2.771 14.083 4.035 21.155-4.037-3.929-8.024-7.931-12.012-11.911-2.343 5.756-5.746 11.443-5.794 17.88-.072 6.239-3.26 10.519-6.32 16.131a90.924 90.924 0 0 0 15.817-9.808c4.671-3.57 9.534-2.604 14.901-4.601 12.927-4.839 7.837-19.183 10.235-29.341-6.954.067-13.909.218-20.862.495m21.896 69.898c4.827-7.555 8.467-15.757 12.627-23.679 1.761-3.398 3.621-6.735 5.703-9.95.227-4.811.428-9.632.656-14.443-11.017 13.475-19.257 30.328-18.986 48.072m105.136-5.731c5.838-1.763 11.45-4.118 16.938-6.754-3.721 6.736-11.337 13.377-10.538 21.759a12.894 12.894 0 0 0 2.32 6.057 126.421 126.421 0 0 0-5.053 6.79c-4.045 5.837-7.645 11.944-10.947 18.197-.53-8.531-1.65-16.985-2.943-25.426-1.116-7.356 6.054-14.613 10.223-20.623" opacity=".1"/><g opacity=".1"><path d="M549.009 101.981c3.403-3.404 6.905-6.706 10.545-9.849 2.969 5.644 8.191 9.282 13.602 12.346 4.3 2.45 11.355 4.682 12.37 10.21 1.527 8.136-9.887 16.117-2.132 23.525-2.538 2.055-5.117 4.052-7.695 6.057 3.551 1.411 7.402 1.384 6.356 5.456-1.307 5.091-2.264 10.497-1.309 15.734 2.013 10.851 12.774 11.898 19.942 18.739 3.098 2.951 5.795 6.31 8.166 9.877 3.355 5.064 1.968 8-.527 13.34-3.633 7.77-9.045 15.816-7.54 24.807 6.124 9.563 12.301 19.103 17.754 29.05 2.483 4.53 4.812 9.144 6.915 13.866 1.229 2.784 3.38 4.702.843 6.767-1.455 1.178-2.577 2.698-3.362 4.381-2.87 6.044-1.927 14.756 3.296 19.312-1.38 3.495-5.47 7.78-2.254 11.532 3.896 3.265 9.062 4.377 13.165 7.302-3.833 3.888-3.152 9.064-1.079 13.645a432.3 432.3 0 0 1 7.548 4.128c3.503 1.937 3.258 4.306 4.17 8.078 1.058 4.246-4.468 10.861-6.636 14.635-2.024 3.537-.722 3.379 2.178 5.661 2.534 1.978 5.213 3.746 7.941 5.439 8.791 5.497 18.324 10.584 24.111 19.534.655 10.976-3.483 21.236-8.583 30.733-10.762 20.049-19.974 40.587-33.475 59.016-6.921 9.462-14.124 18.767-20.15 28.833-5.111.037-11.358-1.305-15.738 1.365-5.36 3.252-11.459 4.906-17.424 6.658.575.674.609 1.788 1.187 2.481-6.657 2.797-13.519 5.051-20.287 7.587-3.865 1.44-7.705 2.97-11.418 4.741-1.246 2.007-2.451 4.066-3.677 6.09-1.444-.938-2.87-1.906-4.294-2.828a388.075 388.075 0 0 1-8.24 4.173c-6.464 3.186-12.955 6.258-19.296 9.633-.722-2.977-1.428-5.973-2.151-8.959a999.854 999.854 0 0 1 7.316 4.606c-1.294-3.373-3.643-6.202-7.031-7.6-3.797-1.562-.567-9.201.285-12.987-4.587 3.019-4.259 3.75-3.524 9.382.279 2.156.576 4.311.927 6.463-2.132.366-4.246.732-6.376 1.118-5.628 1.004-5.079-1.839-7.183-6.796 1.506.367 3.03.742 4.537 1.117.046-2.597.126-5.214.172-7.82-4.951 3.868-8.949 8.858-15.143 8.863-4.051-.003-9.727.861-11.816-3.673 2.703-1.34 5.45-2.576 8.204-3.73.138 1.735.258 3.473.396 5.208 4.185-.574 8.334-2.074 11.133-5.393 2.567-3.058-1.719-3.961-4.106-5.68-3.632-2.656-3.88-6.004-5.272-10.161.315 6.917-1.091 6.228-7.427 8.971.469-2.036.937-4.08 1.407-6.108a650.283 650.283 0 0 1-5.263 2.669c3.217-9.618-1.285-20.3 3.651-29.569 2.21-10.727 1.836-22.492-3.008-32.479-2.063-4.212.241-9.68-1.293-14.718-1.479-4.798-3.891-9.334-4.649-14.343-.71-4.877 2.979-8.536 4.86-12.738.966-2.13 1.468-4.42 1.14-6.753 2.123-.249 4.23-.47 6.335-.718-3.806-2.354-8.035-3.91-12.423-4.758.801-3.071 1.678-6.093 2.498-9.147 1.686 5.367 2.563 6.891 7.013 10.103.105-1.629.227-3.277.331-4.906 3.436 1.096 6.838 2.212 10.256 3.31-1.76-2.895-3.503-5.809-5.265-8.712a1649 1649 0 0 0 9.716 5.802c-1.1-2.739-2.201-5.497-3.3-8.237 2.932-3.672 5.404-7.704 7.669-11.826 2.188-3.973 6.08-5.084 9.474-7.918 3.461-2.903 5.564-7.5 7.911-11.279 5.22-8.427 10.302-17.004 14.074-26.208 2.805-6.849 8.411-12.678 16.339-8.535-.689-4.6-.949-9.468-3.556-13.493.211-5.293.367-10.59.433-15.881-4.074-1.874-8.115-3.786-12.207-5.658-2.31-1.654-4.813-3.022-7.376-4.241-3.426-1.637-3.072-3.087-4.736-6.358-2.095-4.165-4.794-7.993-6.958-12.125-3.01-5.704-1.679-10.266-.306-16.344.926-3.99 3.559-9.628 1.116-13.18-2.589-3.81-6.264-7.686-6.628-12.511-.288-4.083 3.393-7.166.083-10.756-3.763-4.086-3.508-6.322-3.619-12.038-.086-4.486 1.832-10.49-.944-13.944-3.055-3.791-5.612-7.874-8.632-11.668-5.444-6.888-15.281-7.872-22.139-13.28-7.318-5.776-13.079-13.242-19.01-20.379 2.724.063 5.451.162 8.174.225-1.9-3.756-.749-12.635 5.106-11.911 6.802.847 12.062 14.277 14.524 19.664 2.421 5.318 2.585 5.566 8.326 6.893 5.632 1.31 8.653 2.385 13.026-1.725a85.073 85.073 0 0 0 3.586-3.598c2.726-2.872 3.58-.726 6.638 1.04 4.112 2.348 8.273 4.647 12.307 7.145.786-5.762 3.562-10.943 7.38-15.261 3.454-3.903 3.252-4.166 2.813-9.479a105.379 105.379 0 0 1-.261-11.918c.302-9.098 2.969-31.098 17.473-27.134"/><path d="M529.63 320.822c4.84-2.095 6.608-.686 5.307 4.242-4.913 2.083-6.664.656-5.307-4.242zm-85.835 207.564c4.336 2.681 8.657 5.399 12.753 8.442-3.483.366-6.979.778-10.462 1.136 3.22 3.13 6.288 6.397 9.188 9.805-6.454-2.369-12.714-5.24-19.141-7.719 2.806-2.996 6.659-4.58 10.744-4.615a981.648 981.648 0 0 1-3.082-7.049"/></g></svg>