<svg xmlns="http://www.w3.org/2000/svg" width="300" height="300" viewBox="0 0 300 300"><g fill="#010101"><path d="M226.154 142.365l5.023.223s-3.147-5.945-3.847 7.694c-.699 13.639 19.234 27.278 19.234 27.278 59.452 4.197 51.066-10.492 51.066-10.492s-9.799.699-13.646 0c-3.847-.699 13.639-13.289 13.639-13.289.699-6.645-51.059-36.37-51.059-36.37s-7.743 18.759-12.285 19.109a278.785 278.785 0 0 0-37.577-2.862 279.47 279.47 0 0 0-58.413 5.69l-74.873 5.61C21.539 115.586 2.911 124.56 6.99 126.327c4.079 1.768 5.031 21.759 5.031 21.759S-6.743 168.614 6.99 173.1c13.733 4.487 58.603-21.941 58.603-21.941"/><path d="M209.355 139.196s3.267 17.055-24.875 34.423 26.351-17.837 23.083-34.423"/><path d="M214.816 139.974s2.879 17.782-21.916 35.891 23.216-18.598 20.337-35.891m12.021.778s3.593 20.091-27.356 40.55 28.979-21.012 25.386-40.55m-24.03-2.334s2.712 15.166-20.643 30.61 21.867-15.861 19.156-30.61"/><path d="M191.471 139.196s2.853 15.443-21.721 31.169 23.009-16.151 20.156-31.169m-10.872 0s2.433 14.52-18.521 29.306 19.619-15.186 17.187-29.306m-8.001 1.556s2.332 11.579-17.756 23.37 18.81-12.11 16.477-23.37m-8.578 0s2.589 11.579-19.713 23.37 20.882-12.11 18.293-23.37m-6.995 0s2.626 10.204-19.99 20.595 21.176-10.672 18.55-20.595m-33.744 6.149s-7.817 14.625-10.868 15.682 8.771-15.682 6.483-15.682m-4.954 0s-6.456 13.53-8.976 14.508c-2.52.978 7.244-14.508 5.354-14.508m-6.495.778s-4.599 10.317-6.394 11.063c-1.795.746 5.16-11.063 3.814-11.063m-7.537 1.557s-2.862 8.868-3.979 9.509 3.211-9.509 2.373-9.509m-6.954.778s-4.899 9.644-6.81 10.341c-1.912.697 5.496-10.341 4.062-10.341m62.443-6.149s1.972 8.847-15.012 17.856c-16.984 9.009 15.902-9.252 13.93-17.856m-11.348 2.335s1.358 7.67-10.342 15.481 10.955-8.022 9.597-15.481m-50.697.311s-2.311-7.478-4.759-7.886c-2.447-.408 4.926 6.798 2.803 7.886m9.738-.778s-2.311-9.541-4.759-10.062 4.926 8.674 2.803 10.062m16.742-.993s-4.539-8.622-9.345-9.092c-4.806-.47 9.673 7.838 5.504 9.092m13.558-2.399s-4.776-8.98-7.9-8.644c-3.124.336 8.582 9.757 5.12 9.588m12.897-1.927s-4.48-9.711-7.41-9.348c-2.93.364 8.05 10.551 4.802 10.369m29.377-4.047c-3.36-16.754-9.574-21.505-9.574-21.505s9.284 22.554 6.963 23.849m-5.832.487c-3.902-13.64-11.119-17.507-11.119-17.507s10.783 18.361 8.087 19.416m-4.75-1.498c-3.149-10.702-8.974-13.737-8.974-13.737s8.702 14.407 6.527 15.234m28.635-6.099c-3.36-16.754-9.574-21.505-9.574-21.505s9.284 22.554 6.963 23.849m14.234-3.423c-3.36-16.754-9.574-21.505-9.574-21.505s9.284 22.554 6.963 23.849m19.216-2.344c-3.36-16.754-9.574-21.505-9.574-21.505s9.284 22.554 6.963 23.849m16.725-2.225c-3.821-15.897-10.887-20.405-10.887-20.405s10.557 21.401 7.918 22.63m25.078-3.298s-6.237-17.782-4.352-19.332c1.886-1.551 7.978 20.591 7.978 20.591m7.71-.044s-5.304-17.849-3.701-19.405c1.604-1.556 6.785 20.669 6.785 20.669m-24.906-3.845c-3.821-15.897-10.887-20.405-10.887-20.405s10.557 21.401 7.918 22.63"/></g></svg>