<?xml version="1.0" encoding="utf-8"?>
<!-- Generator: Adobe Illustrator 17.0.2, SVG Export Plug-In . SVG Version: 6.00 Build 0)  -->
<!DOCTYPE svg PUBLIC "-//W3C//DTD SVG 1.1//EN" "http://www.w3.org/Graphics/SVG/1.1/DTD/svg11.dtd">
<svg version="1.1" id="Layer_1" xmlns="http://www.w3.org/2000/svg" xmlns:xlink="http://www.w3.org/1999/xlink" x="0px" y="0px"
	 width="800px" height="800px" viewBox="0 0 800 800" enable-background="new 0 0 800 800" xml:space="preserve">
<g opacity="0.1">
	<g>
		<path d="M495.092,53.455c0.097-9.185,0.032-18.428,1.353-27.553c5.641-2.011,11.298-3.976,16.922-6.007
			c-1.241,4.331-2.418,8.662-3.578,13.021c6.721,0.113,15.116,4.452,10.894,11.478c-2.224,3.723-4.528,7.377-6.72,11.095
			C507.679,54.717,501.393,54.032,495.092,53.455"/>
		<path d="M425.827,68.097c26.816,9.061,55.535,2.787,81.545-5.798c0.532,7.485,1.273,14.951,2.144,22.421
			c-4.738,4.923-9.621,9.698-14.52,14.435c-11.055,10.673-22.272,21.281-31.94,33.223c5.881,0.358,11.78,0.769,17.678,1.104
			c-5.237,4.098-10.492,8.146-15.809,12.127c-0.758,2.075,0.967,7.01,1.273,9.259c7.542-3.534,14.859-7.623,22.74-10.5
			c9.476-3.424,21.917-1.007,31.973-0.975c10.894,0.073,21.805,0,32.714,0.04c9.428,0.049,12.892,8.703,11.377,17.534
			c-1.177,6.882-5.737,11.991-7.558,18.557c-2.433,8.707-5.189,17.345-8.525,25.757c-6.623,16.772-15.761,32.84-28.944,45.358
			c10.749,4.593,13.537,20.322-0.886,15.096c-5.786-2.095-12.377,8.122-16.615,12.236c-5.85,5.689-16.712,1.68-24.673,1.209
			c9.75,2.01,33.456,10.265,39.918,2.748c7.09-8.251,6.962-7.207,16.389-2.163c7.655,4.081,17.517,6.91,22.61,13.916
			c7.091,9.717,19.275,18.715,22.353,30.426c4.158,15.809,8.138,31.712,13.924,47.025c4.287,11.354,8.718,18.924,19.822,24.347
			c12.571,6.136,19.226,10.508,27.719,22.01c3.594,4.919,7.382,9.762,12.006,13.746c-1.418,4.883-1.192,9.963,0.435,14.77
			c3.691,10.81,12.554,18.695,18.308,28.295c-7.091-2.413-14.52-4.355-20.805-8.626c-6.672-4.516-17.131,0.685-24.963,2.881
			c8.348,0.161,16.695-0.04,25.044-0.246c7.332,4.83,13.988,10.713,19.693,17.413c5.705,6.704,10.491,14.206,14.23,22.183
			c-5.882,7.719-11.958,15.266-17.921,22.864c5.528,3.404,11.024,6.789,16.502,10.233c2.901-5.919,5.673-17.175,12.571-17.312
			c7.961-0.137,15.954-0.862,23.915-0.295c15.31,1.108,30.974,10.234,33.987,26.362c2.225,11.845,0.725,36.361-6.72,45.684
			c-6.35,7.965-12.184,16.385-17.018,25.394c-8.767-0.677-16.083,4.529-23.271,8.723c4.738-1.628,9.46-3.3,14.166-4.968
			c0.112,13.605-10.814,19.843-22.626,22.687c15.358,5.358,31.845,9.464,47.928,4.65c0.178,5.169,0.306,10.346,0.435,15.511
			c0.177,6.249-10.475,9.698-15.261,13.38c-6.946,5.282-10.652,10.109-18.662,13.996c-7.429,3.643-14.698,7.688-21.644,12.184
			c-6.64,4.275-15.229-0.83-23.335-1.008c-8.138-0.185-16.212,0.984-24.302,2.047c-15.841,2.035-27.622,1.579-42.272-4.569
			c5.786,4.702,12.055,8.771,18.227,12.957c-3.078,3.888-6.092,7.836-9.041,11.812c-8.009-6.631-13.553-14.81-24.108-13.412
			c-3.772,0.512-7.542,0.999-11.281,1.503c-0.274,3.722-0.516,7.429-0.725,11.136c-8.413-1.769-16.776-3.421-25.254-4.908
			c0.355,2.837,0.742,5.697,1.112,8.574c-6.479-5.04-13.038-9.859-19.806-14.452c-7.075-4.794-17.147,2.7-24.447,6.217
			c-9.444,4.56-9.895,5.032-10.297,14.967c-0.371,9.633-7.155,16.031-12.248,24.06c-9.879-9.121-17.163-13.307-31.071-13.964
			c-13.827-0.661-27.509,3.69-37.147,13.883c-0.918-2.57-1.821-5.185-2.724-7.772c0.451,9.137-1.563,18.299-6.542,26.035
			c-6.462-7.136-9.686-15.117-19.564-11.104c-3.432,1.398-7.188,2.731-10.862,1.124c-0.064-4.545,2.369-7.861,6.204-9.959
			c6.93-3.804,15.052-4.795,20.87-10.487c8.042-7.833,11.619-17.304,20.451-24.573c3.868-3.203,7.623-6.51,11.298-9.923
			c5.269-4.911,4.351-10.821,5.334-17.743c1.257-8.872,12.151-1.733,16.18-10.644c1.37-3.07,1.047-6.648,0.306-9.827
			c6.591-2.3,13.569-3.234,20.515-3.259c13.956-0.064,27.638,3.098,41.547,3.481c0.225-6.486-0.742-10.689,3.835-15.544
			c6.753-7.22,13.457-14.581,19.258-22.565c-7.913,5.112-16.357,8.633-24.254,13.553c-10.54,6.592-13.312,14.19-25.898,6.434
			c-3.691-2.272-6.962-5.136-9.944-8.264c-5.141-5.358-4.851-7.122-12.119-4.552c-7.51,2.667-15.681,4.762-19.871-4.033
			c4.689-0.568,9.363-1.12,14.068-1.684c-7.139-2.542-14.1-5.842-21.643-6.966c-9.235,3.553-18.049,8.057-27.251,11.667
			c-0.645-3.497-1.305-7.002-1.919-10.519c-4.013,0.569-8.042,1.072-12.038,1.632c4.206-4.162,8.332-8.388,12.652-12.437
			c-5.157-1.104-10.314-2.317-15.471-3.494c17.517-13.126,39.402-18.331,57.21-30.889c18.002-12.663,7.301-37.441,5.351-54.942
			c-10.378,4.432-20.886,8.827-31.926,11.495c7.688-9.154,16.938-16.793,25.189-25.41c-4.222-3.747-8.525-7.429-12.812-11.096
			c-5.785-4.931-3.513-6.007-1.353-12.582c4.126-12.703,19.871,4.001,24.818,6.765c8.235,4.633,19.226-1.1,27.944-2.426
			c5.947-0.899,12.071-0.959,17.518,2.043c6.14-0.577,12.345-0.677,18.533-0.577c-5.125-4.383-10.556-8.755-14.214-14.52
			c-5.898-9.242,2.046-14.339,8.686-20.979c-3.336-0.262-6.672-0.463-9.976-0.725c4.013-12.086,8.026-24.221,10.895-36.659
			c-6.188,3.699-12.135,7.692-17.953,11.926c-2.982-8.155-6.995-15.894-11.7-23.206c-2.771-4.376-5.786-8.594-8.944-12.699
			c1.209-3.098,2.257-6.241,3.304-9.387c4.239-12.413,9.83-26.329,24.641-28.142c-5.189-0.113-10.378-0.44-15.583-0.682
			c-6.849-0.326-7.623,2.494-12.877,6.426c-4.126,3.042-8.461,5.749-12.812,8.473c-6.994,4.395-11.845-2.498-18.146-6.813
			c-0.484,4.943-0.935,9.875-1.435,14.803c-10.717-2.535-17.936-11.68-27.541-16.418c0.951,6.688,1.95,13.364,3.029,20.036
			c-4.657-7.038-17.823-20.051-13.327-27.288c5.754-9.234,10.25-19.169,15.568-28.654c2.24-4.049,4.673-8.029,7.382-11.812
			c4.206-5.834,0.45-6.471-3.965-11.345c-4.206-4.641-6.962-5.649-6.591-12.127c0.37-6.245,0.805-12.518,1.353-18.755
			c4.061,0.351,8.106,0.725,12.135,1.14c-3.932-3.449-7.8-6.974-11.506-10.672c-1.821,10.58-5.334,20.733-7.316,31.268
			c-4.529-4.794-15.294-12.208-14.327-19.125c1.483-10.317,10.459-17.549,17.212-24.628c-3.948,2.679-7.962,5.217-12.087,7.582
			c-6.527,3.747-7.09,9.948-7.638,17.208c-0.339,4.432-4.142,30.571-2.321,31.808c2.386-5.097,4.802-10.217,7.236-15.306
			c9.701,3.956,7.59,16.905,9.782,25.1c-5.705-1.153-17.921-7.893-19.999-1.692c-3.594,10.773-3.755,11.341-14.972,13.042
			c2.965-11.253,5.028-23.005,3.256-34.621c2.046,0.194,4.06,0.375,6.091,0.585c-3.416-15.705-0.37-28.191,1.951-43.585
			c2.111-14.113,6.655-28.468,18.436-37.505c-9.701,5.217-24.093,12.893-20.757,24.798c2.289,8.194-31.297,8.545-37.726,7.196
			c5.849-3.404,11.684-6.87,17.517-10.282c-4.045-4.919-8.042-9.839-11.974-14.863c9.171-1.314,11.91,0.391,10.25-10.085
			c-1.708-10.958-6.623-21.192-14.794-28.786c9.815,0,15.407,8.577,20.967,15.358c-2.578-1.189-5.141-2.373-7.688-3.554
			c1.064,8.275,1.29,22.816,12.458,10.911c7.913-8.401,4.625-22.135,11.426-31.184c-5.351,5.104-10.701,10.193-16.035,15.306
			c1.305-4.251,2.53-8.55,3.835-12.8c-7.606,1.224-15.728-0.918-20.031-7.731c-1.885-2.909-2.852-6.293-3.207-9.738
			c-4.27-0.129-8.557-0.318-12.812-0.479c2.014-5.829,4.158-11.632,6.398-17.389c3.465,1.603,7.01,3.146,10.475,4.746
			c1.144-5.999,2.224-12.015,3.417-18.03c8.235,6.06,10.394,16.112,10.91,25.769c0.258,6.007,3.787,8.698,7.542,13.323
			c4.013,4.879,11.249-4.258,15.681-7.526c-3.9,0.415-7.768,0.927-11.668,1.423c0.532-5.27-3.48-10.177-2.385-15.447
			c0.58-2.957,3.32-4.258,5.995-4.851c-1.096-7.413-2.224-14.81-3.448-22.207c7.284-0.943,14.584-1.772,21.885-2.461
			c-1.241-4.178-2.45-8.344-3.706-12.522c3.013-1.793,3.835-5.121,4.093-8.332c0.516-6.023,0.903-10.809,8.476-8.827
			C418.671,84.639,420.138,78.257,425.827,68.097"/>
		<path d="M334.194,98.95c14.487-6.809,27.074-16.809,40.063-26.003c0.081,7.523,0.29,15.008,0.548,22.526
			c-4.496,1.668-7.993,4.976-9.347,9.665c-1.885,6.559,1.564,9.274-4.303,13.916c-6.591,5.169-13.263,10.234-19.983,15.226
			c-10.185,7.533-12.989,23.271-14.955,35.196c-1.08,6.471-1.773,12.981-2.531,19.468c-4.883,5.712-9.589,11.534-14.778,16.933
			c12.167-17.925,8.88-40.539,8.719-60.949c-4.626,3.404-9.25,6.781-13.86,10.201c7.719-8.219,17.05-14.347,25.092-22.094
			c5.382-5.21,10.201-7.168,7.832-14.794C334.79,112,333.984,105.457,334.194,98.95"/>
		<path d="M355.321,291.56c15.6-3.348,26.446-15.633,37.937-25.721c-9.992,17.143-13.924,41.01-33.456,50.547
			c0.935-5.294,1.821-10.585,2.739-15.886c-3.803,2.465-7.607,4.911-11.41,7.372C352.421,302.409,353.838,296.974,355.321,291.56"/>
		<path d="M366.022,343.307c-0.564-3.13-1.096-6.277-1.66-9.408c4.528,10.23,8.316,20.818,13.408,30.826
			c2.901,5.721,6.269,11.224,10.314,16.224c-3.223,5.08-6.817,9.927-10.12,14.967c4.173-2.739,8.38-5.463,12.553-8.226
			c3.691,3.259,6.237,7.687,7.51,12.405c2.353,8.9,0.032,19.677-8.429,24.532c-5.769,3.308-7.961,0.488-11.104,7.248
			c-1.466,3.187-2.965,6.358-4.528,9.505c-4.996-1.724-10.217-2.885-15.503-3.187c-3.498-0.201-6.962-0.04-10.41,0.52
			c-8.075,1.285-6.269-1.789-9.718-8.566c-4.045-7.913-8.686-15.464-13.038-23.202c-6.123,8.521-10.217,23.697-22.433,25.24
			c-13.166,1.66-27.767-21.498-33.166-31.743c6.848-0.472,13.746-0.919,20.596-1.399c-2.321-5.395-4.722-10.721-6.995-16.111
			c8.67,0.717,15.681-3.42,20.37-10.532c1.918-2.953,3.449-6.148,4.786-9.383c2.692-6.426,2.337-6.567,9.379-6.865
			c9.09-0.391,11.137-7.889,20.064-10.584C346.989,342.835,356.675,343.794,366.022,343.307 M349.826,385.24
			c-0.757,6.539-1.338,13.122-1.805,19.706c8.815-2.341,11.507-11.161,13.989-18.867C357.948,385.788,353.903,385.51,349.826,385.24
			"/>
		<path d="M431,445.814c-0.355-14.694,9.298-26.18,19.338-35.596C458.816,426.226,444.07,439.271,431,445.814z"/>
	</g>
	<path d="M321.147,304.796c9.92,1.404,13.289,12.136,21.248,16.723c2.799,1.609,3.251,1.29,4.156,4.491
		c-2.497,1.52-5.128,2.806-7.725,4.139c-5.161,2.648-10.39,5.571-13.875,10.36c-3.066,5.471-10.205,1.617-12.366,7.021
		c-2.329,5.873-6.134,10.59-7.239,16.97c-2.262,1.609-4.624,3.192-6.401,5.366c-2.999,3.687-2.697,3.745-7.942,4.361
		c-3.871,0.448-7.792,0.821-11.696,0.356c-4.005-0.478-4.34,0.837-7.256,3.469c4.624,2.857,9.3,5.676,14.042,8.353
		c-5.379,3.246-11.327,8.5-18.097,7.247c-4.206-0.791-3.77-2.773-6.368,1.181c-1.893,2.887-8.562,2.82-11.913,3.524
		c2.497,10.934,13.506,17.649,15.517,28.742c0.77,4.223,0.234,3.967,4.691,5.04c5.094,1.219,5.497,2.991,8.328,7.218
		c4.005,5.957,13.941,5.722,20.309,8.809c-0.301-2.207-0.603-4.406-0.939-6.606c1.425,0.625,2.866,1.219,4.307,1.806
		c1.273-5.915,13.891-8.831,5.547-15.022c4.407-3.113,7.758-7.872,12.852-10.028c6.351-2.681,8.496,5.521,9.702,10.502
		c1.206,4.918,1.424,13.35,6.602,15.533c3.452,1.446,7.39,1.014,6.183,5.186c-1.223,4.223-2.296,8.488-3.251,12.773
		c6.568-0.256,11.881-0.754,18.114,1.399c0.251-2.242,0.587-4.474,0.821-6.719c7.222,4.884,12.333,12.052,17.879,18.621
		c-6.87,2.036-12.986-1.621-17.762-6.301c-1.658,4.558-3.72,9.187-3.451,14.164c1.86,0.959,3.72,1.91,5.58,2.861
		c2.999,1.546,0.938,5.727,0.251,8.588c-1.525,6.17-2.43,11.691-0.302,17.867c1.877,5.438,5.898,9.739,8.597,14.741
		c-2.866,0.147-5.698,0.311-8.53,0.461c1.927,1.501,3.854,3.008,5.781,4.529c-2.748,0.138-5.479,0.323-8.227,0.461
		c3.603,3.875,6.803,8.072,9.953,12.308c-4.339-0.302-8.663-0.818-12.987-1.177c5.48,8.244,8.261,22.286,5.413,31.891
		c-1.441,4.768-3.284,9.992,0.017,14.466c-1.961,5.743-5.346,10.816-8.379,16.027c-1.29,2.238-2.547,4.496-3.586,6.87
		c-1.189,2.685-2.581,3.268-4.306,5.513c-3.15,4.13-3.385,9.568-2.715,14.511c-4.055,7.951-12.819,12.718-15.316,21.578
		c-2.479-0.904-4.96-1.839-7.44-2.739c1.525,4.047,4.726,7.243,6.418,11.231c0.837,2.002,1.29,4.319,0.201,6.342
		c-1.223,2.254-3.602,1.001-5.848,1.069c-3.569,0.105-7.742,0.946-11.093-0.683c-2.011-0.963-3.117-2.874-3.603-4.998
		c-3.284-0.268-6.568-0.439-9.853-0.544c1.174-2.304,2.329-4.605,3.502-6.908c-4.088,4.554-7.641,9.556-11.294,14.449
		c2.062-6.623-2.245-12.241-4.775-17.988c0.268,4.03,2.497,8.29,1.324,12.337c-1.307,4.508-7.138,4.595-10.909,5.433
		c0.57-1.495,1.139-2.987,1.726-4.466c-8.446,1.688-30.078-4.772-33.949,5.794c-1.793,4.871-5.865,8.449-10.808,9.89
		c-2.547,0.729-5.228,0.917-7.843,0.595c-0.536-1.985-1.039-3.988-1.575-5.977c-2.848,3.716-5.547,5.287-4.49,10.062
		c-7.507,0.632-13.171,7.218-20.694,7.729c-2.648,0.18-9.451-1.839-6.586-4.91c2.899-3.108,4.893-5.823,6.82-9.623
		c-3.402,2.2-6.82,4.327-10.305,6.385c0.117-2.618,0.234-5.241,0.385-7.863c-2.178,0.08-4.34,0.125-6.535,0.163
		c1.709,1.068,3.401,2.133,5.111,3.188c-1.039,1.537-5.949,7.264-1.893,8.161c4.575,1.013,1.391,7.016-2.044,8.332
		c-3.72,1.437-7.892,0.993-11.629,2.19c-4.055,1.278-1.86,7.767-2.363,10.75c-3.418-2.715-6.971-5.266-10.624-7.671
		c-1.307,3.192-2.564,6.401-3.87,9.594c-3.486-1.902-6.719-3.733-9.87-6.145c-1.324,2.287-2.665,4.566-3.971,6.858
		c-4.038-4.512-9.534-7.117-15.383-4.277c0.251-1.63,0.503-3.281,0.771-4.91c-1.609,2.002-3.217,3.992-4.843,5.99
		c-2.195,2.715-3.586,2.053-6.904,2.576c-5.262,0.838-10.389,2.275-15.617,3.306c2.815-1.471,5.68-2.853,8.579-4.16
		c-0.335-2.739-0.721-5.467-1.039-8.206c-5.295,1.265-10.59,2.551-15.885,3.862c0.335-2.527,0.754-5.052,1.24-7.562
		c2.128-1.495,4.223-3.024,6.334-4.52c-4.692,0.897-9.351,1.936-13.975,3.15c2.546,2.048,5.63,3.615,4.29,7.552
		c-1.526,4.562-8.362,5.471-12.434,5.141c1.542-2.648,3.05-5.337,4.893-7.805c2.028-2.723,0.805-4.906,0.184-8.177
		c8.597-3.088,17.578-4.91,26.308-7.566c-0.871-2.853-1.759-5.692-2.597-8.55c-2.681,1.99-5.378,3.917-8.094,5.857
		c-3.753,2.685-6.551-2.074-11.126-0.851c-9.384,2.522-18.198,5.179-27.883,5.74c1.222-3.213-2.614-2.463-4.826-2.715
		c4.357-1.072,8.764-1.814,13.187-2.522c-1.307-1.901-2.631-3.799-3.938-5.701c2.597-0.385,5.295-0.394,7.825-1.186
		c3.418-1.072,3.954-3.385,7.674-3.762c8.429-0.85,14.897-6.635,22.454-10.548c-3.518,0.809-7.038,1.588-10.573,2.275
		c-4.239,0.837-5.228,0.142-5.765,4.503c-5.613-4.914-12.936-0.382-19.237-0.084c0.62-2.815-2.027-3.402-4.038-4.608
		c-3.267-1.948,0.302-4.926,1.978-7.733c-3.887,1.777-7.775,3.566-11.663,5.324c-0.419-5.336-1.122-10.041-2.413-15.248
		c6.937-2.744,14.26-8.504,21.75-9.099c3.637-0.281,7.273-0.281,10.926-0.452c4.406-0.218,1.977-1.839,4.96-3.875
		c3.62-2.501,8.797-0.746,12.249-3.783c-8.093-0.599-16.271-0.218-24.28-1.73c-4.324-0.813-8.328-2.92-12.685-3.469
		c-4.188-0.532-8.411,0.025-12.618-0.176c1.793-4.654,3.217-9.941,7.691-12.802c0.033,2.086,0.1,4.172,0.168,6.259
		c1.256-7.671,9.835-7.968,15.684-10.176c-0.402,3.138-0.805,6.267-1.206,9.4c4.373-2.564,8.361-5.739,11.897-9.375
		c0.268,2.412,0.57,4.822,0.871,7.226c0.386,3.038,8.361,2.342,11.177,2.505c0.536-3.649,1.257-7.26,2.078-10.854
		c1.022-4.499-4.038-6.695-6.469-10.473c7.139,2.627,14.897,2.882,22.169,0.637c-2.128-3.514-4.273-5.396,0.704-7.549
		c3.334-1.433,7.004-0.305,10.087,1.161c1.123,1.144,2.346,1.378,3.687,0.683c2.463-0.595,3.184,0.825,5.396,1.822
		c3.017,1.349,6.318,1.738,9.602,1.462c6.853-0.595,13.237-3.607,19.806-5.404c9.149-2.505,14.545-0.289,22.94,3.268
		c-6.452-4.374-13.69-7.972-21.533-8.752c0.687-2.789,1.341-5.601,1.995-8.403c-5.179,0.092-5.898-0.227-8.831,4.348
		c-2.129,3.335-6.603,12.157-11.496,11.327c-2.027-0.339-3.687-1.873-5.16-3.15c-2.498-2.149-4.944-0.481-7.96-0.113
		c-7.021,0.859-8.21-7.176-10.255-12.249c0.553,11.621-21.683,10.958-28.687,11.592c5.01-3.054,10.12-5.949,15.181-8.915
		c4.223-2.501,7.943-6.003,12.199-8.277c1.709-0.926,3.619-1.428,5.563-1.341c3.2,0.113,3.234-1.219,5.128-3.812
		c3.485-4.792,6.937-9.643,10.925-14.03c-2.983,0.147-5.982,0.264-8.982,0.415c3.217-3.8,6.385-7.629,9.585-11.445
		c2.665-3.18,7.943-12.337,11.814-10.155c2.631,1.483,7.305,5.843,9.635,3.54c3.703-3.64,3.82-4.516,8.512-2.274
		c0.268-3.62,0.553-7.235,0.804-10.842c-9.249,0.461-18.532-0.055-27.715-1.219c-4.173-0.532-5.664-0.993-8.663-3.682
		c-5.01,0.243-10.037,0.138-15.047,0.088c0.838-2.853,3.753-3.464,6.032-5.278c3.352-2.63,6.418-5.769,10.406-7.423
		c-5.094-2.099-12.952-2.685-10.322,5.257c-4.977-1.458-9.736-3.544-14.595-5.308c2.681-2.668,5.413-5.245,8.228-7.758
		c-2.413-0.904-4.809-1.805-7.222-2.693c-0.067,1.86-0.1,3.711-0.151,5.567c-3.116-2.091-6.25-4.176-9.367-6.28
		c-3.116-0.963-6.435-2.014-8.478-4.742c3.251-0.854,9.735-0.763,8.847-4.666c-1.039-4.436-3.753-8.178-6.602-11.642
		c6.836-0.624,13.673,1.199,19.304,5.153c-1.893-2.928-3.804-5.865-5.731-8.768c6.954,2.082,14.847,2.388,20.577,7.344
		c-2.546-2.581-5.445-4.855-7.54-7.854c-2.848-4.102-1.189-7.733,0-12.237c-0.218-2.748,0.872-3.569,3.284-2.48
		c2.564,0.206,5.128,0.277,7.692,0.432c4.24,0.26,8.546,0.771,12.484,2.522c-1.206-5.68-0.268-6.049,3.753-9.794
		c-7.071-5.752-16.639-4.738-25.118-4.579c1.827-6.493,6.786-15.806,11.663-5.438c2.01-3.649-1.777-5.81-4.273-7.674
		c-2.329-1.739,0.335-7.813,0.921-10.494c-2.63,2.999-3.267,7.055-4.557,10.695c-1.257-1.382-2.53-2.752-3.804-4.147
		c2.698,5.789,1.173,11.93-1.978,17.163c-2.212-3.758-4.406-7.607-5.647-11.826c-1.289-4.478-8.478-3.989-12.852-5.462
		c7.892-3.699,17.293-4.563,25.051-0.03c-2.949-5.022-3.904-5.391-0.519-10.402c3.402-5.056,6.401-10.447,8.579-16.161
		c2.296,1.47,4.641,2.882,6.954,4.31c-2.53-3.615-5.077-7.218-7.389-10.971c12.081,2.472,23.476,8.001,35.909,8.713
		c1.844,1.525,3.653,3.062,5.48,4.587c2.614,2.183,1.374,3.234,0.385,6.221c1.24,2.509,2.43,5.064,3.637,7.59
		c-0.687,2.036-1.408,4.072-2.129,6.112c3.05-4.344,5.949-8.805,8.345-13.548c2.697-5.278,9.4-1.131,12.517,2.044
		c3.3,3.335,11.294,0.004,12.936,4.194c1.324,3.376,3.083,6.862,6.82,8.018c-1.542-3.293-3.167-6.543-4.877-9.753
		c2.95,0.218,5.898,0.432,8.831,0.654c-0.067-2.183-0.151-4.39-0.218-6.581c-3.937,0.164-7.708-1.102-10.64-3.783
		c8.361-3.812,16.422-7.482,25.202-10.033c1.575-0.461,3.133-0.951,4.692-1.5c3.184-1.094,2.664-2.401,4.39-5.023
		c2.564-3.896,6.35-6.773,10.272-9.178c-4.24,0-8.63,0.365-12.45,2.354c-1.273-4.486-13.154-4.344-17.109-4.583
		c-6.669-0.432-11.327-6.179-15.751-10.469c6.401-5.743,14.545-10.021,23.393-8.475c-0.536-2.823-1.056-5.659-1.609-8.5
		c2.915,0.792,5.814,1.591,8.73,2.379c2.513,0.683,4.473-2.157,6.4-3.741c-2.245-1.144-4.507-2.254-6.769-3.347
		c0.134-1.735,0.251-3.477,0.385-5.212c0.352-4.842-2.899-3.996-7.273-4.901c0.889-1.839,1.76-3.675,2.631-5.517
		c2.866,1.827,5.496,3.996,8.277,5.923c-0.134-1.667-0.285-3.343-0.435-5.014c4.44-0.055,8.26-2.091,10.59-5.903
		c-2.312-0.176-4.608-0.327-6.92-0.511c2.966-1.546,5.965-3.142,9.2-4.072c4.775-1.383,4.893-0.52,6.3-5.391
		c-0.184,2.764-0.335,5.529-0.519,8.29c2.463-1.241,4.943-2.463,7.44-3.64c3.669-1.755,5.111-5.107,7.49-8.32
		c-0.503,2.89-0.988,5.794-1.475,8.693c2.866-0.263,4.156-1.357,5.379,1.424c1.072,2.418,2.765,4.496,4.91,6.062
		c-0.754-2.463-1.475-4.943-2.213-7.411c-0.871-3.004,4.34-5.371,6.636-7.067c-1.023,2.681-2.044,5.362-3.066,8.026
		c6.317,1.286,6.317,7.738,6.686,12.915c0.619-2.908,1.173-5.836,1.843-8.743c-1.994-2.63-3.954-5.282-5.898-7.951
		c4.139-1.898,8.312-3.733,12.534-5.42c-0.686,3.82-1.34,7.657-2.195,11.453c1.407,3.536,5.245,8.571,2.011,11.114
		c-3.319,2.606-2.749,3.297-4.307,6.694c-1.29,2.815-4.021,4.612-6.116,6.753c3.066-1.625,12.215-4.327,11.361-7.696
		c-0.721-2.844,1.156-3.921,2.781-6.183c2.213-3.062,0.889-3.552-0.888-6.573c-1.759-3.008-2.966-3.318-1.491-6.707
		c1.072-2.476,2.162-4.956,3.217-7.436c2.933-0.084,5.865-0.151,8.78-0.273c4.089-0.167,5.396,2.107,8.328,4.772
		C325.051,313.849,322.857,309.425,321.147,304.796"/>
</g>
</svg>
