<?xml version="1.0" encoding="utf-8"?>
<!-- Generator: Adobe Illustrator 17.0.2, SVG Export Plug-In . SVG Version: 6.00 Build 0)  -->
<!DOCTYPE svg PUBLIC "-//W3C//DTD SVG 1.1//EN" "http://www.w3.org/Graphics/SVG/1.1/DTD/svg11.dtd">
<svg version="1.1" id="Layer_1" xmlns="http://www.w3.org/2000/svg" xmlns:xlink="http://www.w3.org/1999/xlink" x="0px" y="0px"
	 width="800px" height="800px" viewBox="0 0 800 800" enable-background="new 0 0 800 800" xml:space="preserve">
<g>
	<g opacity="0.1">
		<g>
			<path d="M161.014,549.195c0.033-3.115,0.011-6.249,0.459-9.343c1.913-0.682,3.831-1.348,5.738-2.037
				c-0.421,1.469-0.82,2.937-1.213,4.415c2.279,0.038,5.126,1.509,3.694,3.892c-0.754,1.262-1.535,2.501-2.279,3.762
				C165.281,549.622,163.15,549.39,161.014,549.195"/>
			<path d="M137.527,554.159c9.093,3.072,18.831,0.945,27.651-1.966c0.18,2.538,0.432,5.07,0.727,7.603
				c-1.607,1.669-3.262,3.288-4.924,4.895c-3.749,3.619-7.552,7.216-10.83,11.265c1.994,0.121,3.994,0.261,5.994,0.374
				c-1.776,1.389-3.558,2.762-5.361,4.112c-0.257,0.704,0.328,2.377,0.432,3.139c2.558-1.198,5.038-2.585,7.711-3.56
				c3.213-1.161,7.432-0.342,10.842-0.331c3.694,0.025,7.394,0,11.093,0.014c3.197,0.016,4.372,2.951,3.858,5.945
				c-0.399,2.333-1.945,4.066-2.563,6.292c-0.825,2.952-1.76,5.881-2.891,8.734c-2.246,5.687-5.344,11.135-9.814,15.38
				c3.645,1.557,4.59,6.891-0.3,5.119c-1.962-0.71-4.197,2.754-5.634,4.149c-1.984,1.929-5.667,0.57-8.366,0.41
				c3.306,0.682,11.344,3.481,13.536,0.932c2.404-2.798,2.361-2.444,5.557-0.734c2.596,1.384,5.94,2.343,7.667,4.719
				c2.404,3.295,6.536,6.346,7.579,10.317c1.41,5.361,2.759,10.753,4.721,15.945c1.454,3.85,2.956,6.417,6.721,8.256
				c4.263,2.081,6.519,3.563,9.399,7.463c1.219,1.668,2.503,3.31,4.071,4.661c-0.481,1.656-0.404,3.378,0.148,5.008
				c1.251,3.665,4.257,6.339,6.208,9.594c-2.404-0.818-4.924-1.477-7.055-2.925c-2.262-1.531-5.809,0.232-8.465,0.977
				c2.831,0.055,5.661-0.014,8.492-0.083c2.486,1.638,4.743,3.632,6.678,5.904c1.934,2.273,3.557,4.817,4.825,7.522
				c-1.995,2.617-4.055,5.176-6.077,7.753c1.874,1.154,3.738,2.302,5.596,3.47c0.984-2.007,1.924-5.824,4.263-5.87
				c2.699-0.046,5.41-0.292,8.109-0.1c5.191,0.376,10.503,3.47,11.525,8.939c0.754,4.016,0.246,12.329-2.279,15.491
				c-2.153,2.701-4.131,5.556-5.771,8.611c-2.973-0.229-5.454,1.536-7.891,2.958c1.607-0.552,3.208-1.119,4.803-1.685
				c0.038,4.613-3.667,6.728-7.672,7.693c5.208,1.817,10.798,3.209,16.252,1.577c0.06,1.753,0.104,3.508,0.147,5.26
				c0.06,2.119-3.552,3.288-5.175,4.537c-2.355,1.791-3.612,3.428-6.328,4.746c-2.519,1.235-4.984,2.607-7.339,4.131
				c-2.251,1.45-5.164-0.281-7.913-0.342c-2.76-0.063-5.497,0.333-8.24,0.694c-5.372,0.69-9.366,0.536-14.334-1.549
				c1.962,1.594,4.088,2.974,6.18,4.393c-1.044,1.318-2.066,2.657-3.066,4.005c-2.716-2.249-4.596-5.022-8.175-4.548
				c-1.279,0.173-2.558,0.339-3.825,0.51c-0.093,1.262-0.175,2.519-0.246,3.776c-2.853-0.6-5.689-1.16-8.563-1.664
				c0.12,0.962,0.252,1.932,0.377,2.907c-2.197-1.709-4.421-3.343-6.716-4.9c-2.399-1.626-5.814,0.915-8.29,2.108
				c-3.202,1.546-3.355,1.706-3.492,5.075c-0.126,3.266-2.426,5.436-4.153,8.159c-3.35-3.093-5.82-4.512-10.536-4.735
				c-4.689-0.224-9.328,1.251-12.596,4.708c-0.311-0.872-0.617-1.758-0.924-2.635c0.153,3.098-0.53,6.205-2.218,8.828
				c-2.191-2.42-3.284-5.126-6.634-3.765c-1.164,0.474-2.437,0.926-3.683,0.381c-0.022-1.541,0.803-2.665,2.104-3.377
				c2.35-1.29,5.104-1.626,7.077-3.556c2.727-2.656,3.94-5.868,6.934-8.332c1.312-1.086,2.585-2.208,3.831-3.365
				c1.787-1.665,1.475-3.669,1.809-6.017c0.426-3.008,4.12-0.588,5.486-3.609c0.464-1.041,0.355-2.254,0.104-3.332
				c2.235-0.78,4.601-1.097,6.956-1.105c4.732-0.022,9.372,1.051,14.088,1.18c0.076-2.199-0.252-3.624,1.3-5.271
				c2.29-2.448,4.563-4.944,6.53-7.652c-2.683,1.734-5.546,2.927-8.224,4.595c-3.574,2.235-4.514,4.812-8.782,2.182
				c-1.251-0.771-2.361-1.742-3.372-2.802c-1.743-1.817-1.645-2.415-4.109-1.544c-2.547,0.904-5.317,1.615-6.738-1.368
				c1.59-0.193,3.175-0.38,4.77-0.571c-2.421-0.862-4.781-1.981-7.339-2.362c-3.131,1.205-6.12,2.732-9.24,3.956
				c-0.219-1.186-0.443-2.374-0.651-3.567c-1.361,0.193-2.727,0.363-4.082,0.553c1.426-1.411,2.825-2.844,4.29-4.217
				c-1.749-0.374-3.497-0.786-5.246-1.185c5.94-4.451,13.361-6.216,19.399-10.474c6.104-4.294,2.476-12.695,1.814-18.63
				c-3.519,1.503-7.082,2.993-10.825,3.898c2.607-3.104,5.743-5.694,8.541-8.616c-1.432-1.271-2.891-2.519-4.344-3.763
				c-1.962-1.672-1.191-2.037-0.459-4.266c1.399-4.307,6.738,1.357,8.415,2.294c2.792,1.571,6.519-0.373,9.475-0.823
				c2.016-0.305,4.093-0.325,5.94,0.693c2.082-0.196,4.186-0.23,6.284-0.196c-1.738-1.486-3.579-2.969-4.82-4.923
				c-2-3.134,0.694-4.862,2.945-7.114c-1.131-0.089-2.262-0.157-3.383-0.246c1.361-4.098,2.722-8.213,3.694-12.431
				c-2.098,1.254-4.115,2.608-6.088,4.044c-1.011-2.765-2.372-5.389-3.967-7.869c-0.94-1.484-1.962-2.914-3.033-4.306
				c0.41-1.051,0.765-2.116,1.12-3.183c1.437-4.209,3.333-8.928,8.355-9.542c-1.76-0.038-3.519-0.149-5.284-0.231
				c-2.323-0.11-2.585,0.846-4.366,2.179c-1.399,1.032-2.869,1.95-4.344,2.873c-2.372,1.49-4.017-0.847-6.153-2.31
				c-0.164,1.676-0.317,3.349-0.487,5.019c-3.634-0.859-6.082-3.961-9.339-5.567c0.322,2.268,0.661,4.531,1.027,6.794
				c-1.579-2.387-6.044-6.799-4.519-9.253c1.951-3.131,3.475-6.5,5.279-9.716c0.76-1.373,1.585-2.723,2.503-4.005
				c1.426-1.978,0.153-2.194-1.344-3.847c-1.426-1.574-2.361-1.915-2.235-4.112c0.126-2.118,0.273-4.245,0.459-6.359
				c1.377,0.119,2.749,0.246,4.115,0.387c-1.333-1.169-2.645-2.365-3.902-3.619c-0.617,3.587-1.809,7.03-2.481,10.602
				c-1.536-1.626-5.186-4.139-4.858-6.485c0.503-3.498,3.547-5.951,5.836-8.351c-1.339,0.908-2.7,1.769-4.099,2.571
				c-2.213,1.271-2.404,3.373-2.59,5.835c-0.115,1.503-1.405,10.366-0.787,10.786c0.809-1.728,1.628-3.465,2.454-5.19
				c3.289,1.342,2.574,5.732,3.317,8.511c-1.934-0.391-6.077-2.676-6.781-0.574c-1.219,3.653-1.273,3.846-5.077,4.422
				c1.006-3.816,1.705-7.801,1.104-11.74c0.694,0.066,1.377,0.127,2.065,0.198c-1.158-5.325-0.126-9.559,0.661-14.779
				c0.716-4.785,2.257-9.653,6.251-12.717c-3.289,1.769-8.169,4.372-7.038,8.409c0.776,2.779-10.612,2.897-12.792,2.44
				c1.983-1.154,3.962-2.329,5.94-3.486c-1.371-1.668-2.727-3.336-4.06-5.04c3.11-0.445,4.038,0.133,3.475-3.419
				c-0.579-3.716-2.246-7.186-5.017-9.761c3.328,0,5.224,2.908,7.11,5.208c-0.874-0.403-1.743-0.805-2.607-1.205
				c0.361,2.806,0.437,7.737,4.224,3.7c2.683-2.849,1.568-7.505,3.874-10.574c-1.814,1.731-3.629,3.456-5.437,5.19
				c0.443-1.441,0.858-2.899,1.3-4.34c-2.579,0.415-5.333-0.311-6.792-2.622c-0.639-0.987-0.967-2.134-1.088-3.302
				c-1.448-0.044-2.902-0.108-4.344-0.163c0.683-1.977,1.41-3.944,2.169-5.896c1.175,0.544,2.377,1.067,3.552,1.609
				c0.388-2.034,0.754-4.074,1.159-6.114c2.792,2.055,3.524,5.463,3.699,8.738c0.088,2.037,1.284,2.95,2.558,4.518
				c1.361,1.654,3.814-1.444,5.317-2.552c-1.323,0.141-2.634,0.314-3.956,0.482c0.18-1.787-1.18-3.451-0.809-5.238
				c0.197-1.003,1.126-1.444,2.033-1.645c-0.372-2.514-0.754-5.022-1.169-7.53c2.47-0.32,4.945-0.601,7.421-0.835
				c-0.421-1.417-0.831-2.829-1.257-4.246c1.022-0.608,1.3-1.736,1.388-2.825c0.175-2.042,0.306-3.665,2.874-2.993
				C135.1,559.769,135.598,557.605,137.527,554.159"/>
			<path d="M106.456,564.621c4.912-2.309,9.18-5.699,13.585-8.817c0.027,2.551,0.098,5.089,0.186,7.638
				c-1.525,0.566-2.71,1.687-3.169,3.277c-0.639,2.224,0.53,3.145-1.459,4.719c-2.235,1.753-4.497,3.47-6.776,5.163
				c-3.454,2.554-4.404,7.891-5.071,11.935c-0.366,2.194-0.601,4.402-0.858,6.601c-1.656,1.937-3.251,3.911-5.011,5.742
				c4.126-6.078,3.011-13.746,2.956-20.667c-1.568,1.154-3.137,2.299-4.7,3.459c2.617-2.787,5.781-4.865,8.508-7.492
				c1.825-1.767,3.459-2.43,2.656-5.017C106.658,569.046,106.385,566.828,106.456,564.621"/>
			<path d="M113.619,629.932c5.29-1.135,8.967-5.301,12.864-8.721c-3.388,5.813-4.721,13.906-11.344,17.14
				c0.317-1.795,0.617-3.589,0.929-5.387c-1.29,0.836-2.579,1.665-3.869,2.5C112.636,633.611,113.117,631.768,113.619,629.932"/>
			<path d="M117.248,647.479c-0.191-1.062-0.372-2.129-0.563-3.19c1.535,3.469,2.82,7.059,4.546,10.452
				c0.984,1.94,2.126,3.806,3.497,5.501c-1.093,1.723-2.312,3.366-3.432,5.075c1.415-0.929,2.841-1.852,4.257-2.789
				c1.251,1.105,2.115,2.606,2.547,4.206c0.798,3.018,0.011,6.672-2.858,8.318c-1.956,1.122-2.699,0.165-3.765,2.458
				c-0.497,1.081-1.006,2.156-1.535,3.223c-1.694-0.585-3.465-0.978-5.257-1.081c-1.186-0.068-2.361-0.014-3.53,0.176
				c-2.738,0.436-2.126-0.607-3.295-2.904c-1.371-2.683-2.945-5.243-4.421-7.868c-2.076,2.889-3.464,8.035-7.606,8.559
				c-4.465,0.563-9.415-7.289-11.246-10.764c2.322-0.16,4.661-0.312,6.984-0.474c-0.787-1.829-1.601-3.635-2.372-5.463
				c2.94,0.243,5.317-1.16,6.907-3.571c0.65-1.001,1.169-2.085,1.623-3.182c0.913-2.179,0.792-2.227,3.18-2.328
				c3.082-0.133,3.776-2.675,6.804-3.589C110.794,647.319,114.079,647.644,117.248,647.479 M111.756,661.697
				c-0.257,2.217-0.454,4.449-0.612,6.682c2.989-0.794,3.902-3.784,4.743-6.398C114.51,661.883,113.139,661.789,111.756,661.697"/>
			<path d="M139.281,682.237c-0.12-4.982,3.153-8.877,6.557-12.07C148.713,675.595,143.713,680.018,139.281,682.237z"/>
		</g>
		<path d="M102.032,634.42c3.364,0.476,4.506,4.115,7.205,5.67c0.949,0.545,1.102,0.438,1.409,1.523
			c-0.847,0.516-1.739,0.952-2.619,1.403c-1.75,0.898-3.523,1.889-4.705,3.513c-1.04,1.855-3.46,0.548-4.193,2.381
			c-0.79,1.991-2.08,3.591-2.455,5.754c-0.767,0.545-1.568,1.083-2.17,1.82c-1.017,1.25-0.915,1.27-2.693,1.479
			c-1.313,0.152-2.642,0.278-3.966,0.121c-1.358-0.162-1.472,0.284-2.46,1.176c1.568,0.969,3.153,1.925,4.761,2.832
			c-1.824,1.101-3.841,2.882-6.137,2.457c-1.426-0.268-1.278-0.94-2.159,0.401c-0.642,0.979-2.903,0.956-4.04,1.195
			c0.847,3.707,4.58,5.984,5.261,9.746c0.261,1.432,0.079,1.345,1.591,1.709c1.727,0.413,1.864,1.014,2.824,2.447
			c1.358,2.02,4.727,1.94,6.886,2.987c-0.102-0.749-0.205-1.494-0.318-2.24c0.483,0.212,0.972,0.413,1.46,0.612
			c0.432-2.006,4.71-2.994,1.881-5.094c1.494-1.055,2.631-2.669,4.358-3.4c2.154-0.909,2.881,1.872,3.29,3.561
			c0.409,1.668,0.483,4.527,2.239,5.267c1.171,0.49,2.506,0.344,2.097,1.759c-0.415,1.432-0.778,2.878-1.102,4.331
			c2.227-0.087,4.029-0.256,6.142,0.474c0.085-0.76,0.199-1.517,0.278-2.278c2.449,1.656,4.182,4.087,6.063,6.314
			c-2.329,0.69-4.403-0.55-6.023-2.136c-0.562,1.546-1.261,3.115-1.17,4.803c0.631,0.325,1.261,0.648,1.892,0.97
			c1.017,0.524,0.318,1.942,0.085,2.912c-0.517,2.092-0.824,3.964-0.102,6.058c0.637,1.844,2,3.302,2.915,4.998
			c-0.972,0.05-1.932,0.105-2.892,0.156c0.653,0.509,1.307,1.02,1.96,1.536c-0.932,0.047-1.858,0.109-2.79,0.156
			c1.222,1.314,2.307,2.737,3.375,4.173c-1.471-0.102-2.937-0.277-4.404-0.399c1.858,2.795,2.801,7.557,1.835,10.814
			c-0.489,1.617-1.114,3.388,0.006,4.905c-0.665,1.947-1.813,3.668-2.841,5.435c-0.438,0.759-0.864,1.524-1.216,2.33
			c-0.403,0.911-0.875,1.108-1.46,1.869c-1.068,1.4-1.148,3.244-0.92,4.92c-1.375,2.696-4.347,4.312-5.193,7.317
			c-0.841-0.307-1.682-0.623-2.523-0.929c0.517,1.372,1.602,2.456,2.176,3.808c0.284,0.679,0.438,1.464,0.068,2.15
			c-0.415,0.764-1.222,0.339-1.983,0.362c-1.21,0.035-2.625,0.321-3.762-0.232c-0.682-0.327-1.057-0.975-1.222-1.695
			c-1.114-0.091-2.227-0.149-3.341-0.184c0.398-0.781,0.79-1.561,1.188-2.342c-1.386,1.544-2.591,3.24-3.83,4.899
			c0.699-2.246-0.761-4.151-1.619-6.1c0.091,1.366,0.847,2.811,0.449,4.183c-0.443,1.528-2.42,1.558-3.699,1.842
			c0.193-0.507,0.386-1.013,0.585-1.514c-2.864,0.573-10.199-1.618-11.511,1.965c-0.608,1.652-1.989,2.865-3.665,3.354
			c-0.864,0.247-1.773,0.311-2.659,0.202c-0.182-0.673-0.352-1.352-0.534-2.027c-0.966,1.26-1.881,1.793-1.523,3.412
			c-2.545,0.214-4.466,2.447-7.017,2.621c-0.898,0.061-3.205-0.624-2.233-1.665c0.983-1.054,1.659-1.974,2.312-3.263
			c-1.153,0.746-2.312,1.467-3.494,2.165c0.04-0.888,0.079-1.777,0.131-2.666c-0.739,0.027-1.472,0.042-2.216,0.055
			c0.579,0.362,1.153,0.723,1.733,1.081c-0.352,0.521-2.017,2.463-0.642,2.767c1.551,0.344,0.472,2.379-0.693,2.825
			c-1.261,0.487-2.676,0.337-3.943,0.743c-1.375,0.433-0.631,2.634-0.801,3.645c-1.159-0.92-2.364-1.786-3.602-2.601
			c-0.443,1.082-0.869,2.17-1.312,3.253c-1.182-0.645-2.278-1.266-3.347-2.084c-0.449,0.776-0.904,1.548-1.347,2.325
			c-1.369-1.53-3.233-2.413-5.216-1.45c0.085-0.553,0.17-1.112,0.262-1.665c-0.545,0.679-1.091,1.354-1.642,2.031
			c-0.744,0.92-1.216,0.696-2.341,0.874c-1.784,0.284-3.523,0.771-5.296,1.121c0.954-0.499,1.926-0.967,2.909-1.411
			c-0.114-0.929-0.244-1.854-0.352-2.783c-1.796,0.429-3.591,0.865-5.387,1.31c0.114-0.857,0.256-1.713,0.421-2.564
			c0.721-0.507,1.432-1.026,2.148-1.533c-1.591,0.304-3.171,0.656-4.739,1.068c0.863,0.694,1.909,1.226,1.455,2.561
			c-0.517,1.547-2.836,1.855-4.216,1.743c0.523-0.898,1.034-1.81,1.659-2.646c0.688-0.923,0.273-1.663,0.063-2.773
			c2.915-1.047,5.961-1.665,8.921-2.566c-0.295-0.967-0.596-1.93-0.881-2.899c-0.909,0.675-1.824,1.328-2.744,1.986
			c-1.273,0.91-2.221-0.703-3.773-0.289c-3.182,0.855-6.171,1.756-9.455,1.946c0.415-1.089-0.886-0.835-1.636-0.92
			c1.477-0.364,2.972-0.615,4.472-0.855c-0.443-0.645-0.892-1.288-1.335-1.933c0.881-0.131,1.796-0.133,2.653-0.402
			c1.159-0.364,1.341-1.148,2.602-1.276c2.858-0.288,5.051-2.25,7.614-3.577c-1.193,0.274-2.386,0.539-3.585,0.772
			c-1.437,0.284-1.773,0.048-1.955,1.527c-1.903-1.666-4.386-0.129-6.523-0.029c0.21-0.954-0.687-1.154-1.369-1.562
			c-1.108-0.661,0.102-1.67,0.671-2.622c-1.318,0.603-2.636,1.209-3.955,1.805c-0.142-1.809-0.381-3.405-0.818-5.17
			c2.352-0.93,4.835-2.884,7.375-3.085c1.233-0.095,2.466-0.095,3.705-0.153c1.494-0.074,0.67-0.623,1.682-1.314
			c1.227-0.848,2.983-0.253,4.153-1.283c-2.744-0.203-5.517-0.074-8.233-0.586c-1.466-0.276-2.824-0.99-4.301-1.176
			c-1.42-0.18-2.852,0.008-4.278-0.06c0.608-1.578,1.091-3.371,2.608-4.341c0.011,0.707,0.034,1.415,0.057,2.122
			c0.426-2.601,3.335-2.702,5.318-3.451c-0.136,1.064-0.273,2.125-0.409,3.188c1.483-0.869,2.835-1.946,4.034-3.179
			c0.091,0.818,0.193,1.635,0.295,2.45c0.131,1.03,2.835,0.794,3.79,0.849c0.182-1.237,0.426-2.462,0.705-3.68
			c0.346-1.526-1.369-2.27-2.193-3.551c2.421,0.891,5.051,0.977,7.517,0.216c-0.721-1.192-1.449-1.83,0.239-2.56
			c1.13-0.486,2.375-0.104,3.42,0.394c0.381,0.388,0.796,0.467,1.25,0.232c0.835-0.202,1.08,0.28,1.83,0.618
			c1.023,0.457,2.142,0.589,3.256,0.496c2.324-0.202,4.488-1.223,6.716-1.832c3.102-0.849,4.932-0.098,7.778,1.108
			c-2.188-1.483-4.642-2.703-7.301-2.968c0.233-0.946,0.455-1.899,0.676-2.849c-1.756,0.031-2-0.077-2.994,1.474
			c-0.722,1.131-2.239,4.122-3.898,3.841c-0.687-0.115-1.25-0.635-1.75-1.068c-0.847-0.729-1.676-0.163-2.699-0.038
			c-2.381,0.291-2.784-2.433-3.477-4.153c0.188,3.94-7.352,3.716-9.727,3.93c1.699-1.036,3.432-2.017,5.148-3.023
			c1.432-0.848,2.693-2.036,4.136-2.807c0.579-0.314,1.227-0.484,1.886-0.455c1.085,0.038,1.097-0.413,1.739-1.293
			c1.182-1.625,2.352-3.27,3.704-4.757c-1.012,0.05-2.029,0.09-3.046,0.141c1.091-1.288,2.165-2.587,3.25-3.881
			c0.904-1.078,2.693-4.183,4.006-3.443c0.892,0.503,2.477,1.981,3.267,1.2c1.256-1.234,1.295-1.531,2.886-0.771
			c0.091-1.227,0.187-2.453,0.273-3.676c-3.136,0.156-6.284-0.019-9.398-0.413c-1.415-0.18-1.921-0.337-2.938-1.249
			c-1.699,0.082-3.403,0.047-5.102,0.03c0.284-0.967,1.273-1.175,2.045-1.79c1.137-0.892,2.176-1.956,3.528-2.517
			c-1.727-0.712-4.392-0.911-3.5,1.783c-1.688-0.495-3.301-1.202-4.949-1.8c0.909-0.905,1.835-1.778,2.79-2.631
			c-0.818-0.307-1.631-0.612-2.449-0.913c-0.023,0.631-0.034,1.258-0.051,1.888c-1.057-0.709-2.119-1.416-3.176-2.129
			c-1.057-0.327-2.182-0.683-2.875-1.608c1.102-0.29,3.301-0.259,3-1.582c-0.352-1.504-1.273-2.773-2.239-3.948
			c2.318-0.211,4.636,0.406,6.546,1.747c-0.642-0.993-1.29-1.989-1.943-2.973c2.358,0.706,5.034,0.81,6.977,2.49
			c-0.863-0.875-1.846-1.646-2.557-2.663c-0.966-1.391-0.403-2.622,0-4.149c-0.074-0.932,0.296-1.21,1.114-0.841
			c0.87,0.07,1.739,0.094,2.608,0.146c1.438,0.088,2.898,0.262,4.233,0.855c-0.409-1.926-0.091-2.051,1.273-3.321
			c-2.398-1.95-5.642-1.607-8.517-1.553c0.619-2.202,2.301-5.359,3.955-1.844c0.682-1.237-0.602-1.97-1.449-2.602
			c-0.79-0.59,0.114-2.649,0.312-3.558c-0.892,1.017-1.108,2.392-1.545,3.627c-0.426-0.469-0.858-0.933-1.29-1.406
			c0.915,1.963,0.398,4.045-0.671,5.82c-0.75-1.274-1.494-2.58-1.915-4.01c-0.437-1.519-2.875-1.352-4.358-1.852
			c2.676-1.254,5.864-1.547,8.494-0.01c-1-1.703-1.324-1.828-0.176-3.527c1.153-1.714,2.17-3.542,2.909-5.48
			c0.778,0.498,1.574,0.977,2.358,1.462c-0.858-1.226-1.722-2.447-2.506-3.72c4.097,0.838,7.96,2.713,12.176,2.954
			c0.625,0.517,1.239,1.038,1.858,1.556c0.886,0.74,0.466,1.096,0.131,2.109c0.421,0.851,0.824,1.717,1.233,2.574
			c-0.233,0.69-0.477,1.381-0.722,2.072c1.034-1.473,2.017-2.986,2.83-4.594c0.915-1.79,3.188-0.383,4.244,0.693
			c1.119,1.131,3.83,0.001,4.386,1.422c0.449,1.145,1.045,2.327,2.312,2.719c-0.523-1.117-1.074-2.219-1.654-3.307
			c1,0.074,2,0.146,2.994,0.222c-0.023-0.74-0.051-1.489-0.074-2.232c-1.335,0.056-2.614-0.374-3.608-1.283
			c2.835-1.292,5.568-2.537,8.546-3.402c0.534-0.156,1.062-0.323,1.591-0.508c1.08-0.371,0.903-0.814,1.489-1.703
			c0.869-1.321,2.153-2.297,3.483-3.112c-1.438,0-2.926,0.124-4.222,0.798c-0.432-1.521-4.46-1.473-5.801-1.554
			c-2.261-0.146-3.841-2.095-5.341-3.55c2.171-1.947,4.932-3.398,7.932-2.874c-0.182-0.957-0.358-1.919-0.545-2.882
			c0.989,0.268,1.972,0.54,2.96,0.807c0.852,0.232,1.517-0.731,2.17-1.268c-0.761-0.388-1.528-0.764-2.295-1.135
			c0.045-0.588,0.085-1.179,0.131-1.767c0.119-1.642-0.983-1.355-2.466-1.662c0.301-0.624,0.597-1.246,0.892-1.871
			c0.972,0.619,1.864,1.355,2.807,2.008c-0.045-0.565-0.097-1.133-0.148-1.7c1.505-0.019,2.801-0.709,3.591-2.001
			c-0.784-0.06-1.562-0.111-2.346-0.173c1.006-0.524,2.023-1.065,3.119-1.381c1.619-0.469,1.659-0.176,2.136-1.828
			c-0.063,0.937-0.113,1.875-0.176,2.811c0.835-0.421,1.676-0.835,2.523-1.234c1.244-0.595,1.733-1.732,2.54-2.821
			c-0.17,0.98-0.335,1.965-0.5,2.948c0.972-0.089,1.409-0.46,1.824,0.483c0.364,0.82,0.938,1.524,1.665,2.056
			c-0.256-0.835-0.5-1.676-0.75-2.513c-0.295-1.018,1.472-1.821,2.25-2.396c-0.347,0.909-0.693,1.818-1.04,2.721
			c2.142,0.436,2.142,2.624,2.267,4.379c0.21-0.986,0.398-1.979,0.625-2.965c-0.676-0.892-1.341-1.791-2-2.696
			c1.403-0.643,2.818-1.266,4.25-1.838c-0.233,1.295-0.454,2.596-0.744,3.883c0.477,1.199,1.778,2.906,0.682,3.768
			c-1.125,0.883-0.932,1.118-1.46,2.27c-0.438,0.955-1.364,1.564-2.074,2.29c1.04-0.551,4.142-1.467,3.852-2.609
			c-0.244-0.964,0.392-1.329,0.943-2.097c0.75-1.038,0.301-1.204-0.301-2.229c-0.596-1.02-1.006-1.125-0.506-2.274
			c0.364-0.84,0.733-1.681,1.091-2.521c0.994-0.029,1.989-0.051,2.977-0.093c1.386-0.057,1.83,0.714,2.824,1.618
			C103.355,637.49,102.611,635.99,102.032,634.42"/>
	</g>
	<g opacity="0.1">
		<path d="M648.243,19.821c-0.962-3.41-0.834-8.838,2.137-11.329c1.411-1.218,3.206-0.908,4.66,0.043
			c3.291,2.127,1.218,3.73,0,6.712c-5.151,12.61-7.14,25.5-7.268,39.158c4.297-8.336,7.331-17.228,10.282-26.108
			c1.645-4.949,2.095-15.464,9.276-13.135c-0.278,7.769-0.235,15.528-0.299,23.287c2.265-3.537,4.531-7.107,6.861-10.612
			c0.022-4.745-0.128-9.468-0.193-14.193c-0.085-5.515,4.96-6.957,9.576-9.233c2.779,1.987,5.558,3.997,8.315,6.006
			c-2.501,3.227-5.001,6.497-7.524,9.726c2.373,4.147,4.574,8.399,6.99,12.525c0.556-5.728,0.877-11.478,1.795-17.164
			c0.984-6.027,6.391-3.248,10.73-1.411c4.382,1.881,9.255,2.02,13.146,4.435c4.745,2.939,9.448,5.867,14.128,8.881
			c-4.767,4.884-9.148,10.154-12.975,15.839c-6.989-0.577-13.979-1.325-20.989-1.539c7.139,3.109,14.534,5.663,21.759,8.614
			c-0.834,1.752-1.646,3.505-2.502,5.257c1.305,0.086,2.587,0.172,3.87,0.257c-0.278-2.137-0.578-4.275-0.856-6.413
			c8.508,0.385,17.185,2.565,16.801,12.847c-3.612-0.951-7.225-1.946-10.858-2.907c-1.005,5.172-4.189,9.426-7.524,13.326
			c-2.393,2.811-0.727,15.058-5.942,14.802c-6.134-0.321-3.611-7.097-2.479-10.986c1.581-5.451,4.061-7.631,0.919-12.59
			c-4.81-7.609-16.971-10.174-23.748-16.993c-2.927,3.206-5.215,7.427-9.468,8.144c-2.801,0.48-5.344,1.859-7.268,3.922
			c-4.488,4.798-5.728,12.054-6.069,18.371c-0.32,6.497,1.303,13.102,0.598,19.493c-0.384,3.474-2.095,6.391-5.087,8.272
			c-0.577,3.698-1.09,7.427-1.603,11.157c-4.018-1.881-8.058-3.761-12.055-5.685c-6.347-3.046-6.112-2.758-10.451,2.404
			c-3.463,4.093-4.639,3.11-9.982,2.415c-7.887-1.005-8.122-2.682-11.799-9.511c-1.837-3.388-10.152-20.551-15.582-12.985
			c-1.453,2.03-1.817,4.862-1.752,7.288c0.063,3.292-8.828,2.779-12.098,3.227c2.501,4.98,2.565,10.601,0.897,15.839
			c-1.475,4.638-0.791,8.784-0.406,13.669c-9.105-1.892-18.125-4.115-27.209-6.145c-7.546,6.06-17.591,3.035-26.355,4.51
			c0.193-3.036,0.406-6.06,0.619-9.084c0.235-3.548,7.268-2.671,10.495-2.971c-0.877-1.101-1.133-2.757-2.074-3.804
			c6.969,2.223,5.151-2.245,4.895-6.947c-0.193-3.57,3.442-6.295,5.216-9.073c3.057-4.756,5.386-9.95,7.053-15.336
			c-5.237-0.171-7.118,5.312-7.759,9.576c-0.641,4.275,0.684,5.119-3.526,7.438c-4.169,2.287-8.315,4.574-12.569,6.69
			c1.731-5.941,3.484-11.906,5.857-17.634c2.693-6.487,3.057-6.733,9.576-6.348c7.309,0.406,12.953-18.104,10.858-24.003
			c2.65-0.482,5.3-0.941,7.951-1.368c-0.278-1.176-0.556-2.363-0.833-3.538c4.317,0.289,8.614,0.61,12.909,1.037
			c-2.223,6.583-4.467,13.166-6.711,19.739c7.053-5.034,10.024-6.851,18.596-7.748c-3.42-4.104-6.862-8.144-10.302-12.205
			c2.351-0.919,4.702-1.817,7.053-2.714c0.363,8.507,6.754,11.211,14.471,9.939c-2.074-2.672-4.189-5.323-6.306-7.972
			c-2.693-3.388,2.48-8.037,5.921-6.626c4.018,1.667,8.4,1.709,11.798-1.336c3.099-2.747,2.074-6.658,2.074-10.505
			c-4.51,4.147-10.004,5.643-11.542-1.774c7.032-1.881,13.359-5.675,19.173-9.983c-1.305,2.213-2.63,4.425-3.913,6.648
			c-3.014,5.14-1.709,4.766,2.758,8.592c1.561-4.254,3.185-8.486,4.745-12.738c3.185,2.201,6.306,4.445,9.448,6.69
			c-0.941-3.89-1.903-7.759-2.865-11.628c1.411,0.608,3.271,0.139,4.702,0.716c-0.213-4.467-0.406-8.945-0.556-13.413
			c1.134,2.491,2.266,4.98,3.399,7.46C642.749,20.313,644.908,19.501,648.243,19.821"/>
		<path d="M510.4,129.664c2.885-7.609,3.975-16.074,8.87-22.796c0.428,5.963,0.897,11.915,1.325,17.88
			c2.223-6.103,4.51-12.195,6.84-18.276c5.536,7.738,1.347,15.861-2.351,23.298c-2.929,5.814-13.316,6.862-19.344,8.443
			c-6.947,1.807-13.979,3.623-20.391,6.947c-3.27,1.7-12.162,11.179-14.556,9.426c4.81-5.985,9.661-12.46,16.565-16.169
			C494.24,134.719,502.961,132.432,510.4,129.664"/>
		<path d="M527.67,133.19c6.412,0.129,12.825-0.961,19.237-0.192c3.206,0.384,6.326,1.261,9.127,2.875
			c-1.689,4.862-3.377,9.715-5.109,14.566c-2.886-1.678-5.75-3.377-8.614-5.044c-3.078,2.148-5.579,5.001-7.588,8.122
			c-4.061,6.305-6.369,13.53-10.345,19.878c8.977,12.012-2.886,22.946-8.4,33.322c-2.393,4.521-1.539,12.247-4.937,15.71
			c-1.818,1.839-4.425,2.661-6.84,3.292c-6.348,1.668-5.386,1.561-5.045,8.315c0.962,19.429-6.048,38.388-16.672,54.418
			c6.369,2.565,8.849,8.369,8.015,14.93c-0.406,3.174-1.389,6.263-2.586,9.212c-4.404-1.229-8.871-2.298-13.381-3.216
			c-7.374-1.497-13.209,6.84-16.479,12.738c-2.886,5.237-9.533,16.886-7.353,22.582c3.185,8.25-0.449,17.537,0.983,26.579
			c0.812,5.001,3.057,9.053,1.924,14.054c-1.09,4.734-2.265,9.468-2.714,14.31c-0.621,6.914,7.993,11.542,10.58,17.933
			c1.281,3.142,1.389,6.519,0.256,9.725c-1.561,4.382-6.99,4.083-11.136,5.108c2.565,7.268,4.831,14.771,5.258,22.508
			c0.321,6.049-0.897,20.262-8.187,21.984c-3.591,0.844-5.921,0.288-7.053,4.114c-1.346,4.628-1.731,9.47-2.073,14.257
			c-0.62,8.507-1.305,17.526-7.075,24.303c-1.325-3.655-1.924-9.383-5.622-10.506c-3.848-1.175-6.797-4.05-8.571-7.587
			c-3.719-7.342-3.292-18.393,2.992-24.293c-4.425,0.962-5.515-2.607-6.519,3.474c-0.875,5.247-0.962,10.591-1.838,15.839
			c-0.706,4.243-1.924,8.603-4.702,11.98c-1.411,1.731-3.185,3.099-5.173,4.083c-3.398,1.698-4.553-1.283-6.946-3.612
			c-7.631,11.83-19.601,23.372-31.485,31.196c-5.857,3.847-14.386,7.085-21.396,5.333c-3.804-0.941-7.267-2.843-10.836-4.35
			c-3.783-1.613-2.137-2.661-0.834-6.145c-9.511-2.458-20.968-10.046-22.571-20.499c-0.384-2.393-0.106-4.831,0.706-7.117
			c1.346-3.72,4.403-2.672,7.93-2.908c3.463-0.213,2.415-4.723,2.693-7.812c-2.287,1.229-4.595,2.447-6.904,3.644
			c3.633-4.574,7.268-9.149,10.901-13.733c-8.122,2.287-13.658,3.366-19.921,8.977c-1.047-6.017,2.821-12.686,2.714-19.279
			c-0.106-7.748-2.243-9.694,5.515-10.527c-1.453-2.63-2.928-5.29-4.36-7.974c4.36,0.589,8.742,1.134,13.103,1.689
			c-2.33-3.163-5.386-5.76-8.977-7.417c-5.622-2.586-5.664-1.561-6.263-7.855c1.197,0.769,2.929,0.706,4.104,1.464
			c-0.278-5.226-0.32-10.452-0.299-15.689c0-2.607,0.021-5.226,0.063-7.844c2.095-2.137,3.356-4.862,3.848-7.791
			c0.962-5.546-0.385-8.1,3.12-12.749c2.715-3.613-2.009-11.735-3.548-15.86c6.498-1.069,9.448-5.783,7.609-12.098
			c7.118,1.079,11.948-4.425,16.395-8.999c0.469,5.023,4.403,4.831,8.357,4.361c6.071-0.717,8.849,2.714,14.065,4.745
			c-5.878-5.066-14.15-8.005-17.485-15.561c8.658,0.107,17.229,1.646,25.757,3.12c-4.126-3.708-9.064-6.327-14.428-7.694
			c5.066-5.237,11.35-9.201,18.169-11.756c0,2.693,0.043,5.386,0.043,8.08c0.918,0.213,2.757,0.15,3.654-0.15
			c-0.684-2.393-1.368-4.788-2.03-7.181c6.627,0.512,12.376,3.355,11.65,10.944c2.329-2.074,4.616-2.159,2.308-4.98
			c-2.245-2.779-4.51-5.536-6.754-8.326c4.232,0.567,8.443,1.058,12.654,1.636c-2.287-2.181-4.554-4.404-6.862-6.606
			c1.987-0.727,14.834-4.2,14.577-5.535c-0.256-1.453-14.086,0.877-16.244,1.133c4.701-5.279,6.156-11.841,11.734-16.02
			c-0.449,2.811-0.897,5.622-1.325,8.432c4.852,0.417,9.683,2.63,14.257,4.147c0.962-4.851,1.88-9.704,2.842-14.555
			c0.3,3.377,0.641,6.743,0.984,10.11c0.427,4.211,8.806,5.91,12.482,7.566c-5.151-5.023-8.784-11.318-12.119-17.634
			c4.488,2.223,3.847-1.347,5.109-4.553c1.624-4.126,4.339-7.674,7.459-10.773c6.284-6.198,14-10.977,21.161-16.074
			c-4.98-3.526-10.26-6.647-15.133-10.345c5.942,1.325,11.692,3.335,17.377,5.472c-0.107-4.841-2.458-10.419,3.12-10.601
			c6.754-0.246,13.531-0.706,20.135-2.266c-3.27-0.427-6.541-0.79-9.789-1.186c4.338-3.665,4.189-8.282,2.992-13.38
			c-1.347-5.557,2.48-11.852,1.261-18.158c2.052,1.047,4.104,2.095,6.178,3.099c0.213-4.445,0.427-8.914,0.619-13.381
			c3.121,1.304,6.263,2.608,9.405,3.88c3.676,1.507,7.225-4.349,9.917-6.914c-2.351,1.197-4.681,2.458-7.011,3.655
			c-4.595-1.027-9.212-2.009-13.829-2.907c3.527-6.893,7.396-13.616,11.329-20.285c1.411-2.436,2.864-4.82,4.317-7.224
			c2.437-3.954,2.437-3.933,7.054-3.057c0.021-5.216,4.638-9.876,6.903-14.343c3.399-6.583,5.6-13.786,4.574-21.246
			c2.48,0.139,4.959,0.257,7.417,0.353c-2.436-7.021,4.895-9.929,8.849-14.033c0.727,6.199,2.608,12.163,4.724,17.998
			c0.063-4.906,0.171-9.811,0.256-14.727c0.877-0.877,5.109-0.652,6.434-0.823c-3.078-0.482-6.156-0.908-9.234-1.401
			C525.404,137.508,526.537,135.349,527.67,133.19"/>
		<path d="M458.651,253.55c7.802-0.428-0.363,12.301-1.774,3.185L458.651,253.55z"/>
		<path d="M376.51,328.798c5.087-1.422,6.947,0.33,5.622,5.29C377.087,335.414,375.228,333.661,376.51,328.798z"/>
	</g>
	<g opacity="0.1">
		<path d="M584.558,114.129c2.155-0.159,4.309-0.327,6.442-0.518c3.306-0.271,4.479,4.728,6.411,7.291
			c4.055,5.381,9.343,9.755,15.246,12.972c2.567,1.388,5.216,2.561,7.952,3.53c5.129,1.792,6.178,2.577,9.546,6.98
			c2.059,2.68,4.183,5.284,6.37,7.825c2.958,3.402,1.745,4.004,0.375,7.936c1.651,7.109,5.03,14.147,5.38,21.379
			c0.372,7.189,4.55,11.481,5.602,18.049c1.117,6.888-4.421,14.378-1.13,20.553c3.462,6.493,8.203,12.319,10.834,19.264
			c-7.956,0.674-15.993,2.308-22.888,6.519c0.334-1.665,0.647-3.331,0.982-4.997c-2.815,0.247-5.631,0.472-8.468,0.676
			c0.398,3.455,0.797,6.921,1.196,10.386c-4.852,3.37-9.723,6.74-14.789,9.802c1.65,1.583,3.299,3.165,4.971,4.737
			c-1.267,3.088-2.728,6.06-4.101,9.075c-1.375,3.046-2.62,6.156-3.374,9.403c1.719,3.055,3.567,6.023,5.52,8.916
			c3.113,4.66-3.451,11.366-5.627,16.71c-3.167,7.748-4.598,12.736-11.296,18.141c-9.357,7.529-19.486,14.015-26.636,23.861
			c-6.852,9.427-10.043,21.966-20.32,28.559c-1.353-1.904-2.662-3.851-3.951-5.797c2.953,7.071,5.486,10.88,3.576,18.441
			c-0.819,3.236-1.658,6.483-2.455,9.719c1.65,1.604,3.32,3.219,4.948,4.844c-6.967,2.355-7.672,2.166-7.511,10.103
			c0.113,6.476,0.887,12.916,1.767,19.324c0.373,2.57,0.726,5.139,1.078,7.72c0.727,5.33,2.153,4.386,6.959,5.827
			c6.409,1.947,7.139,3.138,10.386,8.844c0.828-0.858,2.385-1.013,3.192-1.871c4.515,7.93,10.837,14.465,15.138,22.501
			c-6.053,6.576-9.774,14.838-7.261,23.81c-2.05-0.439-4.1-0.879-6.151-1.34c-0.691,3.215-3.378,8.635-0.532,10.649
			c-9.233,1.447-17.105,6.74-24.529,12.116c-3.85,2.791-5.451,2.626-3.469,7.057c1.2,1.275,0.948,2.087-0.758,2.435
			c-3.661,2.096-3.049,0.643-1.919,5.246c1.171,4.678,0.125,9.505-1.116,14.034c-1.449,5.372-0.084,10.466-0.167,15.982
			c-0.084,5.548-2.861,9.976-3.201,15.29c-0.36,5.506-0.87,11.035-0.528,16.57c5.492-8.206,7.691-18.179,13.503-26.184
			c-3.153,16.294-9.702,31.726-12.835,48.03c-0.919-5.597-1.455-11.27-2.61-16.845c-3.949-0.314-5.212,3.958-5.903,7.034
			c-0.817,3.652-0.904,8.155-3.111,11.321c-5.422-0.553-10.741-2.078-16.224-2.044c-6.465,0.027-9.738,3.241-14.48,7.037
			c-2.68,2.146-5.272,4.396-7.695,6.808c1.313,2.8,2.201,5.805,2.576,8.875c0.532,4.607,1.37,5.948-3.664,6.481
			c-3.668,0.378-7.336,0.714-11.005,1.134c-6.803,0.798-10.818-0.018-17.376-1.837c1.036-2.234,2.072-4.478,3.151-6.702
			c2.179-4.489,0.489-5.592-1.62-9.904c-2.691-5.483-5.487-10.912-8.433-16.277c2.71-0.011,5.377,0.02,8.087,0.009
			c-1.631-2.02-3.26-4.019-4.89-6.017c2.426-1.291,4.854-2.559,7.302-3.818c-6.485-9.787-12.566-19.972-16.645-31.028
			c-2.051-5.592-3.356-11.412-5.044-17.135c-1.017-3.43-2.056-6.84-3.116-10.249c2.044-0.969,4.046-2.002,6.09-2.96
			c-2.986,0.066-5.974,0.121-8.961,0.176c5.386-8.066-1.878-10.149-2.632-17.037c-0.909-8.254-3.379-17.312,0.321-25.254
			c1.829,3.736,4.786,6.721,8.634,8.348c2.379-7.68,4.428-12.777,2.325-20.525c-1.3-4.752-0.089-6.123,2.196-10.571
			c2.582-5.014,3.433-5.497,7.796-8.386c14.767-9.782,6.346-28.48,2.728-41.331c5.906-1.113,10.22-5.259,13.036-10.382
			c2.795-5.111-8.054-12.725-10.762-17.195c-3.051-5.002,0.755-18.14,0.601-24.444c-0.234-9.867-1.384-19.699-1.277-29.558
			c0.1-11.714,5.178-37.318,20.365-38.748c3.156-0.302,6.295,0.4,9.328,0.995c6.577,1.284,6.254,0.753,6.975-5.63
			c0.392-3.319,2.395-8.822-0.749-10.633c-2.673-1.558-5.368-3.114-8.042-4.671c10.191-12.205,16.975-27.447,18.189-43.369
			c0.242-3.18,0.272-6.391,0.045-9.58c-0.297-4.587-2.096-6.414,2.912-7.598c7.589-1.792,9.141-2.929,10.71-10.489
			c1.464-7.058,5.514-13.168,9.607-18.966c2.122-3.018,5.884-6.512,5.525-10.5c-0.358-3.989-3.231-7.114-4.355-10.864
			c4.388-6.9,7.322-14.615,11.795-21.473c1.653-2.524,4.36-8.297,7.314-5.962c2.398,1.889,4.775,3.777,7.151,5.699
			c4.064-7.731,2.427-16.558,2.307-24.857c9.902,0.492,19.347,3.823,28.537,7.262C584.661,133.343,587.479,123.569,584.558,114.129
			 M468.935,500.997c1.114,6.108,2.398,12.184,3.491,18.303c-3.493-3.399-6.942-6.862-10.392-10.305
			c-2.027,4.98-4.972,9.9-5.013,15.469c-0.063,5.398-2.821,9.101-5.468,13.956c4.834-2.346,9.431-5.204,13.684-8.486
			c4.041-3.089,8.248-2.253,12.892-3.98c11.185-4.186,6.78-16.597,8.855-25.385C480.968,500.627,474.951,500.758,468.935,500.997
			 M487.879,561.472c4.176-6.536,7.326-13.633,10.925-20.487c1.524-2.94,3.133-5.827,4.935-8.609
			c0.197-4.162,0.37-8.334,0.567-12.496C494.774,531.539,487.644,546.12,487.879,561.472"/>
		<path d="M578.841,556.514c5.051-1.526,9.907-3.563,14.655-5.844c-3.219,5.828-9.809,11.573-9.117,18.825
			c0.221,1.92,0.89,3.656,2.007,5.241c-1.529,1.916-2.992,3.885-4.371,5.875c-3.5,5.05-6.614,10.334-9.471,15.744
			c-0.458-7.381-1.427-14.695-2.546-21.998C569.03,567.992,575.234,561.714,578.841,556.514"/>
	</g>
	<g opacity="0.1">
		<path d="M682.038,74.556c2.944-2.945,5.974-5.802,9.123-8.521c2.569,4.883,7.087,8.03,11.768,10.681
			c3.72,2.119,9.824,4.051,10.702,8.833c1.322,7.039-8.554,13.944-1.845,20.353c-2.196,1.778-4.427,3.506-6.657,5.24
			c3.072,1.221,6.404,1.197,5.499,4.721c-1.13,4.405-1.959,9.082-1.133,13.612c1.742,9.388,11.052,10.294,17.254,16.213
			c2.68,2.553,5.014,5.46,7.065,8.546c2.902,4.381,1.702,6.922-0.456,11.541c-3.143,6.722-7.825,13.684-6.523,21.463
			c5.298,8.273,10.642,16.527,15.36,25.134c2.149,3.919,4.163,7.911,5.983,11.997c1.064,2.408,2.925,4.068,0.729,5.854
			c-1.258,1.019-2.229,2.334-2.908,3.791c-2.483,5.229-1.667,12.767,2.852,16.709c-1.194,3.024-4.732,6.731-1.95,9.977
			c3.371,2.825,7.841,3.787,11.391,6.318c-3.316,3.363-2.727,7.842-0.933,11.805c2.196,1.166,4.363,2.364,6.53,3.572
			c3.031,1.676,2.819,3.726,3.608,6.989c0.915,3.674-3.866,9.397-5.742,12.662c-1.751,3.06-0.625,2.923,1.884,4.898
			c2.192,1.711,4.51,3.241,6.87,4.705c7.605,4.756,15.854,9.157,20.86,16.901c0.566,9.497-3.014,18.373-7.426,26.59
			c-9.311,17.346-17.281,35.115-28.962,51.06c-5.988,8.187-12.22,16.237-17.433,24.946c-4.422,0.032-9.827-1.129-13.616,1.181
			c-4.638,2.813-9.914,4.245-15.075,5.76c0.498,0.583,0.527,1.547,1.027,2.146c-5.759,2.42-11.696,4.37-17.552,6.564
			c-3.344,1.246-6.667,2.57-9.878,4.102c-1.078,1.737-2.12,3.517-3.181,5.269c-1.249-0.812-2.483-1.649-3.715-2.447
			c-2.363,1.239-4.746,2.433-7.129,3.611c-5.592,2.757-11.208,5.415-16.694,8.334c-0.624-2.576-1.235-5.167-1.861-7.751
			c2.114,1.32,4.229,2.648,6.33,3.985c-1.12-2.918-3.152-5.366-6.083-6.575c-3.285-1.352-0.491-7.961,0.246-11.236
			c-3.969,2.612-3.685,3.244-3.049,8.117c0.241,1.866,0.498,3.73,0.802,5.592c-1.845,0.317-3.673,0.634-5.516,0.967
			c-4.869,0.869-4.394-1.591-6.215-5.88c1.303,0.318,2.622,0.642,3.925,0.967c0.04-2.247,0.109-4.511,0.149-6.766
			c-4.284,3.347-7.743,7.664-13.102,7.668c-3.505-0.003-8.416,0.745-10.223-3.178c2.339-1.159,4.715-2.228,7.098-3.227
			c0.119,1.501,0.223,3.005,0.342,4.506c3.621-0.497,7.21-1.795,9.632-4.666c2.221-2.646-1.487-3.427-3.552-4.914
			c-3.142-2.298-3.357-5.195-4.561-8.791c0.272,5.985-0.944,5.388-6.426,7.762c0.406-1.762,0.81-3.53,1.217-5.284
			c-1.512,0.775-3.04,1.55-4.553,2.309c2.784-8.322-1.112-17.563,3.159-25.582c1.912-9.281,1.588-19.459-2.603-28.101
			c-1.785-3.644,0.208-8.375-1.118-12.734c-1.28-4.152-3.367-8.076-4.022-12.409c-0.615-4.219,2.577-7.386,4.205-11.02
			c0.836-1.843,1.271-3.824,0.986-5.843c1.837-0.215,3.66-0.407,5.481-0.621c-3.293-2.037-6.952-3.383-10.748-4.117
			c0.693-2.657,1.451-5.272,2.161-7.914c1.459,4.643,2.217,5.962,6.068,8.741c0.091-1.409,0.196-2.835,0.286-4.245
			c2.973,0.948,5.916,1.914,8.874,2.864c-1.523-2.504-3.031-5.026-4.555-7.538c2.797,1.679,5.595,3.358,8.406,5.02
			c-0.951-2.37-1.904-4.756-2.855-7.126c2.537-3.177,4.675-6.665,6.635-10.232c1.893-3.437,5.26-4.398,8.197-6.851
			c2.995-2.512,4.814-6.489,6.844-9.758c4.516-7.291,8.913-14.712,12.177-22.675c2.427-5.926,7.277-10.969,14.137-7.384
			c-0.596-3.98-0.821-8.191-3.076-11.674c0.182-4.579,0.318-9.162,0.375-13.74c-3.525-1.621-7.021-3.276-10.561-4.895
			c-1.998-1.431-4.164-2.615-6.382-3.67c-2.964-1.416-2.658-2.671-4.097-5.501c-1.812-3.604-4.147-6.915-6.02-10.49
			c-2.604-4.935-1.453-8.882-0.265-14.14c0.802-3.452,3.079-8.33,0.965-11.403c-2.24-3.296-5.419-6.65-5.734-10.824
			c-0.249-3.532,2.935-6.2,0.072-9.306c-3.256-3.535-3.035-5.47-3.131-10.415c-0.074-3.881,1.585-9.076-0.817-12.064
			c-2.643-3.28-4.856-6.812-7.468-10.095c-4.71-5.959-13.221-6.811-19.154-11.49c-6.332-4.997-11.315-11.457-16.448-17.632
			c2.357,0.055,4.716,0.141,7.072,0.195c-1.644-3.25-0.648-10.931,4.418-10.305c5.885,0.733,10.436,12.352,12.566,17.013
			c2.094,4.601,2.236,4.816,7.204,5.964c4.873,1.133,7.486,2.063,11.27-1.493c1.074-1.005,2.096-2.052,3.102-3.113
			c2.359-2.485,3.098-0.628,5.743,0.9c3.557,2.031,7.158,4.02,10.648,6.182c0.68-4.985,3.082-9.468,6.385-13.203
			c2.988-3.377,2.814-3.604,2.434-8.201c-0.273-3.437-0.343-6.875-0.226-10.312C667.182,90.16,669.489,71.126,682.038,74.556"/>
		<path d="M665.271,263.894c4.188-1.813,5.718-0.594,4.591,3.67C665.612,269.366,664.097,268.131,665.271,263.894z"/>
		<path d="M591.008,443.475c3.752,2.32,7.49,4.671,11.033,7.304c-3.013,0.316-6.038,0.673-9.052,0.983
			c2.786,2.708,5.44,5.535,7.949,8.483c-5.584-2.05-11-4.533-16.561-6.678c2.427-2.592,5.761-3.963,9.296-3.993
			C592.78,447.548,591.887,445.508,591.008,443.475"/>
	</g>
</g>
</svg>
