<?xml version="1.0" encoding="utf-8"?>
<!-- Generator: Adobe Illustrator 17.0.2, SVG Export Plug-In . SVG Version: 6.00 Build 0)  -->
<!DOCTYPE svg PUBLIC "-//W3C//DTD SVG 1.1//EN" "http://www.w3.org/Graphics/SVG/1.1/DTD/svg11.dtd">
<svg version="1.1" id="Layer_1" xmlns="http://www.w3.org/2000/svg" xmlns:xlink="http://www.w3.org/1999/xlink" x="0px" y="0px"
	 width="1013px" height="938px" viewBox="0 0 1013 938" enable-background="new 0 0 1013 938" xml:space="preserve">
<polyline id="XMLID_37_" fill="#EAEAEA" points="723.374,802.753 721.329,802.951 718.654,797.256 702.512,797.918 695.89,802.113 
	691.916,800.788 684.631,807.19 682.203,805.645 678.892,809.177 683.086,811.826 682.865,814.696 685.956,814.254 690.592,816.462 
	694.124,819.994 690.812,820.214 687.943,817.786 683.748,816.462 680.437,817.345 681.762,819.111 686.329,822.951 
	686.329,826.396 680.182,821.539 676.464,819.994 674.035,821.318 670.945,820.435 663.881,818.007 665.205,813.371 663.439,812.93 
	661.894,816.462 660.128,818.448 661.452,820.435 660.349,824.85 662.777,829.486 667.413,832.356 668.516,837.654 674.256,840.745 
	678.45,846.705 675.139,846.484 670.724,844.056 668.516,846.705 672.49,848.912 673.152,853.107 678.23,849.575 680.658,852.003 
	684.852,854.873 689.267,855.314 694.345,853.99 696.773,859.95 700.967,865.469 705.382,865.91 703.829,870.451 701.629,870.451 
	698.318,866.415 693.682,862.378 687.943,864.807 695.007,866.131 694.124,868.78 697.329,875.951 697.329,878.714 696.278,879.597 
	687.943,874.299 683.748,875.182 682.203,874.299 676.243,876.065 679.554,879.376 679.775,883.129 683.528,885.116 684.19,882.025 
	687.943,885.337 684.411,887.544 683.086,891.518 672.49,886.44 676.905,893.946 683.086,903.218 681.762,906.529 685.735,910.944 
	679.996,908.295 677.126,904.984 673.815,904.321 671.828,914.035 664.543,902.997 662.777,900.789 660.128,902.114 
	659.466,908.295 655.492,906.75 655.271,903.438 651.739,901.231 653.726,894.608 648.869,888.869 645.558,888.427 644.675,885.778 
	641.329,884.951 641.329,882.688 645.329,877.951 645.329,874.961 649.748,876.286 651.298,871.65 650.635,870.105 647.324,872.091 
	644.234,870.546 640.922,873.416 636.949,867.235 632.975,862.599 631.651,859.729 637.832,860.171 638.936,857.301 
	635.845,855.977 629.664,856.859 624.587,852.444 620.392,850.678 618.626,844.939 620.392,840.524 622.379,838.537 
	621.055,835.446 626.132,832.356 627.898,826.175 626.794,824.188 630.105,822.201 631.651,818.669 629.002,814.254 
	638.715,810.943 643.13,810.06 646.22,805.866 650.194,803.216 656.596,802.775 659.907,800.788 659.245,797.477 662.777,795.711 
	661.232,790.854 662.777,788.205 659.024,780.258 652.401,778.271 649.311,775.843 651.298,771.207 649.09,769.221 649.752,765.026 
	648.207,761.273 651.96,760.17 653.726,757.962 656.329,754.951 656.329,752.223 648.957,748.69 645.779,745.158 643.329,740.951 
	643.329,734.783 646.651,731.913 647.766,728.16 644.675,727.719 642.909,725.07 645.117,722.642 647.766,720.655 640.922,718.447 
	636.949,724.187 627.456,719.772 622.6,718.668 622.379,717.344 625.249,716.461 623.041,713.591 624.145,709.838 618.185,708.293 
	611.562,705.202 610.458,698.138 608.03,697.255 600.966,692.178 599.2,689.749 593.46,691.515 589.329,690.412 584.829,695.451 
	580.877,695.451 578.008,700.658 580.436,702.112 579.774,704.761 580.877,708.072 582.864,712.266 589.329,712.951 
	589.329,714.474 584.329,715.951 584.329,721.759 580.065,723.745 577.345,718.889 570.061,719.11 564.542,718.447 562.776,721.096 
	547.102,718.006 539.817,719.11 537.389,724.408 531.208,719.33 527.897,720.434 527.676,724.849 529.883,731.693 533.636,733.459 
	536.388,739.651 535.543,743.995 537.956,744.96 552.798,757.388 557.021,759.681 556.659,761.611 559.796,765.955 563.778,766.921 
	565.106,770.661 564.261,771.506 555.453,766.8 550.988,761.732 541.697,758.836 537.232,760.767 535.181,760.887 533.25,757.267 
	523.235,749.545 518.53,747.011 519.736,740.857 513.824,734.1 513.329,727.951 513.329,724.93 508.147,721.551 502.602,718.897 
	502.119,723.361 500.792,728.188 498.741,727.826 498.62,732.531 494.518,730.36 490.536,724.93 489.088,716.725 492.587,711.415 
	490.536,709.726 487.398,710.933 482.451,709.605 482.21,713.225 471.592,717.811 470.868,714.915 466.644,719.621 467.489,724.326 
	469.058,722.637 469.902,724.447 468.575,726.981 472.074,729.153 471.35,733.255 468.937,733.014 470.988,747.011 478.831,753.044 
	489.329,760.284 491.984,759.801 493.311,762.215 503.205,785.382 509.721,792.742 514.668,794.07 515.634,795.518 521.829,799.451 
	528.786,799.451 538.198,797.605 541.214,799.138 541.456,801.31 535.664,806.136 537.715,808.911 546.161,812.652 557.624,815.91 
	563.175,819.409 575.724,825.442 584.17,832.199 586.342,837.388 584.412,844.628 578.329,841.951 578.329,837.75 575.398,834.009 
	567.64,834.733 561.968,831.113 559.314,829.786 552.195,838.594 552.798,843.421 550.385,846.8 551.829,851.451 556.297,851.451 
	563.416,856.787 562.692,862.606 564.744,865.502 564.14,867.795 558.469,868.76 553.522,873.707 554.849,879.861 550.264,883.481 
	547.609,887.946 546.282,892.531 539.404,893.979 537.329,889.951 537.329,886.377 539.513,884.446 541.697,880.103 
	540.329,877.951 540.329,875.759 545.478,873.828 547.127,872.018 545.196,868.76 542.904,860.555 538.439,852.833 535.422,844.024 
	532.647,842.576 529.631,845.352 525.769,841.49 522.753,841.249 520.46,839.439 521.787,836.302 517.685,830.148 511.329,830.951 
	511.329,828.579 508.474,826.528 504.412,827.493 501.516,822.305 496.81,816.996 494.518,817.961 490.415,815.91 485.468,818.202 
	482.813,814.462 478.469,813.135 475.329,810.951 475.329,810.601 472.736,807.946 469.54,805.291 468.213,803.24 464.714,799.741 
	462.301,799.379 459.043,793.466 453.733,790.932 451.803,792.139 448.545,791.053 451.2,787.916 448.424,784.296 443.236,781.159 
	444.322,779.59 442.753,778.142 439.329,777.951 439.329,771.626 436.335,765.955 434.669,761.129 434.789,757.147 431.29,752.803 
	426.222,750.993 418.138,746.046 410.295,743.15 406.192,744.236 401.486,748.7 398.349,754.734 390.144,757.871 386.403,758.112 
	381.336,760.525 377.233,763.18 375.182,765.473 373.13,765.111 370.476,768.73 371.924,769.575 370.838,771.747 366.373,772.712 
	360.943,773.195 356.117,772.954 353.704,770.661 348.153,769.092 348.636,767.282 348.515,765.835 343.327,765.593 340.913,763.18 
	339.948,765.593 336.087,765.352 334.277,762.939 330.898,761.611 328.364,762.335 325.83,759.922 318.349,762.939 317.505,765.473 
	313.523,765.593 309.782,769.092 307.128,774.04 307.248,782.003 308.938,783.693 308.334,785.503 311.351,788.037 309.42,789.967 
	308.334,788.519 307.007,789.364 309.3,796.604 307.61,799.258 289.873,807.343 286.977,810.239 266.706,813.738 260.914,818.444 
	263.329,819.951 263.329,822.305 258.502,822.546 252.829,829.665 245.589,838.112 238.229,849.333 238.832,854.884 
	241.728,861.158 246.072,864.416 246.434,866.709 236.54,871.656 233.523,873.828 231.472,874.069 231.954,877.448 229.179,877.81 
	228.455,881.43 223.146,888.066 225.318,890.6 222.784,891.807 219.768,890.48 213.372,890.721 205.047,895.668 200.703,903.994 
	195.273,907.976 191.829,904.451 187.43,904.451 184.293,906.998 181.276,904.235 169.813,903.27 153.282,900.133 147.249,903.994 
	136.027,904.597 133.131,909.182 126.978,912.44 121.91,908.579 117.445,901.822 115.829,897.451 117.807,897.451 113.825,892.94 
	115.153,890.118 111.171,883.481 105.258,879.258 101.276,877.448 94.278,877.327 87.883,879.982 79.919,875.517 74.006,873.345 
	67.611,874.311 73.162,864.658 75.213,855.246 73.644,853.677 77.506,847.162 77.868,841.611 76.661,839.198 70.386,840.646 
	71.834,835.457 77.023,833.406 77.626,832.079 76.178,831.113 71.472,834.251 68.335,832.682 66.767,830.872 72.329,819.951 
	72.329,817.478 77.934,814.824 86.676,801.792 85.107,799.982 94.76,784.537 95.484,769.816 94.157,764.869 95.967,761.853 
	95.829,755.451 98.018,755.451 98.742,752.317 99.708,749.424 97.415,747.614 102.242,744.236 100.552,743.271 95.329,744.951 
	95.329,743.15 100.414,739.651 96.932,739.047 95.122,736.272 95.726,731.566 96.691,729.877 103.69,727.705 106.706,728.912 
	113.222,728.67 115.032,730.118 116.118,728.67 113.222,725.292 122.392,721.31 123.599,722.637 125.65,721.672 127.219,724.809 
	128.305,723.24 132.649,728.912 137.234,731.084 150.748,732.773 154.73,733.376 155.937,731.446 160.522,735.669 163.659,735.427 
	166.072,738.444 181.397,743.633 185.74,743.271 195.514,743.15 196.238,745.08 202.392,749.062 205.167,746.649 208.908,747.011 
	215.786,752.32 224.473,751.476 227.973,750.148 231.11,746.649 238.829,723.451 242.332,723.451 239.315,719.666 244.021,701.762 
	247.52,706.589 247.829,710.451 249.692,710.451 248.968,704.297 246.675,701.521 242.211,698.866 241.829,695.451 244.021,695.451 
	242.452,694.323 240.642,691.868 241.246,689.575 244.262,693.919 246.796,691.506 244.624,686.8 245.71,684.508 235.212,678.112 
	235.454,675.337 231.11,669.666 231.351,667.615 234.368,663.874 231.231,661.702 232.316,659.048 226.887,657.358 228.817,654.704 
	228.829,651.451 224.594,651.451 221.336,649.458 217.837,647.947 213.734,645.171 213.493,643.12 207.339,641.31 205.829,639.451 
	200.099,639.451 199.134,635.433 195.829,632.451 201.185,632.451 202.633,631.511 201.547,629.364 198.531,630.33 198.048,628.52 
	202.392,625.141 196.118,626.348 195.514,623.331 197.565,620.435 209.028,618.987 211.442,621.28 212.648,619.47 215.786,621.763 
	217.113,617.901 218.802,618.987 224.594,618.384 229.179,627.451 233.764,625.262 235.333,624.9 237.143,626.589 239.798,626.348 
	242.329,624.951 242.329,626.831 244.829,627.451 249.933,627.451 247.52,625.331 248.244,620.315 248.485,613.316 246.329,608.951 
	246.329,604.146 245.296,601.371 248.727,603.301 251.261,602.336 255.966,602.939 255.846,605.714 254.095,606.921 
	256.811,611.265 260.672,611.144 270.325,616.212 278.289,612.713 275.393,610.058 278.651,605.111 285.288,603.422 
	291.321,602.819 300.329,596.951 300.329,594.493 302.341,581.341 313.161,578.083 321.366,575.307 331.622,571.325 
	337.173,574.101 340.31,572.291 338.621,571.205 334.156,570.24 331.622,568.43 334.518,567.102 337.776,567.344 339.827,569.998 
	343.809,572.291 343.206,569.878 336.449,564.448 340.329,561.951 340.329,558.451 343.447,558.451 347.55,554.21 349.842,549.606 
	351.894,543.573 352.738,537.057 354.186,535.971 356.238,537.057 358.772,535.971 363.357,531.869 369.269,527.525 373.01,526.197 
	379.646,525.594 384.593,525.835 386.162,528.611 387.829,530.451 390.144,530.451 391.23,529.41 387.972,528.249 387.248,525.715 
	390.868,520.647 401.486,519.561 402.452,525.353 405.106,526.559 405.468,523.06 409.45,524.146 407.881,520.285 410.829,516.451 
	416.811,516.451 413.915,512.818 415.363,511.235 413.915,507.495 410.295,506.409 416.087,501.703 411.863,502.427 
	414.277,499.652 411.139,495.187 411.622,490.602 410.898,479.621 404.262,476.122 405.348,471.537 404.262,465.142 405.83,450.783 
	409.933,452.352 412.105,453.92 412.829,452.472 411.984,449.094 409.933,450.662 405.83,448.128 410.829,439.451 415.725,439.451 
	421.878,438.662 429.829,427.451 433.341,427.451 437.324,424.066 435.347,427.691 436.329,431.716 436.329,437.951 
	433.329,442.609 433.329,449.951 435.549,453.451 441.829,453.451 442.416,455.396 440.522,462.027 437.207,461.079 
	434.879,459.185 433.329,462.027 433.329,465.951 433.624,469.841 428.919,469.604 430.339,471.735 426.314,473.63 427.024,475.998 
	434.839,475.051 439.101,476.471 440.285,480.497 440.759,485.706 440.285,489.636 434.839,488.451 431.287,484.675 
	427.498,480.023 424.656,477.419 424.183,481.207 426.077,483.575 422.762,486.654 423.946,488.451 427.829,488.451 
	430.103,491.863 425.13,493.448 428.445,495.178 430.103,502.046 433.707,503.703 440.522,505.598 444.329,503.703 445.731,506.308 
	444.329,510.807 437.68,512.465 444.329,514.596 449.829,515.07 452.362,510.807 460.042,508.913 465.829,501.572 472.016,502.282 
	473.646,505.989 478.445,509.549 483.089,508.465 488.972,513.574 489.901,515.432 485.411,516.825 489.591,518.683 
	496.712,521.314 495.474,516.361 492.532,514.658 494.08,512.645 501.511,508.311 516.218,502.428 518.385,498.445 521.171,496.236 
	527.983,493.448 535.568,489.636 545.785,487.102 548.262,493.448 551.668,496.545 557.86,497.165 560.028,498.445 566.375,494.378 
	569.161,490.353 574.115,487.257 570.864,486.328 569.161,488.451 567.303,487.567 567.613,481.065 573.341,480.136 
	584.022,480.291 582.939,473.789 584.105,471.003 582.329,469.145 582.329,465.951 577.675,453.819 575.972,447.317 
	575.044,434.933 577.83,430.753 577.985,425.645 578.295,419.143 584.177,413.415 590.834,409.545 592.072,413.724 596.407,416.047 
	600.587,419.762 603.992,423.787 608.636,426.109 611.423,423.787 616.067,416.975 611.733,403.507 612.042,396.783 
	612.661,391.451 609.829,391.451 607.862,393.755 602.289,392.981 598.11,387.872 598.574,383.383 595.478,379.977 596.252,372.082 
	601.796,370.256 600.903,368.47 601.2,366.981 603.433,367.875 604.624,364.451 608.829,364.451 609.387,362.069 613.108,362.962 
	614.448,361.325 616.681,362.218 618.169,359.539 623.082,356.859 628.44,357.603 634.543,358.144 640.2,356.451 644.829,356.451 
	648.238,355.073 650.024,355.966 650.173,358.497 648.535,359.836 647.94,361.92 646.451,368.618 644.219,373.084 648.386,381.122 
	648.833,385.141 651.661,387.969 651.512,390.351 655.234,392.584 654.844,393.775 651.329,394.519 651.329,396.951 
	652.852,398.091 651.066,399.78 652.405,401.813 654.192,401.217 654.341,403.45 659.699,406.129 659.997,416.549 662.23,416.4 
	668.333,424.14 670.863,430.541 665.504,437.537 665.058,441.854 659.848,442.598 654.341,446.915 652.405,447.212 653.001,454.804 
	657.615,455.697 656.035,460.311 651.329,461.8 651.329,463.951 647.493,466.861 646.154,469.689 647.642,476.536 645.856,481.448 
	640.497,488.742 637.371,487.849 636.925,492.315 631.417,495.887 628.887,494.845 626.356,496.631 624.719,495.441 
	623.826,497.376 619.36,496.78 628.143,513.749 630.971,524.467 629.482,527.741 626.207,529.677 621.891,537.566 630.078,540.692 
	631.268,547.092 630.227,549.623 633.799,556.768 633.204,559 635.585,560.787 638.116,564.359 642.73,567.932 640.944,570.313 
	643.772,577.756 641.242,579.244 630.078,594.576 625.612,603.507 628.589,609.164 628.44,612.438 632.162,614.373 631.715,616.011 
	626.207,614.671 624.57,624.644 622.486,630.152 625.017,632.384 628.291,634.766 631.417,636.85 634.99,637.13 636.329,638.451 
	638.829,638.451 640.497,635.659 645.409,638.041 648.535,636.701 651.661,638.041 653.596,636.999 657.466,637.594 663.123,634.32 
	668.779,638.785 671.905,639.083 674.436,634.766 687.683,629.705 689.172,624.346 692,621.667 695.573,621.369 699.145,622.709 
	700.931,624.198 703.611,626.43 705.992,631.343 708.225,633.674 710.607,636.451 711.829,636.451 713.584,639.678 715.668,640.274 
	716.561,642.655 722.961,645.632 728.469,655.01 727.873,656.945 728.915,657.689 728.171,661.411 727.708,663.495 729.329,666.918 
	729.329,669.951 730.404,672.426 731.595,675.254 730.851,677.784 735.763,682.697 743.95,684.185 742.61,681.952 743.95,681.059 
	746.331,681.803 746.48,680.315 751.541,676.742 755.262,676.445 757.049,677.04 758.537,678.529 758.635,680.613 759.329,682.845 
	759.329,685.951 760.621,689.246 752.732,692.67 747.522,703.833 747.373,706.364 749.457,712.765 749.606,719.463 750.648,723.78 
	749.755,727.948 743.652,729.287 741.717,735.241 742.312,738.367 742.759,744.321 743.354,746.108 739.633,747.149 
	739.693,750.722 736.329,752.359 736.329,753.951 740.377,753.252 741.121,754.443 742.759,755.634 743.503,757.718 
	748.564,762.035 746.033,762.779 741.568,766.203 736.805,762.928 732.339,764.119 730.106,766.732 726.832,768.451 
	723.829,768.451 724.152,771.561 721.175,773.496 722.217,775.431 725.641,777.366 726.683,778.111 726.98,780.79 728.618,783.172 
	723.854,785.851 723.557,789.424 724.748,792.996 722.366,798.057 721.324,799.992 "/>
<path id="XMLID_34_" fill="none" stroke="#010101" stroke-miterlimit="10" d="M723.374,802.753"/>
<path id="XMLID_24_" fill="none" stroke="#010101" stroke-miterlimit="10" d="M725.767,812.415"/>
<polyline id="XMLID_35_" fill="none" stroke="#010101" stroke-miterlimit="10" points="444.643,393.145 445.08,392.364 
	446.012,392.515 "/>
<polygon id="XMLID_23_" fill="#EAEAEA" points="459.386,492.146 455.051,491.132 452.1,492.979 445.25,490.403 443.829,492.894 
	443.829,496.951 452.639,498.445 458.194,496.876 459.98,493.546 462.904,490.951 465.829,490.951 464.955,488.951 462.829,488.951 
	"/>
<polygon id="XMLID_22_" fill="#EAEAEA" points="288.711,564.365 295.329,562.53 295.329,560.451 291.829,560.451 299.329,557.936 
	299.329,555.951 307.693,550.199 309.329,542.945 309.329,537.951 306.541,534.723 303.156,530.856 294.21,529.405 288.95,533.032 
	286.956,529.405 290.583,524.57 290.341,516.455 286.956,512.451 289.829,512.451 286.956,505.469 288.649,500.633 283.329,491.445 
	276.317,487.093 273.416,463.64 267.371,453.727 263.986,452.034 260.843,448.891 257.458,450.583 253.106,448.891 257.7,446.231 
	262.777,443.813 260.118,440.428 269.306,431.966 274.383,422.294 278.01,417.701 278.494,414.23 276.559,412.451 270.829,412.451 
	259.393,408.996 248.754,411.422 254.095,403.451 249.829,403.451 265.679,393.522 267.613,387.477 264.228,386.268 
	263.261,388.536 260.118,386.451 251.829,386.451 246.336,384.818 242.709,383.125 240.533,389.17 235.667,392.071 237.329,394.973 
	237.329,398.951 229.329,399.78 229.329,402.951 227.477,406.82 226.51,410.447 229.895,411.414 226.733,413.59 223.329,410.931 
	223.329,400.951 219.329,403.435 219.329,405.951 217.322,402.952 214.662,406.82 218.047,409.48 218.773,413.59 221.674,415.524 
	225.543,415.766 223.85,420.311 222.883,424.451 217.829,424.451 217.805,426.647 215.871,427.614 217.08,430.999 214.662,433.9 
	220.223,435.593 223.608,431.966 230.62,427.372 222.641,436.802 223.661,438.978 220.329,443.572 220.329,449.951 214.662,459.288 
	219.498,459.046 222.641,450.583 224.334,448.407 228.444,450.342 231.587,444.297 234.005,444.78 229.653,451.55 232.554,456.386 
	231.345,460.497 227.477,462.673 224.575,468.717 222.399,470.893 223.85,473.982 226.51,472.344 231.104,477.663 232.554,472.344 
	235.456,475.729 242.468,473.982 246.336,471.86 251.655,473.982 245.369,475.971 241.259,482.741 244.885,494.346 251.897,492.896 
	249.479,497.49 246.094,498.699 246.578,504.743 245.127,510.304 242.709,512.722 233.521,511.513 226.751,511.755 226.51,507.886 
	221.432,509.095 223.85,513.931 217.805,520.218 219.981,521.426 225.059,519.009 225.784,521.668 224.092,534.723 217.805,537.626 
	208.618,539.077 204.749,541.736 207.65,547.539 215.061,546.33 219.329,549.474 219.329,551.951 224.334,552.375 231.829,558.661 
	246.094,552.133 236.665,560.112 235.698,563.497 230.862,562.53 219.498,560.112 215.629,564.747 211.761,563.014 211.519,568.091 
	206.683,572.441 196.045,579.451 189.829,579.451 191.693,583.565 194.836,581.873 196.77,586.225 199.188,584.774 206.925,579.213 
	215.388,580.422 221.432,586.225 225.301,580.664 226.026,577.762 231.829,574.377 238.357,576.312 240.533,578.971 
	247.061,579.455 254.095,578.73 259.634,581.873 262.294,578.971 260.843,576.795 265.437,576.414 266.646,578.451 275.829,578.451 
	281.879,581.873 293.001,578.971 300.012,574.377 301.463,569.542 292.517,569.058 "/>
<polygon id="XMLID_26_" fill="#EAEAEA" points="191.998,529.103 201.329,513.931 201.329,504.951 201.329,497.951 201.329,488.451 
	207.829,488.451 210.552,483.224 212.957,484.675 216.329,481.774 216.329,474.451 212.829,474.451 214.42,469.201 212.728,461.771 
	207.892,458.451 200.829,458.451 196.045,452.276 192.001,455.419 181.401,455.177 179.329,457.353 179.329,461.951 172.35,462.914 
	173.8,467.75 181.538,466.541 178.878,470.168 173.559,469.684 172.35,472.586 167.756,472.344 163.887,473.795 161.711,469.684 
	152.765,468.959 150.831,472.344 154.699,474.036 154.216,476.938 147.929,474.036 151.073,479.356 156.876,478.147 156.634,481.29 
	151.756,481.532 148.329,485.884 148.329,490.951 152.282,490.762 154.699,493.863 162.195,495.797 160.502,498.457 156.15,497.731 
	152.282,501.358 151.314,503.534 143.336,508.37 150.586,508.128 143.329,512.239 143.329,515.951 136.566,512.964 132.455,516.107 
	134.873,517.074 142.064,518.041 132.329,521.185 132.329,523.951 135.84,525.537 137.049,527.955 134.389,530.614 144.061,529.405 
	138.016,534.723 144.303,534.951 146.479,536.659 153.007,534.951 159.293,534.723 162.195,531.34 167.514,533.274 172.833,528.196 
	180.087,527.955 183.714,529.164 "/>
<polygon id="XMLID_27_" fill="#EAEAEA" points="415.306,818.569 421.329,821.692 421.329,824.951 424.246,828.795 426.613,836.114 
	423.169,842.786 425.537,846.661 422.739,867.325 419.295,869.477 415.302,867.11 411.329,868.401 411.329,870.951 408.102,874.451 
	403.829,874.451 401.86,870.769 399.922,864.527 401.429,853.764 403.797,850.535 399.922,849.674 401.644,846.409 402.063,841.28 
	400.329,839.127 400.329,836.951 398.2,833.961 395.187,834.392 396.694,831.593 395.187,830.302 397.555,826.427 400.783,827.719 
	408.102,826.212 412.622,822.122 "/>
<polygon id="XMLID_1_" fill="#EAEAEA" points="414.732,814.795 418.676,809.526 421.329,798.014 421.329,791.951 421.329,786.951 
	419.725,775.628 418.076,784.669 414.823,783.377 412.622,785.099 404.012,791.932 406.595,795.451 403.829,795.451 
	407.456,799.091 404.873,802.535 408.317,802.75 406.81,806.409 409.609,807.701 408.102,810.499 "/>
<polyline id="XMLID_38_" fill="#EAEAEA" points="445.408,391.779 449.829,397.164 451.813,391.369 452.242,386.219 449.829,380.854 
	453.53,375.059 452.457,372.913 455.891,370.982 459.968,366.046 458.895,362.183 460.397,359.178 461.041,357.032 455.676,344.8 
	460.827,344.371 461.47,340.937 462.114,335.786 459.324,332.353 454.388,328.919 455.461,321.408 456.32,316.043 455.247,312.18 
	452.457,306.815 453.959,304.24 452.886,299.518 453.315,297.146 450.955,291.792 454.603,286.642 453.745,283.637 458.251,274.839 
	463.616,271.405 471.951,273.551 472.829,269.951 472.829,266.684 471.871,261.962 466.925,258.958 473.64,246.94 476.032,239.858 
	476.477,229.128 474.553,222.26 479.279,220.114 482.714,216.681 481.857,211.315 484.433,206.594 487.008,201.873 490.657,199.941 
	489.369,193.718 486.794,187.923 490.013,185.134 493.232,176.549 495.986,172.901 501.829,175.951 501.829,168.609 
	500.857,162.385 503.623,159.596 509.265,162.171 517.666,164.317 520.042,160.669 518.333,159.596 520.054,156.591 
	520.699,151.655 516.408,147.363 521.345,144.573 525.387,146.075 524.829,143.951 524.829,140.281 529.311,141.354 534.955,146.29 
	537.807,151.655 543.633,152.084 547.511,151.87 550.524,146.505 559.506,150.582 562.829,150.951 562.829,146.29 564.463,143.071 
	566.502,140.71 564.204,132.77 564.02,124.186 567.47,115.601 572.413,115.387 576.28,110.701 581.829,115.951 587.444,115.951 
	591.092,120.39 590.448,127.53 591.307,132.224 587.829,135.951 592.594,135.951 591.092,145.877 595.829,152.951 601.178,152.951 
	604.827,157.346 611.479,163.154 608.69,180.475 619.42,192.461 628.219,205.537 625,208.533 626.931,217.114 628.862,219.687 
	627.146,221.832 629.292,226.124 632.511,225.694 634.657,229.128 633.584,231.274 637.447,235.137 642.812,239.858 641.953,246.94 
	640.237,251.232 656.761,257.67 663.199,264.837 662.341,273.551 657.834,285.354 654.615,297.801 648.606,310.892 644.099,319.047 
	643.328,320.87 641.739,324.877 642.829,330.951 639.378,330.951 637.876,332.653 633.829,333.951 629.721,333.951 627.754,335.942 
	624.829,334.951 624.829,338.791 619.657,340.079 615.647,343.083 610.773,345.229 607.8,348.234 605.455,346.731 602.887,352.74 
	600.531,350.307 594.953,355.073 591.091,354.028 589.375,358.964 586.156,360.037 584.224,358.32 585.941,355.073 582.937,352.776 
	580.829,356.951 577.786,356.951 578.001,352.163 573.924,352.221 575.64,348.296 571.563,344.831 564.91,346.318 563.193,343.52 
	563.622,340.297 561.262,339.008 561.047,332.568 562.979,325.701 561.012,319.906 556.829,310.951 556.829,306.171 553.144,301.02 
	552.338,294.582 554.332,291.149 553.719,287.286 556.739,285.354 555.245,282.814 559.829,279.951 564.052,279.951 
	561.906,273.747 563.193,269.813 567.7,270.394 565.125,264.868 568.344,262.407 572.421,258.322 575.426,251.451 578.43,247.371 
	579.074,243.722 579.289,238.142 583.331,235.781 587.829,236.951 587.829,232.347 581.829,229.951 581.829,227.951 
	581.829,223.333 577.769,219.47 572.94,219.256 570.642,217.11 565.737,218.397 560.602,219.685 559.323,222.046 556.322,218.397 
	550.744,220.973 553.535,226.123 546.418,232.561 545.829,236.951 545.829,240.502 544.103,246.081 549.333,251.876 
	550.219,255.739 543.829,262.951 543.829,270.976 537.952,274.624 533.882,281.706 530.511,279.345 528.611,284.317 
	527.829,287.951 525.637,287.951 521.829,291.951 521.829,295.87 518.368,298.874 517.537,304.24 512.829,307.951 512.829,311.321 
	514.834,312.18 513.28,320.979 515.918,324.662 515.829,327.951 511.259,327.951 512.976,333.049 512.117,337.199 513.405,340.141 
	515.551,346.798 513.829,349.951 519.199,349.951 520.916,353.277 524.35,351.792 528.856,356.451 530.788,351.949 531.829,360.951 
	535.938,360.951 538.829,364.951 538.829,370.951 535.509,370.951 536.797,374.615 534.007,376.472 529.5,377.697 536.797,380.885 
	533.363,384.303 529.715,387.943 528.642,392.875 527.569,393.732 524.135,390.297 520.916,395.876 514.442,399.78 515.829,408.951 
	515.829,416.263 512.476,417.551 515.829,421.951 515.829,427.423 513.437,432.359 515.211,436.222 513.342,445.664 
	511.871,449.133 508.829,459.951 503.829,459.951 492.374,459.951 494.085,464.186 489.788,462.965 487.632,466.773 
	487.182,470.834 489.717,474.496 486.632,480.397 481.533,477.879 474.341,480.901 462.679,483.841 461.302,481.881 
	463.844,482.863 459.829,483.951 459.829,487.223 457.777,489.636 453.85,488.68 453.829,485.951 448.545,485.951 445.649,482.243 
	446.252,476.489 444.08,474.978 442.874,472.413 447.097,472.156 449.148,466.96 452.647,466.714 452.527,469.367 454.216,472.745 
	456.026,469.245 454.94,466.107 460.732,462.246 464.593,464.78 463.869,467.434 465.8,475.157 462.421,475.286 458.829,479.951 
	468.092,479.951 469.42,475.865 471.833,472.386 469.782,471.599 462.783,458.175 466.644,459.848 467.368,458.031 465.196,456.467 
	464.829,454.951 468.213,454.951 468.575,450.755 465.438,449.46 464.352,445.778 462.663,444.781 458.077,438.25 456.75,433.898 
	454.457,431.369 453.829,425.951 451.924,425.951 451.2,422.078 452.889,418.57 449.829,419.473 447.821,415.581 447.7,409.411 
	445.408,409.524 444.925,399.784 443.718,394.797 444.643,393.146 "/>
<polyline id="XMLID_31_" fill="#EAEAEA" points="476.329,900.951 476.329,892.951 482.045,890.457 486.057,894.101 487.88,890.451 
	491.829,890.451 500.281,894.142 506.482,893.451 514.829,893.451 522.165,887.174 525.448,888.998 534.202,887.174 
	530.919,900.951 527.841,906.14 531.329,912.341 531.329,915.951 528.366,921.459 518.153,925.106 511.223,916.717 505.265,916.143 
	488.975,906.451 479.829,906.451 476.329,902.493 "/>
<line id="XMLID_40_" fill="#1D1D1B" stroke="#010101" stroke-miterlimit="10" x1="1027.829" y1="330.451" x2="1026.829" y2="330.451"/>
<path id="XMLID_41_" fill="none" stroke="#010101" stroke-miterlimit="10" d="M1628.158,205.51"/>
<polyline id="XMLID_44_" fill="none" stroke="#FFFFFF" stroke-miterlimit="10" points="524.385,147.116 526.089,149.615 
	528.329,150.684 528.329,152.951 534.554,154.795 536.537,157.119 539.048,156.046 546.47,158.906 548.483,163.016 553.868,166.591 
	551.669,169.808 552.329,173.561 552.329,177.951 557.967,179.102 556.018,183.391 563.176,191.612 561.661,193.936 
	563.317,198.046 561.732,201.819 563.364,208.451 565.829,208.451 569.976,215.597 "/>
<polyline id="XMLID_42_" fill="none" stroke="#FFFFFF" stroke-miterlimit="10" points="411.325,489.99 415.769,491.133 
	420.043,492.451 424.829,492.451 427.338,491.951 "/>
<polyline id="XMLID_45_" fill="none" stroke="#FFFFFF" stroke-miterlimit="10" points="330.477,569.638 332.173,573.369 
	334.378,572.352 340.315,574.727 342.521,572.861 348.119,570.655 349.985,570.995 352.359,568.789 353.377,569.298 
	352.359,571.334 354.395,571.503 355.922,569.298 357.618,570.316 356.6,572.012 359.484,574.557 362.877,573.878 364.403,577.271 
	367.796,578.458 364.403,586.431 368.135,588.297 371.019,585.413 369.829,581.003 373.055,578.289 371.189,576.423 
	373.903,574.048 373.733,569.977 371.189,565.057 369.829,561.451 375.26,561.451 383.402,560.031 382.329,556.576 387.643,552.504 
	386.329,548.264 382.329,546.951 382.329,544.532 387.531,543.853 388.491,540.121 390.329,534.951 390.329,528.951 "/>
<polyline id="XMLID_47_" fill="none" stroke="#FFFFFF" stroke-miterlimit="10" points="369.324,586.937 372.329,591.412 
	372.329,593.951 375.483,598.125 372.13,601.018 368.908,601.944 365.329,607.731 365.329,611.951 366.918,615.254 364.719,616.296 
	359.858,617.453 354.765,611.203 350.483,609.692 352.103,602.451 349.829,602.451 348.284,604.722 345.506,605.416 
	340.413,604.953 341.687,598.241 338.793,595 335.784,595.81 333.353,592.685 328.608,590.833 328.145,586.225 325.83,583.773 
	322.695,585.741 319.329,581.458 319.329,574.951 "/>
<polyline id="XMLID_46_" fill="none" stroke="#FFFFFF" stroke-miterlimit="10" points="371.535,602.225 370.705,605.998 
	375.503,609.912 376.982,613.502 374.386,616.202 373.818,618.451 370.829,618.451 368.072,619.571 365.706,617.453 "/>
<polyline id="XMLID_49_" fill="none" stroke="#FFFFFF" stroke-miterlimit="10" points="374.655,619.794 376.264,620.922 
	378.871,625.144 380.126,627.451 383.829,627.451 391.73,626.669 393.195,629.711 402.207,631.851 397.814,637.935 394.997,643.793 
	391.617,653.143 392.181,654.044 390.378,662.043 391.617,663.508 "/>
<polyline id="XMLID_50_" fill="none" stroke="#FFFFFF" stroke-miterlimit="10" points="225.24,749.991 227.472,753.451 
	232.829,753.451 230.374,757.863 236.952,760.842 242.177,761.903 245.272,767.15 249.916,765.998 253.592,770.439 257.075,769.301 
	259.784,771.451 265.829,771.451 267.33,767.924 274.489,772.955 278.939,775.628 283.97,778.953 288.033,782.436 291.129,780.598 
	295.579,782.436 300.029,784.929 300.996,782.049 308.155,782.242 "/>
<polyline id="XMLID_48_" fill="none" stroke="#FFFFFF" stroke-miterlimit="10" points="95.649,759.511 105.415,756.279 
	108.925,757.805 107.285,763.451 111.829,763.451 117.241,765.405 124.793,767.46 126.51,764.032 132.449,767.46 136.329,769.525 
	136.329,773.951 141.614,777.42 137.838,781.196 126.51,788.405 126.853,793.211 124.45,799.047 125.823,802.686 122.39,804.883 
	119.987,807.973 121.36,811.749 118.6,818.615 107.629,816.555 111.405,821.704 110.636,826.167 114.329,833.376 114.329,837.951 
	108.315,840.585 106.256,846.421 109.002,852.6 111.748,855.026 109.345,857.451 104.829,857.451 99.047,864.272 98.017,871.824 
	99.733,875.6 "/>
<polyline id="XMLID_51_" fill="none" stroke="#FFFFFF" stroke-miterlimit="10" points="379.056,705.074 376.361,707.197 
	378.436,710.255 379.272,714.63 382.716,716.549 381.329,718.2 381.329,719.951 377.961,722.451 372.829,722.451 375.142,726.118 
	375.545,729.07 379.437,730.278 380.396,733.365 377.329,737.391 377.329,740.951 379.705,744.37 384.615,746.919 390.329,746.383 
	390.329,748.951 386.684,753.63 387.892,755.374 "/>
<polyline id="XMLID_55_" fill="none" stroke="#FFFFFF" stroke-miterlimit="10" points="423.107,665.974 426.9,664.462 
	428.173,666.982 429.693,665.85 431.077,668.326 432.445,670.837 434.195,673.548 438.329,669.137 438.329,665.951 441.195,665.342 
	445.25,667.562 446.81,669.451 450.829,669.451 453.152,667.743 456.168,666.426 457.104,664.451 466.829,664.451 465.838,660.767 
	471.452,663.508 474.156,662.223 478.315,666.694 480.81,662.743 477.275,660.767 479.043,657.856 474.26,651.721 484.761,645.275 
	485.801,640.18 489.544,641.636 490.694,636.645 494.329,637.109 494.329,637.951 498.514,640.745 501.505,637.813 504.261,638.986 
	505.61,637.696 506.326,634.353 509.329,634.06 509.329,628.951 511.329,628.664 511.329,629.951 515.228,628.664 520.975,631.479 
	527.192,633.356 532.118,633.121 532.705,631.42 534.992,632.652 537.807,633.532 540.329,634.705 540.329,637.951 539.273,640.804 
	541.736,644.323 544.141,649.132 544.786,652.064 543.613,653.354 544.786,656.639 539.566,657.988 537.162,655.994 
	534.347,658.515 537.557,659.864 539.391,661.624 538.628,663.618 535.227,664.849 535.285,666.902 535.344,669.6 536.751,671.535 
	535.754,674.35 532.411,676.461 "/>
<polyline id="XMLID_54_" fill="none" stroke="#FFFFFF" stroke-miterlimit="10" points="438.542,682.602 440.905,682.035 
	445.005,685.029 449.816,680.263 455.118,679.316 457.276,678.461 459.431,680.391 465.537,677.427 465.897,680.345 
	467.468,681.513 468.276,684.757 481.701,688.451 487.829,688.451 491.668,689.28 "/>
<polyline id="XMLID_53_" fill="none" stroke="#FFFFFF" stroke-miterlimit="10" points="490.622,706.448 491.329,703.297 
	491.329,701.951 489.459,702.684 488.692,700.766 491.329,697.698 488.308,697.237 486.544,695.243 494.522,688.722 498.741,691.1 
	502.193,690.257 504.878,691.177 513.393,685.194 519.069,684.196 521.908,685.577 524.362,683.046 526.999,682.125 
	529.329,683.813 529.329,678.951 531.42,677.451 533.829,677.451 535.562,681.972 537.557,684.503 533.798,687.879 534.181,689.28 
	531.19,690.103 529.809,691.95 524.286,694.936 523.442,696.854 525.436,698.618 526.127,702.761 523.212,703.451 519.223,706.448 
	520.91,707.977 519.99,709.741 520.757,711.889 518.839,713.96 513.469,712.043 512.05,713.347 507.026,709.128 504.724,713.04 
	498.434,713.193 496.823,715.034 491.668,714.497 495.135,710.815 "/>
<polyline id="XMLID_56_" fill="none" stroke="#FFFFFF" stroke-miterlimit="10" points="491.869,634.602 486.644,630.268 
	485.383,631.248 483.971,628.427 477.18,622.451 473.829,622.451 469.469,614.59 467.431,613.35 470.001,609.096 468.229,607.323 
	465.105,605.462 462.645,601.651 463.089,599.436 466.102,602.183 473.546,595.714 475.584,596.988 476.825,594.451 
	479.829,594.451 481.788,590.928 483.206,591.903 484.624,589.067 489.647,588.446 497.329,584.547 497.329,582.951 
	494.816,581.622 495.791,580.736 498.006,580.116 499.867,581.622 501.68,585.788 506.329,584.015 506.329,580.951 508.641,580.47 
	512.275,584.813 519.01,586.231 522.555,589.421 527.075,587.915 528.404,589.864 525.303,593.587 529.556,596.334 533.101,599.968 
	538.773,596.954 535.051,593.055 535.849,591.814 542.761,594.03 543.648,595.979 548.699,593.143 549.497,595.625 547.99,597.575 
	551.801,601.297 554.283,599.336 558.714,601.451 561.829,601.451 563.411,604.487 566.513,607.766 568.197,611.134 564.829,611.4 
	560.664,616.274 558.448,618.401 557.384,622.833 554.548,625.846 551.181,628.664 547.015,630.1 544.002,629.036 540.989,633.911 
	"/>
<polyline id="XMLID_52_" fill="none" stroke="#FFFFFF" stroke-miterlimit="10" points="537.676,685.944 543.09,689.305 
	545.817,691.75 550.212,694.439 552.843,698.451 556.829,698.451 560.781,701.66 567.065,701.108 572.357,701.66 574.562,697.47 
	578.42,696.243 "/>
<polyline id="XMLID_58_" fill="none" stroke="#FFFFFF" stroke-miterlimit="10" points="545.232,650.051 546.501,649.119 
	554.861,654.812 566.937,654.256 573.009,651.663 570.225,648.325 573.768,644.376 578.807,645.192 581.666,643.694 
	583.572,639.678 588.337,641.584 593.49,638.112 596.329,633.756 596.329,630.951 602.155,628.664 606.375,630.081 612.365,627.494 
	614.679,628.664 616.653,632.327 621.758,630.693 "/>
<polyline id="XMLID_57_" fill="none" stroke="#FFFFFF" stroke-miterlimit="10" points="569.261,610.986 571.107,613.851 
	577.664,607.359 579.637,610.605 583.011,612.705 584.03,614.487 583.139,616.524 586.513,615.442 588.041,615.76 588.677,613.278 
	591.287,610.54 594.598,610.477 597.08,609.522 600.518,611.623 603.574,610.095 601.982,608.121 604.911,607.93 605.547,606.848 
	607.075,607.359 610.958,606.148 613.441,607.93 615.606,607.803 617.006,609.331 620.953,611.336 628.019,612.514 "/>
<polyline id="XMLID_59_" fill="none" stroke="#FFFFFF" stroke-miterlimit="10" points="491.14,517.166 492.673,523.193 
	494.421,528.891 492.833,532.831 490.329,534.981 490.329,538.951 496.169,541.919 498.264,545.715 496.693,548.988 
	499.442,551.737 500.62,555.795 498.264,561.293 499.558,563.912 500.329,565.09 500.329,568.951 504.548,570.195 505.726,573.468 
	507.055,575.05 505.283,580.116 "/>
<polyline id="XMLID_61_" fill="none" stroke="#FFFFFF" stroke-miterlimit="10" points="608.209,486.315 610.864,485.756 
	612.122,487.713 616.034,488.97 619.248,490.507 620.366,494.42 "/>
<polyline id="XMLID_62_" fill="none" stroke="#FFFFFF" stroke-miterlimit="10" points="578.076,452.031 580.329,450.402 
	580.329,447.951 583.335,443.834 585.85,443.26 590.601,440.451 598.829,440.451 601.082,438.943 603.458,440.444 605.274,438.451 
	607.829,438.451 609.829,438.451 616.829,438.451 623.161,437.126 626.375,432.654 630.148,436.986 634.201,437.965 
	642.306,439.472 650.69,445.451 653.829,445.451 "/>
<polyline id="XMLID_60_" fill="none" stroke="#FFFFFF" stroke-miterlimit="10" points="612.39,399.913 617.985,396.65 
	622.04,393.761 630.706,396.928 633.362,396.031 635.458,398.971 640.489,402.006 645.939,399.451 649.829,399.451 "/>
<polyline id="XMLID_64_" fill="none" stroke="#FFFFFF" stroke-miterlimit="10" points="601.829,687.451 608.329,687.451 
	608.329,683.951 615.329,683.118 615.329,680.951 616.791,679.09 615.928,676.461 618.661,672.76 622.93,660.676 625.329,654.059 
	625.329,650.951 629.739,643.989 635.493,641.974 636.212,639.529 "/>
<polyline id="XMLID_65_" fill="none" stroke="#FFFFFF" stroke-miterlimit="10" points="648.463,727.463 654.329,729.409 
	654.329,730.951 652.339,732.429 652.943,736.053 660.018,734.586 667.955,733.982 677.704,734.931 680.724,732.602 
	684.951,733.292 689.006,731.758 698.324,732.17 702.983,728.806 707.21,721.386 724.983,713.621 728.606,716.037 732.575,714.053 
	734.387,716.123 737.493,714.225 739.736,717.417 744.999,718.194 749.657,717.245 "/>
<polyline id="XMLID_66_" fill="none" stroke="#FFFFFF" stroke-miterlimit="10" points="663.024,794.792 667.75,794.006 
	669.15,792.071 669.898,792.869 671.802,791.451 675.829,791.451 679.028,788.305 680.763,788.787 684.713,784.929 687.026,785.415 
	690.591,783.68 691.94,786.282 696.083,787.342 705.333,789.236 713.234,784.929 720.171,781.753 717.088,775.298 721.52,773.37 "/>
<polyline id="XMLID_67_" fill="none" stroke="#FFFFFF" stroke-miterlimit="10" points="194.297,458.296 189.829,463.451 
	184.829,463.451 186.498,466.859 179.917,469.72 182.349,472.868 182.635,475.872 188.358,479.895 195.082,473.869 197.134,475.872 
	199.329,479.895 199.329,484.951 202.664,483.455 204.667,485.756 "/>
<path fill="#505050" d="M384.829,524.951h-12l-7,2l-5.426,6l-2.574,3c0,0-2.098-7.079-4-7c-1.58,0.066-1.944,4.42-2,6
	c-0.027,0.75-2,3-2,3v2l-0.894,2.683l-3.106,9.317l-3.78,1.89l-2.22,1.11l-2,4l-6,4l-2,4v7l7,2l3-1l10-4h3l1,2l3-3v2l3,3l3-1l2,3
	l3,2l-3,7l3,2l4-3l1-7l2-4l-3-9l2-2l10-1l4-9l2-10l3-9l-2-5L384.829,524.951z"/>
<polyline id="XMLID_30_" fill="#DEDDDD" points="641.829,326.451 641.739,320.627 643.328,316.87 644.099,315.047 648.606,306.892 
	654.615,293.801 657.834,281.354 662.341,269.551 663.199,260.837 656.761,253.67 640.237,247.232 641.953,242.94 642.812,235.858 
	637.447,231.137 633.584,227.274 634.657,225.128 632.511,221.694 629.292,222.123 627.146,217.831 628.862,215.685 626.931,213.11 
	625,204.526 628.219,201.521 619.42,188.43 608.69,176.412 611.479,159.029 604.827,153.346 601.178,148.951 595.829,148.951 
	591.092,141.877 592.594,131.951 587.829,131.951 591.307,128.161 590.448,123.53 591.092,116.453 587.444,111.951 581.829,111.951 
	576.284,106.701 572.421,111.512 567.485,111.664 564.052,120.217 564.266,128.786 566.627,136.718 564.463,139.075 562.829,142.29 
	562.829,146.951 559.51,146.582 550.407,142.505 547.465,147.87 543.633,148.084 537.854,147.655 535.072,142.29 529.307,137.354 
	524.829,136.281 524.829,139.951 525.387,142.075 521.22,140.573 516.347,143.363 520.67,147.655 520.042,152.591 518.333,155.596 
	520.054,156.669 517.695,160.317 509.326,158.171 503.747,155.596 500.857,158.385 501.829,164.609 501.829,171.951 
	495.986,168.901 493.107,172.549 489.95,181.134 486.763,183.923 489.353,189.718 490.649,195.941 487.004,197.873 484.431,202.594 
	481.857,207.315 482.716,212.681 479.282,216.114 474.561,218.26 476.493,225.128 476.063,235.858 473.703,242.94 467.05,254.958 
	471.871,257.962 472.829,262.684 472.829,265.951 471.951,269.551 463.491,267.405 458.189,270.839 453.713,279.637 
	454.587,282.642 450.947,287.792 453.311,293.146 452.884,295.518 453.958,300.24 452.456,302.815 455.247,308.18 456.32,312.043 
	455.461,317.408 454.388,324.919 459.324,328.353 462.114,331.786 461.47,336.937 460.827,340.371 455.676,340.8 461.041,353.032 
	460.397,355.178 458.895,358.183 459.968,362.046 455.891,366.982 452.458,368.913 453.531,371.059 449.832,376.854 
	452.248,382.219 451.824,387.369 449.851,393.164 445.451,387.779 444.08,390.364 444.408,389.779 442.477,387.727 439.219,388.572 
	437.289,384.107 437.047,378.557 432.1,379.281 434.272,381.936 434.031,387.727 431.738,391.227 426.912,392.433 426.067,390.382 
	421.723,393.881 420.637,397.139 415.811,401 415.207,404.379 411.105,408.602 408.088,408.964 407.847,410.653 402.9,413.067 
	395.539,414.756 386.127,413.67 384.8,412.101 387.575,409.085 380.215,406.43 375.63,402.328 372.854,396.053 373.82,393.519 
	374.061,389.899 378.767,392.313 379.974,390.744 377.681,387.969 380.577,387.365 381.542,383.263 378.164,380.729 377.44,383.625 
	371.527,383.392 371.829,386.951 369.235,386.951 369.838,378.893 373.337,374.097 378.043,375 375.147,370.624 372.975,372.298 
	369.958,376.151 369.235,370.476 371.527,369.268 372.372,367.707 370.829,364.951 377.56,364.951 377.829,362.951 374.785,362.951 
	372.372,361.946 370.803,358.531 369.476,362.209 368.631,361.213 368.39,354.923 370.562,356.483 369.476,348.998 369.355,346.221 
	373.458,348.271 373.699,346.22 370.924,345.254 370.562,342.729 370.829,340.951 369.476,340.951 367.183,341.896 365.968,340.432 
	368.829,337.951 368.829,334.998 371.829,332.951 374.182,332.951 373.578,330.897 374.423,327.762 371.648,326.976 
	371.527,325.014 372.613,323.429 370.32,322.456 372.01,320.289 372.829,318.951 375.268,318.951 375.38,317.201 372.829,315.951 
	372.829,313.761 376.462,315.088 379.125,312.313 383.048,309.658 385.734,310.503 384.664,308.702 387.829,305.951 
	396.987,305.951 400.728,304.667 400.969,302.423 395.177,301.395 394.212,298.709 411.949,289.402 411.346,288.067 
	415.449,286.012 419.068,285.648 419.792,283.475 424.981,281.786 427.515,285.526 428.118,288.31 430.829,286.951 438.133,286.951 
	435.599,284.428 438.254,280.583 443.684,277.986 443.442,275.662 440.064,275.526 438.013,278.897 432.1,282.875 427.274,283.959 
	426.912,280.7 428.721,278.166 423.895,279.493 428.963,274.071 431.829,266.951 433.829,266.951 433.829,263.806 440.928,256.325 
	441.025,253.067 439.027,251.257 435.829,251.951 435.829,250.171 439.455,249.447 442.473,251.619 449.413,244.259 
	451.048,232.554 453.829,229.951 453.829,227.728 450.829,228.951 450.829,227.245 458.177,219.049 459.829,216.951 
	458.043,216.951 459.732,214.677 457.56,212.076 457.672,210.777 459.829,211.951 459.829,210.594 458.514,208.784 462.503,205.526 
	464.617,203.837 462.235,201.785 466.473,200.579 466.602,197.924 469.14,196.597 468.9,193.58 474.331,185.858 477.107,187.668 
	478.314,186.34 475.659,182.841 472.763,183.695 472.829,177.951 476.74,177.951 480.779,176.133 476.315,174.014 478.866,171.613 
	480.992,172.432 483.33,170.328 483.829,173.951 486.732,173.951 486.945,170.412 483.543,167.673 486.829,165.951 491.197,165.951 
	495.449,161.416 482.905,165.085 475.039,167.999 454.629,179.023 459.944,170.29 466.747,168.582 475.464,163.088 474.829,161.951 
	470.149,161.951 466.747,159.629 472.7,154.667 477.378,156.518 476.102,149.046 481.204,144.566 481.417,148.422 477.829,152.951 
	480.141,152.951 481.805,156.936 485.829,150.951 485.829,161.558 491.383,153.267 495.111,148.59 493.473,146.464 488.189,148.59 
	488.63,145.613 487.362,141.186 491.829,136.951 496.086,136.951 501.614,128.347 500.339,122.139 510.719,124.628 508.829,126.951 
	508.829,132.951 510.829,132.951 510.829,127.894 513.829,124.951 513.829,131.951 517.134,131.951 517.984,125.813 
	521.173,124.478 521.811,121.439 528.615,124.384 527.552,121.18 523.299,119.684 519.685,117.341 522.449,114.575 528.402,112.661 
	535.63,107.345 537.969,101.605 541.158,103.093 544.947,100.967 542.829,97.951 542.829,93.951 549.232,96.846 550.195,95.065 
	547.938,91.714 551.835,89.476 555.044,91.155 551.573,93.521 553.803,94.495 552.414,98.669 551.302,103.818 551.441,106.74 
	551.859,109.105 550.328,111.053 554.109,112.723 554.829,107.157 554.829,104.951 556.334,100.061 557.829,94.356 557.829,89.951 
	559.712,91.851 560.829,94.495 560.829,101.951 561.906,103.539 565.51,101.174 564.32,99.524 564.243,94.951 565.829,94.951 
	566.887,91.544 564.522,91.002 563.269,87.878 568.696,85.203 571.25,86.301 572.829,86.981 572.829,89.951 570.422,91.573 
	572.829,93.382 572.829,95.951 572.481,97.973 577.198,96.86 576.287,94.634 575.622,91.434 576.904,88.651 580.829,89.068 
	580.829,90.951 586.535,89.346 589.861,91.573 593.402,92.129 594.685,93.103 596.649,93.382 598.048,96.165 594.713,98.948 
	592.488,103.818 579.827,105.07 580.941,106.183 589.568,107.08 591.377,108.951 595.829,108.951 607.657,108.66 608.353,105.612 
	610.579,104.993 608.214,101.762 613.452,103.694 618.829,103.818 618.829,107.951 610.747,108.27 615.325,109.94 619.507,111.053 
	623.829,110.079 623.829,110.951 632.176,110.079 641.763,108.549 645.721,107.992 647.701,108.688 649.108,107.714 
	652.038,108.966 673.053,115.924 674.446,117.454 675.421,117.037 681.823,118.15 689.058,118.706 695.181,119.82 698.382,122.881 
	698.962,120.376 704.829,123.716 704.829,126.951 707.733,129.712 709.096,131.951 711.829,131.951 712.829,136.517 
	712.829,144.951 712.829,151.951 709.82,156.972 700.344,167.13 694.84,168.66 680.4,168.939 671.232,170.469 661.778,168.382 
	658.86,170.469 657.323,168.66 648.829,167.965 648.829,169.951 639.411,165.043 634.11,163.512 633.337,164.764 637.821,166.573 
	638.115,169.078 647.446,172.417 649.398,174.087 646.06,174.783 652.044,175.896 653.715,178.679 660.255,179.792 667.908,184.523 
	668.743,186.75 670.413,191.342 670.83,194.82 669.578,197.464 671.387,199.69 675.701,202.612 678.901,207.761 677.927,209.292 
	680.849,211.1 680.71,215.275 689.059,217.084 690.45,215.553 694.346,217.362 699.912,220.841 708.261,220.702 714.662,219.449 
	717.167,214.162 713.131,209.848 713.549,205.952 709.931,204.839 706.313,208.318 694.764,202.752 691.703,199.83 694.207,198.856 
	693.929,194.124 695.877,191.759 702.139,193.077 706.452,194.951 711.829,194.951 722.593,193.679 726.211,194.806 
	727.185,187.925 728.716,188.172 730.246,186.765 725.933,181.609 718.001,177.152 715.775,171.863 720.089,165.183 
	720.367,159.477 726.35,152.798 726.907,141.944 730.246,141.248 733.725,141.805 736.647,139.718 740.961,140.274 742.352,143.614 
	743.744,142.362 747.083,143.057 749.866,145.423 745.274,139.718 745.553,134.152 744.718,126.777 740.961,126.36 740.682,123.159 
	735.673,119.959 732.055,120.237 728.02,110.775 728.298,108.131 725.515,100.756 720.089,95.608 710.627,91.712 718.558,90.599 
	721.48,87.816 725.515,87.398 731.916,85.172 734.977,88.094 740.543,88.651 745.831,94.216 743.883,96.304 737.343,103.261 
	738.317,106.461 737.482,108.41 738.178,112.027 746.805,112.584 750.562,117.454 755.015,118.15 757.519,114.81 758.911,115.228 
	763.192,110.079 764.829,109.244 764.829,105.951 761.305,101.313 761.569,98.808 759.266,93.799 762.548,88.094 765.829,87.677 
	765.829,86.951 762.835,86.146 760.456,83.224 764.275,82.111 766.298,75.571 769.124,63.882 772.829,59.847 772.829,57.951 
	775.887,53.951 777.829,53.951 779.226,56.951 779.829,56.951 779.829,51.951 776.829,51.951 779.644,39.781 783.679,38.682 
	785.21,43.908 788.828,44.294 791.054,47.339 788.132,49.001 787.854,53.033 794.393,48.856 797.872,53.03 796.202,48.855 
	796.342,46.072 799.403,46.489 799.925,44.402 796.829,43.428 796.829,35.951 801.797,30.348 808.178,27.565 809.829,25.478 
	809.829,19.951 812.301,7.945 820.829,9.336 820.829,11.951 819.051,12.954 824.275,17.546 827.829,14.763 827.829,10.951 
	823.65,7.945 826.829,5.023 826.829,-1.049 820.275,-6.049 1017.829,-6.049 1017.361,1072.591 -72.996,1072.826 -59.081,1060.114 
	-27.252,1059.395 -19.087,1054.162 -5.506,1050.17 13.033,1036.426 20.302,1021.681 17.313,1014.933 21.318,997.936 36.068,985.189 
	38.319,973.691 60.066,959.943 73.564,958.943 90.561,953.944 103.559,940.197 117.307,915.701 128.829,914.951 128.829,920.95 
	139.69,933.948 156.925,936.197 168.985,937.475 173.766,934.198 173.531,939.447 182.788,942.696 195.789,943.446 205.04,940.697 
	208.04,936.197 217.789,932.198 225.288,932.698 232.287,931.948 236.786,927.449 253.095,919.45 285.028,920.45 290.527,916.701 
	302.775,917.201 310.024,915.451 327.771,916.951 335.269,922.95 355.016,918.451 356.266,913.951 366.764,919.45 374.013,918.201 
	376.512,914.701 386.51,921.2 402.008,917.951 420.505,909.952 430.253,911.202 434.502,920.95 439.001,923.2 442.001,920.2 
	447.75,916.451 451.999,920.2 444.5,930.948 439.251,931.698 435.752,937.475 448.579,950.445 447.829,960.951 447.829,965.442 
	444.25,971.941 438.377,976.441 431.44,981.94 430.222,986.439 431.737,991.688 439.244,996.687 443.247,996.187 444.249,1000.436 
	447.829,998.951 450.749,998.951 452.499,1007.068 461.829,1009.951 465.747,1009.951 476.495,1016.692 486.993,1015.309 
	496.242,1012.747 501.548,1014.965 513.989,1016.449 521.487,1021.191 535.235,1022.437 538.734,1026.434 538.234,1032.682 
	548.233,1045.929 554.232,1047.679 568.415,1047.823 581.586,1049.705 586.796,1052.02 592.296,1052.599 594.322,1055.06 
	600.256,1056.073 611.979,1063.744 616.756,1065.625 623.124,1064.757 631.373,1059.836 639.334,1048.547 640.347,1041.31 
	636.439,1035.666 633.689,1027.561 634.268,1022.64 637.597,1016.706 645.412,1008.601 654.675,1001.943 661.477,1000.312 
	664.829,996.951 670.451,996.951 675.372,995.105 683.187,995.7 696.068,998.532 696.647,1005.737 700.121,1007.314 
	713.436,1007.885 727.185,1008.855 730.829,1006.951 736.014,1006.951 737.172,1009.73 741.514,1016.831 749.04,1016.295 
	755.829,1011.951 786.38,1011.951 788.551,1013.822 794.485,1013.357 797.235,1011.558 800.854,1015.005 807.829,1012.951 
	815.616,1012.951 823.287,1014.973 829.945,1012.055 836.168,1006.019 841.829,999.951 843.26,999.951 845.141,997.039 
	846.444,993.384 851.799,994.19 854.694,991.699 857.733,991.249 860.917,988.636 859.325,986.606 866.127,987.472 870.614,987.182 
	876.114,983.997 875.969,989.352 881.469,989.786 882.627,993.549 887.837,990.365 888.706,988.628 891.021,990.365 
	896.955,989.786 904.336,985.589 912.297,982.839 918.954,979.076 923.875,974.3 926.914,969.813 929.52,958.958 930.822,948.103 
	929.809,944.34 928.941,935.367 930.428,933.775 931.829,919.951 931.829,907.434 933.859,905.842 933.302,897.013 934.417,891.658 
	936.829,889.951 936.829,886.882 931.829,881.951 931.829,875.014 929.701,870.383 925.829,867.951 925.829,863.291 924.997,861.12 
	926.355,855.62 921.063,850.265 924.568,843.463 926.465,841.581 924.302,834.923 920.292,834.634 915.829,840.951 915.829,842.739 
	912.905,846.502 902.33,845.634 898.919,845.344 895.332,847.37 889.124,858.37 890.29,858.804 888.123,862.567 886.098,861.988 
	884.073,866.62 875.245,869.948 870.324,871.975 868.877,874.58 861.062,874.146 854.838,870.527 850.931,867.054 840.799,865.751 
	832.405,866.041 825.024,866.475 821.55,868.646 824.011,872.409 822.853,878.053 824.011,880.08 822.708,883.408 821.55,882.106 
	817.787,882.685 810.261,888.474 806.932,887.606 801.722,888.04 795.499,885 794.341,882.974 795.499,880.224 792.749,879.211 
	785.512,879.066 780.302,878.777 777.841,880.08 779.433,882.106 776.539,885.145 775.96,881.527 773.934,880.948 775.381,877.764 
	777.841,875.303 763.947,879.066 758.447,880.04 757.829,876.951 762.789,876.951 763.697,872.871 755.829,871.951 755.829,866.764 
	751.606,865.606 754.829,862.951 754.829,857.646 750.829,857.951 746.435,857.951 744.264,854.108 741.803,855.311 
	740.935,857.709 738.514,855.651 733.829,854.951 733.829,852.581 736.876,853.16 738.205,850.554 734.359,845.634 736.996,844.331 
	741.643,851.133 742.23,848.962 745.418,850.554 750.919,846.647 744.552,847.515 741.079,841.871 743.829,841.147 746.724,836.516 
	740.935,836.226 741.224,834.344 742.961,833.621 737.211,828.7 740.829,823.951 740.829,821.319 729.829,826.951 726.317,826.951 
	724.001,815.089 724.353,812.93 723.195,816.581 734.316,803.842 738.829,802.609 738.829,800.951 742.829,800.951 745.24,802.859 
	751.619,801.721 762.815,795.951 773.829,795.951 776.063,792.951 769.829,792.951 772.008,786.951 778.829,786.951 
	788.771,780.724 779.849,782.221 772.278,780.537 771.467,774.827 773.9,773.46 785.797,772.828 791.745,768.951 805.829,768.951 
	809.829,762.899 809.829,759.951 822.589,748.569 826.499,743.973 838.729,733.699 854.171,730.184 863.65,727.067 865.559,723.951 
	867.829,723.951 870.696,726.648 879.348,729.768 885.567,725.92 888.27,726.7 890.163,729.388 895.442,733.436 898.829,730.995 
	898.829,727.951 905.325,728.561 908.424,731.536 916.868,730.995 918.792,727.75 922.863,729.102 932.334,728.021 939.638,723.451 
	946.941,717.205 958.838,715.854 970.091,707.742 977.829,696.386 977.829,687.951 980.76,683.138 967.366,667.666 960.94,666.744 
	957.217,664.951 943.829,664.951 941.535,661.951 936.829,661.951 912.604,650.951 900.829,650.951 890.163,645.264 
	890.704,647.843 885.296,648.507 880.7,642.951 869.829,642.951 873.4,638.394 869.614,636.951 878.829,636.951 882.322,632.557 
	882.863,625.672 882.318,615.335 885.829,617.436 885.829,608.951 880.429,605.951 876.829,605.951 873.67,602.951 876.829,602.951 
	882.592,597.951 885.829,597.951 886.107,595.244 883.944,593.227 892.326,586.134 894.759,584.211 891.515,580.68 886.648,582.565 
	883.944,586.617 880.429,586.885 876.914,590.94 867.992,594.184 865.829,599.591 863.936,600.132 860.421,602.866 860.151,606.951 
	856.829,606.951 850.417,612.549 845.551,614.587 839.873,625.61 832.843,629.093 835.817,635.296 841.224,640.155 850.958,646.911 
	857.447,642.583 864.747,637.715 866.64,638.526 864.477,641.77 865.288,646.361 857.988,650.951 851.829,650.951 850.147,653.646 
	847.714,661.092 840.143,662.922 836.898,668.839 832.032,674.772 822.158,675.575 822.829,670.7 822.829,663.951 819.865,660.951 
	814.829,660.951 808.779,659.054 802.29,660.281 819.053,643.184 814.457,637.745 808.779,640.163 804.183,640.696 797.423,644.478 
	786.067,642.583 791.475,635.282 784.986,634.47 777.415,637.444 768.493,640.688 767.411,645.285 765.789,654.478 755.515,671.512 
	758.218,672.863 757.537,676.529 757.328,673.32 757.049,673.04 755.262,672.445 751.541,672.742 746.48,676.315 746.331,677.803 
	743.95,677.059 742.61,677.952 743.95,680.185 735.763,678.697 730.851,673.784 731.595,671.254 730.154,668.426 728.829,665.951 
	728.829,662.918 727.458,659.495 728.046,657.411 728.853,653.689 727.842,652.945 728.453,651.01 722.954,641.632 716.557,638.655 
	715.666,636.274 713.583,635.928 711.829,632.951 710.607,632.951 708.225,629.924 705.992,627.468 703.611,622.493 
	700.931,620.229 699.145,618.725 695.573,617.377 692,617.671 689.172,620.348 687.683,625.706 674.436,630.767 671.905,635.083 
	668.779,634.785 663.123,630.32 657.466,633.594 653.596,632.999 651.661,634.041 648.535,632.701 645.409,634.041 640.497,631.909 
	638.829,634.951 636.329,634.951 634.99,633.38 631.417,632.975 628.291,630.829 625.017,628.416 622.486,626.167 624.57,620.652 
	626.207,610.675 631.715,612.013 632.162,610.374 628.44,608.439 628.589,605.164 625.612,599.507 630.078,590.576 641.242,575.244 
	643.772,573.756 640.944,566.313 642.73,563.932 638.116,560.359 635.585,556.787 633.204,555 633.799,552.768 630.227,545.623 
	631.268,543.092 630.078,536.692 621.891,533.566 626.207,525.677 629.482,523.741 630.971,520.467 628.143,509.749 619.36,492.78 
	623.826,493.376 624.719,491.441 626.356,492.631 628.887,490.845 631.417,491.887 636.925,488.315 637.371,483.849 
	640.497,484.742 645.856,477.448 647.642,472.536 646.154,465.689 647.243,462.861 650.829,459.951 650.829,457.8 655.785,456.311 
	657.49,451.697 652.938,450.804 652.374,443.212 654.325,442.915 659.84,438.598 665.054,437.854 665.503,433.537 670.862,426.541 
	668.332,420.14 662.229,412.4 659.997,412.549 659.699,402.129 654.341,399.45 654.192,397.217 652.405,397.813 651.066,395.78 
	652.602,394.091 650.829,392.951 650.829,390.519 654.594,389.775 655.109,388.584 651.45,386.351 651.63,383.969 648.817,381.141 
	648.379,377.122 644.215,369.084 646.449,364.618 647.939,357.92 648.535,355.836 650.172,354.497 650.024,351.966 648.238,351.073 
	647.158,351.51 646.995,347.121 645.012,344.94 646.797,342.361 649.573,346.923 650.168,341.37 654.532,341.766 657.11,338.791 
	656.317,335.42 664.845,335.023 669.406,335.221 669.605,332.247 666.233,332.086 662.861,328.951 659.829,328.951 656.118,331.951 
	652.829,331.951 650.367,329.125 648.185,328.603 644.813,324.773 646.003,321.766 643.425,324.131 "/>
<polygon id="XMLID_36_" fill="#F8F7F7" points="387.868,667.57 391.363,664.42 393.292,665.951 398.829,665.951 402.059,664.449 
	403.829,666.038 408.635,664.449 403.829,661.804 408.635,659.299 412.579,663.463 421.329,665.249 424.604,670.259 
	423.038,673.166 424.604,677.951 428.829,677.951 428.829,680.951 431.805,683.096 436.815,679.339 438.381,681.844 
	436.815,687.167 438.381,688.732 437.128,690.924 433.997,688.419 430.866,690.924 431.492,693.742 433.684,695.308 
	432.745,698.439 428.987,694.368 424.354,695.934 420.829,694.995 420.829,689.951 417.715,691.237 418.968,695.308 
	413.142,703.136 415.21,706.267 412.544,707.519 410.829,704.075 410.829,700.951 408.009,699.691 403.829,695.934 405.817,691.864 
	398.302,696.56 399.241,699.691 395.187,705.328 389.848,704.075 387.868,705.641 380.767,706.267 377.01,698.752 378.576,695.621 
	377.01,691.237 372,690.298 368.869,695.621 364.485,698.439 361.667,696.56 366.677,692.803 363.546,691.237 368.869,684.975 
	373.253,681.218 370.748,679.652 381.707,671.198 378.576,669.945 382.333,665.249 "/>
<polygon id="XMLID_39_" fill="#FDFEFF" points="565.008,770.065 581.315,784.111 590.422,788.297 594.471,795.137 603.224,797.828 
	600.199,806.593 600.874,816.694 603.229,829.818 619.232,843.421 622.604,839.03 620.372,833.609 622.941,831.218 625.829,829.943 
	625.829,825.951 627.775,824.203 626.625,822.338 628.663,820.951 630.829,820.951 632.489,817.118 629.301,812.529 
	639.027,808.958 640.94,810.209 642.056,807.951 643.829,807.951 646.68,802.936 650.985,800.57 654.291,801.305 659.829,799.329 
	659.829,795.951 661.829,794.227 661.829,788.951 663.65,785.936 659.47,778.602 655.706,778.283 648.622,773.978 649.829,772.862 
	649.829,770.951 651.532,769.992 651.817,768.238 649.806,766.643 649.519,764.252 651.288,762.976 649.383,760.744 
	651.287,759.309 653.829,758.352 653.829,755.951 656.829,752.772 656.829,750.951 655.829,750.951 652.579,747.282 
	648.115,745.403 644.129,738.484 643.491,733.351 646.361,731.741 647.956,726.95 644.926,725.67 643.332,722.639 644.448,720.884 
	647.796,719.768 641.578,715.941 639.186,718.332 637.432,724.005 633.606,719.951 628.829,719.951 627.068,717.785 
	624.198,718.138 623.082,716.003 626.112,714.696 622.763,712.289 625.315,708.933 624.358,707.175 617.342,706.216 
	611.921,701.801 610.965,695.951 608.829,695.951 600.601,688.951 593.829,688.951 593.107,690.679 590.715,688.576 585.613,694 
	581.308,694.128 578.438,698.736 580.989,701.12 579.873,704.624 583.859,705.1 581.583,709.404 589.829,711.476 589.829,713.951 
	585.044,713.549 585.01,719.448 580.927,722.026 577.8,716.951 574.829,716.951 569.35,716.35 563.929,718.935 560.74,717.438 
	556.913,718.682 553.246,716.753 547.506,715.151 545.593,718.176 540.172,717.218 538.418,722.638 531.562,717.216 
	528.532,718.651 529.648,723.753 529.329,729.174 533.475,730.928 533.797,733.639 536.829,738.422 536.829,742.951 
	547.453,751.177 556.829,758.193 556.829,759.951 564.157,765.936 "/>
<polygon id="XMLID_28_" fill="#FDFEFF" points="750.029,760.842 750.437,763.087 748.804,764.312 750.437,766.149 761.868,772.885 
	771.258,772.681 771.462,777.581 768.4,781.255 759.419,781.459 753.499,784.521 750.233,784.317 741.047,796.156 732.882,804.73 
	729.003,809.017 725.125,807.18 735.331,796.769 725.125,800.239 720.838,799.014 725.125,791.053 723.9,784.929 729.207,781.051 
	727.778,775.947 722.267,773.294 723.492,770.64 723.9,767.374 728.187,766.557 734.923,761.862 741.659,764.108 "/>
<polygon id="XMLID_43_" fill="#FDFEFF" points="584.256,469.326 585.822,467.838 586.984,470.573 592.436,471.94 597.122,473.193 
	603.197,470.467 607.531,476.697 605.81,478.574 606.124,482.486 607.533,486.436 593.444,491.951 581.829,491.951 566.829,491.951 
	574.503,485.147 570.903,485.303 569.337,485.773 567.772,485.93 567.485,479.895 582.804,478.342 "/>
</svg>
