<?xml version="1.0" encoding="utf-8"?>
<!-- Generator: Adobe Illustrator 17.0.2, SVG Export Plug-In . SVG Version: 6.00 Build 0)  -->
<!DOCTYPE svg PUBLIC "-//W3C//DTD SVG 1.1//EN" "http://www.w3.org/Graphics/SVG/1.1/DTD/svg11.dtd">
<svg version="1.1" id="Layer_1" xmlns="http://www.w3.org/2000/svg" xmlns:xlink="http://www.w3.org/1999/xlink" x="0px" y="0px"
	 width="300px" height="300px" viewBox="0 0 300 300" enable-background="new 0 0 300 300" xml:space="preserve">
<g id="XMLID_64_">
	<path id="XMLID_126_" fill="#010101" d="M226.154,142.365l5.023,0.223c0,0-3.147-5.945-3.847,7.694
		c-0.699,13.639,19.234,27.278,19.234,27.278c59.452,4.197,51.066-10.492,51.066-10.492s-9.799,0.699-13.646,0
		c-3.847-0.699,13.639-13.289,13.639-13.289c0.699-6.645-51.059-36.37-51.059-36.37s-7.743,18.759-12.285,19.109
		c-11.15-1.612-23.754-2.747-37.577-2.862c-22.586-0.188-42.343,2.399-58.413,5.69c-24.957,1.87-49.915,3.74-74.873,5.61
		C21.539,115.586,2.911,124.56,6.99,126.327c4.079,1.768,5.031,21.759,5.031,21.759s-18.764,20.528-5.031,25.014
		c13.733,4.487,58.603-21.941,58.603-21.941"/>
	<path id="XMLID_125_" fill="#010101" d="M209.355,139.196c0,0,3.267,17.055-24.875,34.423s26.351-17.837,23.083-34.423"/>
	<path id="XMLID_124_" fill="#010101" d="M214.816,139.974c0,0,2.879,17.782-21.916,35.891s23.216-18.598,20.337-35.891"/>
	<path id="XMLID_122_" fill="#010101" d="M225.258,140.752c0,0,3.593,20.091-27.356,40.55s28.979-21.012,25.386-40.55"/>
	<path id="XMLID_120_" fill="#010101" d="M199.258,138.418c0,0,2.712,15.166-20.643,30.61s21.867-15.861,19.156-30.61"/>
	<path id="XMLID_118_" fill="#010101" d="M191.471,139.196c0,0,2.853,15.443-21.721,31.169s23.009-16.151,20.156-31.169"/>
	<path id="XMLID_116_" fill="#010101" d="M179.034,139.196c0,0,2.433,14.52-18.521,29.306s19.619-15.186,17.187-29.306"/>
	<path id="XMLID_114_" fill="#010101" d="M169.699,140.752c0,0,2.332,11.579-17.756,23.37s18.81-12.11,16.477-23.37"/>
	<path id="XMLID_112_" fill="#010101" d="M159.842,140.752c0,0,2.589,11.579-19.713,23.37s20.882-12.11,18.293-23.37"/>
	<path id="XMLID_110_" fill="#010101" d="M151.427,140.752c0,0,2.626,10.204-19.99,20.595s21.176-10.672,18.55-20.595"/>
	<path id="XMLID_108_" fill="#010101" d="M116.243,146.901c0,0-7.817,14.625-10.868,15.682s8.771-15.682,6.483-15.682"/>
	<path id="XMLID_106_" fill="#010101" d="M106.904,146.901c0,0-6.456,13.53-8.976,14.508c-2.52,0.978,7.244-14.508,5.354-14.508"/>
	<path id="XMLID_104_" fill="#010101" d="M96.787,147.679c0,0-4.599,10.317-6.394,11.063c-1.795,0.746,5.16-11.063,3.814-11.063"/>
	<path id="XMLID_102_" fill="#010101" d="M86.67,149.236c0,0-2.862,8.868-3.979,9.509s3.211-9.509,2.373-9.509"/>
	<path id="XMLID_100_" fill="#010101" d="M78.11,150.014c0,0-4.899,9.644-6.81,10.341c-1.912,0.697,5.496-10.341,4.062-10.341"/>
	<path id="XMLID_98_" fill="#010101" d="M137.805,143.865c0,0,1.972,8.847-15.012,17.856c-16.984,9.009,15.902-9.252,13.93-17.856"
		/>
	<path id="XMLID_96_" fill="#010101" d="M125.375,146.2c0,0,1.358,7.67-10.342,15.481s10.955-8.022,9.597-15.481"/>
	<path id="XMLID_94_" fill="#010101" d="M73.933,146.511c0,0-2.311-7.478-4.759-7.886c-2.447-0.408,4.926,6.798,2.803,7.886"/>
	<path id="XMLID_92_" fill="#010101" d="M81.715,145.733c0,0-2.311-9.541-4.759-10.062s4.926,8.674,2.803,10.062"/>
	<path id="XMLID_90_" fill="#010101" d="M96.501,144.74c0,0-4.539-8.622-9.345-9.092c-4.806-0.47,9.673,7.838,5.504,9.092"/>
	<path id="XMLID_88_" fill="#010101" d="M106.218,142.341c0,0-4.776-8.98-7.9-8.644c-3.124,0.336,8.582,9.757,5.12,9.588"/>
	<path id="XMLID_86_" fill="#010101" d="M116.335,141.358c0,0-4.48-9.711-7.41-9.348c-2.93,0.364,8.05,10.551,4.802,10.369"/>
	<path id="XMLID_84_" fill="#010101" d="M143.104,138.332c-3.36-16.754-9.574-21.505-9.574-21.505s9.284,22.554,6.963,23.849"/>
	<path id="XMLID_81_" fill="#010101" d="M134.661,141.163c-3.902-13.64-11.119-17.507-11.119-17.507s10.783,18.361,8.087,19.416"/>
	<path id="XMLID_80_" fill="#010101" d="M126.879,141.574c-3.149-10.702-8.974-13.737-8.974-13.737s8.702,14.407,6.527,15.234"/>
	<path id="XMLID_78_" fill="#010101" d="M153.067,136.972c-3.36-16.754-9.574-21.505-9.574-21.505s9.284,22.554,6.963,23.849"/>
	<path id="XMLID_76_" fill="#010101" d="M164.69,135.893c-3.36-16.754-9.574-21.505-9.574-21.505s9.284,22.554,6.963,23.849"/>
	<path id="XMLID_74_" fill="#010101" d="M181.295,135.893c-3.36-16.754-9.574-21.505-9.574-21.505s9.284,22.554,6.963,23.849"/>
	<path id="XMLID_72_" fill="#010101" d="M195.409,136.012c-3.821-15.897-10.887-20.405-10.887-20.405s10.557,21.401,7.918,22.63"/>
	<path id="XMLID_70_" fill="#010101" d="M217.518,134.939c0,0-6.237-17.782-4.352-19.332c1.886-1.551,7.978,20.591,7.978,20.591"/>
	<path id="XMLID_68_" fill="#010101" d="M228.854,136.154c0,0-5.304-17.849-3.701-19.405c1.604-1.556,6.785,20.669,6.785,20.669"/>
	<path id="XMLID_67_" fill="#010101" d="M207.032,133.573c-3.821-15.897-10.887-20.405-10.887-20.405s10.557,21.401,7.918,22.63"/>
	<path id="XMLID_65_" fill="#010101" d="M134.367,140.996"/>
</g>
</svg>
